<svg width="1000" height="267" viewBox="0 0 1000 267" fill="none" xmlns="http://www.w3.org/2000/svg">
<path d="M68.457 109.608V107.608H66.457V109.608H68.457ZM68.457 201H66.457V203H68.457V201ZM87.273 201V203H89.273V201H87.273ZM87.273 139.816V137.816H85.273V139.816H87.273ZM87.529 139.816L89.2278 138.76L88.6409 137.816H87.529V139.816ZM125.545 201L123.846 202.056L124.433 203H125.545V201ZM145.641 201V203H147.641V201H145.641ZM145.641 109.608H147.641V107.608H145.641V109.608ZM126.825 109.608V107.608H124.825V109.608H126.825ZM126.825 170.92V172.92H128.825V170.92H126.825ZM126.569 170.92L124.871 171.976L125.458 172.92H126.569V170.92ZM88.425 109.608L90.1232 108.552L89.5362 107.608H88.425V109.608ZM66.457 109.608V201H70.457V109.608H66.457ZM68.457 203H87.273V199H68.457V203ZM89.273 201V139.816H85.273V201H89.273ZM87.273 141.816H87.529V137.816H87.273V141.816ZM85.8302 140.872L123.846 202.056L127.244 199.944L89.2278 138.76L85.8302 140.872ZM125.545 203H145.641V199H125.545V203ZM147.641 201V109.608H143.641V201H147.641ZM145.641 107.608H126.825V111.608H145.641V107.608ZM124.825 109.608V170.92H128.825V109.608H124.825ZM126.825 168.92H126.569V172.92H126.825V168.92ZM128.267 169.864L90.1232 108.552L86.7268 110.664L124.871 171.976L128.267 169.864ZM88.425 107.608H68.457V111.608H88.425V107.608ZM186.372 165.672L184.487 165.003L183.54 167.672H186.372V165.672ZM198.276 132.136V130.136H196.864L196.391 131.467L198.276 132.136ZM198.532 132.136L200.424 131.486L199.96 130.136H198.532V132.136ZM210.052 165.672V167.672H212.854L211.944 165.022L210.052 165.672ZM188.292 109.608V107.608H186.91L186.421 108.901L188.292 109.608ZM153.732 201L151.861 200.293L150.837 203H153.732V201ZM173.956 201V203H175.372L175.842 201.664L173.956 201ZM181.124 180.648V178.648H179.708L179.238 179.984L181.124 180.648ZM215.3 180.648L217.194 180.005L216.733 178.648H215.3V180.648ZM222.212 201L220.318 201.643L220.779 203H222.212V201ZM243.076 201V203H245.959L244.949 200.299L243.076 201ZM208.9 109.608L210.773 108.907L210.287 107.608H208.9V109.608ZM188.257 166.341L200.161 132.805L196.391 131.467L184.487 165.003L188.257 166.341ZM198.276 134.136H198.532V130.136H198.276V134.136ZM196.64 132.786L208.16 166.322L211.944 165.022L200.424 131.486L196.64 132.786ZM210.052 163.672H186.372V167.672H210.052V163.672ZM186.421 108.901L151.861 200.293L155.603 201.707L190.163 110.315L186.421 108.901ZM153.732 203H173.956V199H153.732V203ZM175.842 201.664L183.01 181.312L179.238 179.984L172.07 200.336L175.842 201.664ZM181.124 182.648H215.3V178.648H181.124V182.648ZM213.406 181.291L220.318 201.643L224.106 200.357L217.194 180.005L213.406 181.291ZM222.212 203H243.076V199H222.212V203ZM244.949 200.299L210.773 108.907L207.027 110.309L241.203 201.701L244.949 200.299ZM208.9 107.608H188.292V111.608H208.9V107.608ZM259.431 126.504H261.431V124.504H259.431V126.504ZM259.431 201H257.431V203H259.431V201ZM279.527 201V203H281.527V201H279.527ZM279.527 126.504V124.504H277.527V126.504H279.527ZM306.919 126.504V128.504H308.919V126.504H306.919ZM306.919 109.608H308.919V107.608H306.919V109.608ZM232.039 109.608V107.608H230.039V109.608H232.039ZM232.039 126.504H230.039V128.504H232.039V126.504ZM257.431 126.504V201H261.431V126.504H257.431ZM259.431 203H279.527V199H259.431V203ZM281.527 201V126.504H277.527V201H281.527ZM279.527 128.504H306.919V124.504H279.527V128.504ZM308.919 126.504V109.608H304.919V126.504H308.919ZM306.919 107.608H232.039V111.608H306.919V107.608ZM230.039 109.608V126.504H234.039V109.608H230.039ZM232.039 128.504H259.431V124.504H232.039V128.504ZM395.025 109.608H397.025V107.608H395.025V109.608ZM374.929 109.608V107.608H372.929V109.608H374.929ZM370.833 181.544L372.346 182.852L372.354 182.842L372.363 182.832L370.833 181.544ZM346.129 184.616L345.235 186.405L345.272 186.424L345.311 186.441L346.129 184.616ZM340.497 180.136L338.88 181.312L338.893 181.33L338.906 181.348L340.497 180.136ZM337.809 173.736L339.778 173.384L339.778 173.384L337.809 173.736ZM337.169 109.608H339.169V107.608H337.169V109.608ZM317.073 109.608V107.608H315.073V109.608H317.073ZM327.185 194.088L325.859 195.585L325.868 195.593L327.185 194.088ZM384.657 194.088L385.965 195.601L385.975 195.592L384.657 194.088ZM397.025 166.44V109.608H393.025V166.44H397.025ZM395.025 107.608H374.929V111.608H395.025V107.608ZM372.929 109.608V166.44H376.929V109.608H372.929ZM372.929 166.44C372.929 173.065 371.593 177.537 369.303 180.256L372.363 182.832C375.534 179.066 376.929 173.469 376.929 166.44H372.929ZM369.32 180.236C367.169 182.723 362.97 184.28 355.985 184.28V188.28C363.336 188.28 369.036 186.68 372.346 182.852L369.32 180.236ZM355.985 184.28C352.04 184.28 349.067 183.741 346.947 182.791L345.311 186.441C348.14 187.709 351.738 188.28 355.985 188.28V184.28ZM347.023 182.827C344.857 181.744 343.237 180.432 342.088 178.924L338.906 181.348C340.488 183.424 342.622 185.099 345.235 186.405L347.023 182.827ZM342.114 178.96C340.935 177.338 340.154 175.49 339.778 173.384L335.84 174.088C336.318 176.761 337.328 179.179 338.88 181.312L342.114 178.96ZM339.778 173.384C339.372 171.113 339.169 168.799 339.169 166.44H335.169C335.169 169.03 335.392 171.58 335.84 174.088L339.778 173.384ZM339.169 166.44V109.608H335.169V166.44H339.169ZM337.169 107.608H317.073V111.608H337.169V107.608ZM315.073 109.608V166.44H319.073V109.608H315.073ZM315.073 166.44C315.073 179.243 318.544 189.103 325.859 195.585L328.511 192.591C322.344 187.126 319.073 178.554 319.073 166.44H315.073ZM325.868 195.593C333.174 201.986 343.304 205.048 355.985 205.048V201.048C343.919 201.048 334.85 198.137 328.502 192.583L325.868 195.593ZM355.985 205.048C368.505 205.048 378.583 201.981 385.965 195.601L383.349 192.575C376.907 198.142 367.87 201.048 355.985 201.048V205.048ZM385.975 195.592C393.457 189.034 397.025 179.18 397.025 166.44H393.025C393.025 178.447 389.681 187.024 383.339 192.584L385.975 195.592ZM432.428 150.952H430.428V152.952H432.428V150.952ZM432.428 125.224V123.224H430.428V125.224H432.428ZM464.812 128.296L463.483 129.791L463.499 129.805L463.515 129.818L464.812 128.296ZM412.332 109.608V107.608H410.332V109.608H412.332ZM412.332 201H410.332V203H412.332V201ZM432.428 201V203H434.428V201H432.428ZM432.428 165.288V163.288H430.428V165.288H432.428ZM463.404 168.616L464.818 167.202L464.818 167.202L463.404 168.616ZM467.756 179.112L469.737 178.836L469.736 178.829L467.756 179.112ZM468.908 190.632L470.904 190.505L470.904 190.505L468.908 190.632ZM470.956 201L469.088 201.714L469.579 203H470.956V201ZM491.052 201V203H494.999L492.665 199.817L491.052 201ZM488.876 196.392L486.926 196.835L486.938 196.889L486.953 196.941L488.876 196.392ZM487.852 190.504L485.859 190.67L485.862 190.711L485.867 190.752L487.852 190.504ZM487.212 179.368L489.209 179.251L489.208 179.235L489.207 179.22L487.212 179.368ZM486.188 172.456L484.221 172.82L484.228 172.855L484.236 172.89L486.188 172.456ZM484.012 166.184L482.239 167.109L482.247 167.125L482.256 167.142L484.012 166.184ZM480.044 161.192L478.71 162.682L478.733 162.702L478.756 162.722L480.044 161.192ZM473.9 157.992H471.9V159.515L473.368 159.92L473.9 157.992ZM473.9 157.736L473.157 155.879L471.9 156.382V157.736H473.9ZM484.908 148.776L483.183 147.764L483.175 147.778L483.167 147.792L484.908 148.776ZM486.444 125.096L484.58 125.821L484.592 125.853L484.606 125.884L486.444 125.096ZM481.068 117.032L479.654 118.446L479.667 118.459L479.68 118.472L481.068 117.032ZM472.62 111.656L471.844 113.499L471.873 113.511L471.902 113.523L472.62 111.656ZM434.428 150.952V125.224H430.428V150.952H434.428ZM432.428 127.224H454.444V123.224H432.428V127.224ZM454.444 127.224C458.798 127.224 461.69 128.197 463.483 129.791L466.141 126.801C463.326 124.299 459.306 123.224 454.444 123.224V127.224ZM463.515 129.818C465.197 131.251 466.268 133.765 466.268 137.896H470.268C470.268 133.152 469.035 129.266 466.109 126.774L463.515 129.818ZM466.268 137.896C466.268 142.218 465.186 144.872 463.483 146.385L466.141 149.375C469.046 146.792 470.268 142.79 470.268 137.896H466.268ZM463.483 146.385C461.69 147.979 458.798 148.952 454.444 148.952V152.952C459.306 152.952 463.326 151.877 466.141 149.375L463.483 146.385ZM454.444 148.952H432.428V152.952H454.444V148.952ZM410.332 109.608V201H414.332V109.608H410.332ZM412.332 203H432.428V199H412.332V203ZM434.428 201V165.288H430.428V201H434.428ZM432.428 167.288H452.524V163.288H432.428V167.288ZM452.524 167.288C457.336 167.288 460.319 168.359 461.99 170.03L464.818 167.202C462.052 164.435 457.781 163.288 452.524 163.288V167.288ZM461.99 170.03C463.777 171.818 465.124 174.828 465.776 179.395L469.736 178.829C469.023 173.839 467.468 169.852 464.818 167.202L461.99 170.03ZM465.775 179.388C466.28 183.004 466.659 186.794 466.912 190.759L470.904 190.505C470.645 186.448 470.256 182.558 469.737 178.836L465.775 179.388ZM466.912 190.759C467.177 194.915 467.889 198.579 469.088 201.714L472.824 200.286C471.804 197.618 471.151 194.37 470.904 190.505L466.912 190.759ZM470.956 203H491.052V199H470.956V203ZM492.665 199.817C491.888 198.758 491.257 197.446 490.799 195.843L486.953 196.941C487.519 198.922 488.338 200.682 489.439 202.183L492.665 199.817ZM490.826 195.949C490.415 194.14 490.085 192.243 489.837 190.256L485.867 190.752C486.131 192.861 486.483 194.889 486.926 196.835L490.826 195.949ZM489.845 190.338C489.677 188.315 489.55 186.336 489.466 184.401L485.47 184.575C485.556 186.565 485.686 188.597 485.859 190.67L489.845 190.338ZM489.466 184.401C489.38 182.432 489.295 180.714 489.209 179.251L485.215 179.485C485.3 180.923 485.385 182.619 485.47 184.575L489.466 184.401ZM489.207 179.22C489.029 176.818 488.673 174.418 488.14 172.022L484.236 172.89C484.727 175.102 485.054 177.31 485.217 179.516L489.207 179.22ZM488.155 172.092C487.693 169.6 486.902 167.306 485.768 165.226L482.256 167.142C483.17 168.817 483.83 170.704 484.221 172.82L488.155 172.092ZM485.785 165.259C484.646 163.075 483.162 161.203 481.332 159.662L478.756 162.722C480.169 163.912 481.33 165.367 482.239 167.109L485.785 165.259ZM481.378 159.702C479.488 158.011 477.151 156.814 474.432 156.064L473.368 159.92C475.599 160.535 477.357 161.471 478.71 162.682L481.378 159.702ZM475.9 157.992V157.736H471.9V157.992H475.9ZM474.643 159.593C480.088 157.415 484.16 154.164 486.649 149.76L483.167 147.792C481.219 151.239 477.952 153.961 473.157 155.879L474.643 159.593ZM486.633 149.788C489.147 145.505 490.364 140.491 490.364 134.824H486.364C486.364 139.909 485.277 144.197 483.183 147.764L486.633 149.788ZM490.364 134.824C490.364 131.075 489.677 127.562 488.282 124.308L484.606 125.884C485.771 128.603 486.364 131.575 486.364 134.824H490.364ZM488.308 124.371C487.008 121.027 485.053 118.096 482.456 115.592L479.68 118.472C481.862 120.576 483.491 123.021 484.58 125.821L488.308 124.371ZM482.482 115.618C479.962 113.098 476.902 111.16 473.338 109.789L471.902 113.523C474.994 114.712 477.566 116.358 479.654 118.446L482.482 115.618ZM473.396 109.813C469.871 108.328 465.931 107.608 461.612 107.608V111.608C465.485 111.608 468.884 112.253 471.844 113.499L473.396 109.813ZM461.612 107.608H412.332V111.608H461.612V107.608ZM527.747 165.672L525.862 165.003L524.915 167.672H527.747V165.672ZM539.651 132.136V130.136H538.239L537.766 131.467L539.651 132.136ZM539.907 132.136L541.799 131.486L541.335 130.136H539.907V132.136ZM551.427 165.672V167.672H554.229L553.319 165.022L551.427 165.672ZM529.667 109.608V107.608H528.285L527.796 108.901L529.667 109.608ZM495.107 201L493.236 200.293L492.212 203H495.107V201ZM515.331 201V203H516.747L517.217 201.664L515.331 201ZM522.499 180.648V178.648H521.083L520.613 179.984L522.499 180.648ZM556.675 180.648L558.569 180.005L558.108 178.648H556.675V180.648ZM563.587 201L561.693 201.643L562.154 203H563.587V201ZM584.451 201V203H587.334L586.324 200.299L584.451 201ZM550.275 109.608L552.148 108.907L551.662 107.608H550.275V109.608ZM529.632 166.341L541.536 132.805L537.766 131.467L525.862 165.003L529.632 166.341ZM539.651 134.136H539.907V130.136H539.651V134.136ZM538.015 132.786L549.535 166.322L553.319 165.022L541.799 131.486L538.015 132.786ZM551.427 163.672H527.747V167.672H551.427V163.672ZM527.796 108.901L493.236 200.293L496.978 201.707L531.538 110.315L527.796 108.901ZM495.107 203H515.331V199H495.107V203ZM517.217 201.664L524.385 181.312L520.613 179.984L513.445 200.336L517.217 201.664ZM522.499 182.648H556.675V178.648H522.499V182.648ZM554.781 181.291L561.693 201.643L565.481 200.357L558.569 180.005L554.781 181.291ZM563.587 203H584.451V199H563.587V203ZM586.324 200.299L552.148 108.907L548.402 110.309L582.578 201.701L586.324 200.299ZM550.275 107.608H529.667V111.608H550.275V107.608ZM592.332 109.608V107.608H590.332V109.608H592.332ZM592.332 201H590.332V203H592.332V201ZM656.972 201V203H658.972V201H656.972ZM656.972 184.104H658.972V182.104H656.972V184.104ZM612.428 184.104H610.428V186.104H612.428V184.104ZM612.428 109.608H614.428V107.608H612.428V109.608ZM590.332 109.608V201H594.332V109.608H590.332ZM592.332 203H656.972V199H592.332V203ZM658.972 201V184.104H654.972V201H658.972ZM656.972 182.104H612.428V186.104H656.972V182.104ZM614.428 184.104V109.608H610.428V184.104H614.428ZM612.428 107.608H592.332V111.608H612.428V107.608ZM668.207 109.608V107.608H666.207V109.608H668.207ZM668.207 201H666.207V203H668.207V201ZM732.847 201V203H734.847V201H732.847ZM732.847 184.104H734.847V182.104H732.847V184.104ZM688.303 184.104H686.303V186.104H688.303V184.104ZM688.303 109.608H690.303V107.608H688.303V109.608ZM666.207 109.608V201H670.207V109.608H666.207ZM668.207 203H732.847V199H668.207V203ZM734.847 201V184.104H730.847V201H734.847ZM732.847 182.104H688.303V186.104H732.847V182.104ZM690.303 184.104V109.608H686.303V184.104H690.303ZM688.303 107.608H668.207V111.608H688.303V107.608ZM753.512 165.416H755.512V164.861L755.226 164.386L753.512 165.416ZM753.512 201H751.512V203H753.512V201ZM773.608 201V203H775.608V201H773.608ZM773.608 165.928L771.895 164.896L771.608 165.372V165.928H773.608ZM807.528 109.608L809.241 110.64L811.067 107.608H807.528V109.608ZM785.128 109.608V107.608H783.985L783.404 108.593L785.128 109.608ZM763.88 145.704L762.159 146.723L763.885 149.638L765.604 146.719L763.88 145.704ZM742.504 109.608L744.225 108.589L743.644 107.608H742.504V109.608ZM719.976 109.608V107.608H716.441L718.262 110.638L719.976 109.608ZM751.512 165.416V201H755.512V165.416H751.512ZM753.512 203H773.608V199H753.512V203ZM775.608 201V165.928H771.608V201H775.608ZM775.321 166.96L809.241 110.64L805.815 108.576L771.895 164.896L775.321 166.96ZM807.528 107.608H785.128V111.608H807.528V107.608ZM783.404 108.593L762.156 144.689L765.604 146.719L786.852 110.623L783.404 108.593ZM765.601 144.685L744.225 108.589L740.783 110.627L762.159 146.723L765.601 144.685ZM742.504 107.608H719.976V111.608H742.504V107.608ZM718.262 110.638L751.798 166.446L755.226 164.386L721.69 108.578L718.262 110.638Z" fill="#343434"/>
<path d="M153.457 71.608V163H172.273V101.816H172.529L210.545 163H230.641V71.608H211.825V132.92H211.569L173.425 71.608H153.457ZM271.372 127.672L283.276 94.136H283.532L295.052 127.672H271.372ZM273.292 71.608L238.732 163H258.956L266.124 142.648H300.3L307.212 163H328.076L293.9 71.608H273.292ZM344.431 88.504V163H364.527V88.504H391.919V71.608H317.039V88.504H344.431ZM480.025 128.44V71.608H459.929V128.44C459.929 135.267 458.564 140.301 455.833 143.544C453.102 146.701 448.153 148.28 440.985 148.28C436.889 148.28 433.604 147.725 431.129 146.616C428.74 145.421 426.862 143.928 425.497 142.136C424.132 140.259 423.236 138.125 422.809 135.736C422.382 133.347 422.169 130.915 422.169 128.44V71.608H402.073V128.44C402.073 140.899 405.444 150.115 412.185 156.088C419.012 162.061 428.612 165.048 440.985 165.048C453.188 165.048 462.745 162.061 469.657 156.088C476.569 150.029 480.025 140.813 480.025 128.44ZM517.428 112.952V87.224H539.444C544.052 87.224 547.508 88.248 549.812 90.296C552.116 92.2587 553.268 95.4587 553.268 99.896C553.268 104.504 552.116 107.832 549.812 109.88C547.508 111.928 544.052 112.952 539.444 112.952H517.428ZM497.332 71.608V163H517.428V127.288H537.524C542.559 127.288 546.185 128.397 548.404 130.616C550.623 132.835 552.073 136.333 552.756 141.112C553.268 144.781 553.652 148.621 553.908 152.632C554.164 156.643 554.847 160.099 555.956 163H576.052C575.113 161.72 574.388 160.184 573.876 158.392C573.449 156.515 573.108 154.552 572.852 152.504C572.681 150.456 572.553 148.451 572.468 146.488C572.383 144.525 572.297 142.819 572.212 141.368C572.041 139.064 571.7 136.76 571.188 134.456C570.761 132.152 570.036 130.061 569.012 128.184C567.988 126.221 566.665 124.557 565.044 123.192C563.423 121.741 561.375 120.675 558.9 119.992V119.736C564.02 117.688 567.689 114.701 569.908 110.776C572.212 106.851 573.364 102.2 573.364 96.824C573.364 93.3253 572.724 90.0827 571.444 87.096C570.249 84.024 568.457 81.336 566.068 79.032C563.764 76.728 560.948 74.936 557.62 73.656C554.377 72.2907 550.708 71.608 546.612 71.608H497.332ZM612.747 127.672L624.651 94.136H624.907L636.427 127.672H612.747ZM614.667 71.608L580.107 163H600.331L607.499 142.648H641.675L648.587 163H669.451L635.275 71.608H614.667ZM677.332 71.608V163H741.972V146.104H697.428V71.608H677.332ZM753.207 71.608V163H817.847V146.104H773.303V71.608H753.207ZM838.512 127.416V163H858.608V127.928L892.528 71.608H870.128L848.88 107.704L827.504 71.608H804.976L838.512 127.416Z" fill="#343434"/>
</svg>
