<svg width="531" height="168" viewBox="0 0 531 168" fill="none" xmlns="http://www.w3.org/2000/svg">
<path d="M2.0836 69.0422V67.7876H0.829012V69.0422H2.0836ZM2.0836 126.162H0.829012V127.417H2.0836V126.162ZM13.8436 126.162V127.417H15.0982V126.162H13.8436ZM13.8436 87.9222V86.6676H12.589V87.9222H13.8436ZM14.0036 87.9222L15.0692 87.2601L14.7011 86.6676H14.0036V87.9222ZM37.7636 126.162L36.698 126.824L37.0661 127.417H37.7636V126.162ZM50.3236 126.162V127.417H51.5782V126.162H50.3236ZM50.3236 69.0422H51.5782V67.7876H50.3236V69.0422ZM38.5636 69.0422V67.7876H37.309V69.0422H38.5636ZM38.5636 107.362V108.617H39.8182V107.362H38.5636ZM38.4036 107.362L37.3383 108.025L37.7066 108.617H38.4036V107.362ZM14.5636 69.0422L15.6289 68.3795L15.2606 67.7876H14.5636V69.0422ZM0.829012 69.0422V126.162H3.33819V69.0422H0.829012ZM2.0836 127.417H13.8436V124.908H2.0836V127.417ZM15.0982 126.162V87.9222H12.589V126.162H15.0982ZM13.8436 89.1768H14.0036V86.6676H13.8436V89.1768ZM12.938 88.5843L36.698 126.824L38.8292 125.5L15.0692 87.2601L12.938 88.5843ZM37.7636 127.417H50.3236V124.908H37.7636V127.417ZM51.5782 126.162V69.0422H49.069V126.162H51.5782ZM50.3236 67.7876H38.5636V70.2968H50.3236V67.7876ZM37.309 69.0422V107.362H39.8182V69.0422H37.309ZM38.5636 106.108H38.4036V108.617H38.5636V106.108ZM39.4689 106.699L15.6289 68.3795L13.4983 69.7049L37.3383 108.025L39.4689 106.699ZM14.5636 67.7876H2.0836V70.2968H14.5636V67.7876ZM75.7805 104.082L74.5982 103.663L74.0039 105.337H75.7805V104.082ZM83.2205 83.1222V81.8676H82.3345L82.0382 82.7025L83.2205 83.1222ZM83.3805 83.1222L84.567 82.7146L84.2761 81.8676H83.3805V83.1222ZM90.5805 104.082V105.337H92.338L91.767 103.675L90.5805 104.082ZM76.9805 69.0422V67.7876H76.1136L75.807 68.5984L76.9805 69.0422ZM55.3805 126.162L54.207 125.718L53.5648 127.417H55.3805V126.162ZM68.0205 126.162V127.417H68.9087L69.2038 126.579L68.0205 126.162ZM72.5005 113.442V112.188H71.6122L71.3171 113.025L72.5005 113.442ZM93.8605 113.442L95.0484 113.039L94.7594 112.188H93.8605V113.442ZM98.1805 126.162L96.9925 126.566L97.2816 127.417H98.1805V126.162ZM111.22 126.162V127.417H113.029L112.396 125.723L111.22 126.162ZM89.8605 69.0422L91.0356 68.6028L90.7308 67.7876H89.8605V69.0422ZM76.9628 104.502L84.4028 83.5419L82.0382 82.7025L74.5982 103.663L76.9628 104.502ZM83.2205 84.3768H83.3805V81.8676H83.2205V84.3768ZM82.1939 83.5298L89.3939 104.49L91.767 103.675L84.567 82.7146L82.1939 83.5298ZM90.5805 102.828H75.7805V105.337H90.5805V102.828ZM75.807 68.5984L54.207 125.718L56.554 126.606L78.154 69.486L75.807 68.5984ZM55.3805 127.417H68.0205V124.908H55.3805V127.417ZM69.2038 126.579L73.6838 113.859L71.3171 113.025L66.8371 125.745L69.2038 126.579ZM72.5005 114.697H93.8605V112.188H72.5005V114.697ZM92.6725 113.846L96.9925 126.566L99.3684 125.759L95.0484 113.039L92.6725 113.846ZM98.1805 127.417H111.22V124.908H98.1805V127.417ZM112.396 125.723L91.0356 68.6028L88.6854 69.4816L110.045 126.602L112.396 125.723ZM89.8605 67.7876H76.9805V70.2968H89.8605V67.7876ZM121.442 79.6022H122.697V78.3476H121.442V79.6022ZM121.442 126.162H120.188V127.417H121.442V126.162ZM134.002 126.162V127.417H135.257V126.162H134.002ZM134.002 79.6022V78.3476H132.748V79.6022H134.002ZM151.122 79.6022V80.8568H152.377V79.6022H151.122ZM151.122 69.0422H152.377V67.7876H151.122V69.0422ZM104.322 69.0422V67.7876H103.068V69.0422H104.322ZM104.322 79.6022H103.068V80.8568H104.322V79.6022ZM120.188 79.6022V126.162H122.697V79.6022H120.188ZM121.442 127.417H134.002V124.908H121.442V127.417ZM135.257 126.162V79.6022H132.748V126.162H135.257ZM134.002 80.8568H151.122V78.3476H134.002V80.8568ZM152.377 79.6022V69.0422H149.868V79.6022H152.377ZM151.122 67.7876H104.322V70.2968H151.122V67.7876ZM103.068 69.0422V79.6022H105.577V69.0422H103.068ZM104.322 80.8568H121.442V78.3476H104.322V80.8568ZM206.189 69.0422H207.443V67.7876H206.189V69.0422ZM193.629 69.0422V67.7876H192.374V69.0422H193.629ZM191.069 114.002L192.018 114.823L192.023 114.817L192.028 114.81L191.069 114.002ZM175.629 115.922L175.068 117.044L175.091 117.056L175.115 117.067L175.629 115.922ZM172.109 113.122L171.094 113.86L171.102 113.871L171.111 113.883L172.109 113.122ZM170.429 109.122L171.664 108.902L171.664 108.902L170.429 109.122ZM170.029 69.0422H171.283V67.7876H170.029V69.0422ZM157.469 69.0422V67.7876H156.214V69.0422H157.469ZM163.789 121.842L162.957 122.781L162.962 122.786L163.789 121.842ZM199.709 121.842L200.529 122.791L200.536 122.786L199.709 121.842ZM207.443 104.562V69.0422H204.934V104.562H207.443ZM206.189 67.7876H193.629V70.2968H206.189V67.7876ZM192.374 69.0422V104.562H194.883V69.0422H192.374ZM192.374 104.562C192.374 108.702 191.539 111.496 190.109 113.194L192.028 114.81C194.012 112.455 194.883 108.956 194.883 104.562H192.374ZM190.12 113.182C188.777 114.735 186.154 115.708 181.789 115.708V118.217C186.384 118.217 189.947 117.217 192.018 114.823L190.12 113.182ZM181.789 115.708C179.324 115.708 177.466 115.371 176.142 114.777L175.115 117.067C176.884 117.86 179.134 118.217 181.789 118.217V115.708ZM176.19 114.8C174.836 114.123 173.824 113.304 173.107 112.362L171.111 113.883C172.1 115.181 173.434 116.228 175.068 117.044L176.19 114.8ZM173.123 112.384C172.387 111.372 171.899 110.217 171.664 108.902L169.194 109.343C169.492 111.014 170.124 112.526 171.094 113.86L173.123 112.384ZM171.664 108.902C171.41 107.483 171.283 106.036 171.283 104.562H168.774C168.774 106.181 168.914 107.775 169.194 109.343L171.664 108.902ZM171.283 104.562V69.0422H168.774V104.562H171.283ZM170.029 67.7876H157.469V70.2968H170.029V67.7876ZM156.214 69.0422V104.562H158.723V69.0422H156.214ZM156.214 104.562C156.214 112.565 158.383 118.729 162.957 122.781L164.621 120.903C160.767 117.489 158.723 112.133 158.723 104.562H156.214ZM162.962 122.786C167.53 126.783 173.863 128.697 181.789 128.697V126.188C174.248 126.188 168.581 124.369 164.615 120.898L162.962 122.786ZM181.789 128.697C189.614 128.697 195.914 126.78 200.529 122.791L198.888 120.893C194.863 124.371 189.216 126.188 181.789 126.188V128.697ZM200.536 122.786C205.213 118.686 207.443 112.525 207.443 104.562H204.934C204.934 112.066 202.844 117.425 198.882 120.899L200.536 122.786ZM229.565 94.8822H228.311V96.1368H229.565V94.8822ZM229.565 78.8022V77.5476H228.311V78.8022H229.565ZM249.805 80.7222L248.972 81.6599L248.982 81.6687L248.992 81.6772L249.805 80.7222ZM217.005 69.0422V67.7876H215.751V69.0422H217.005ZM217.005 126.162H215.751V127.417H217.005V126.162ZM229.565 126.162V127.417H230.82V126.162H229.565ZM229.565 103.842V102.588H228.311V103.842H229.565ZM248.925 105.922L249.813 105.035L249.813 105.035L248.925 105.922ZM251.645 112.482L252.888 112.309L252.887 112.305L251.645 112.482ZM252.365 119.682L253.618 119.602L253.618 119.602L252.365 119.682ZM253.645 126.162L252.474 126.61L252.782 127.417H253.645V126.162ZM266.205 126.162V127.417H268.681L267.217 125.42L266.205 126.162ZM264.845 123.282L263.622 123.56L263.63 123.594L263.639 123.627L264.845 123.282ZM264.205 119.602L262.955 119.706L262.957 119.732L262.961 119.758L264.205 119.602ZM263.805 112.642L265.058 112.569L265.057 112.559L265.057 112.55L263.805 112.642ZM263.165 108.322L261.932 108.551L261.936 108.573L261.941 108.594L263.165 108.322ZM261.805 104.402L260.693 104.983L260.699 104.993L260.704 105.003L261.805 104.402ZM259.325 101.282L258.489 102.217L258.503 102.23L258.517 102.242L259.325 101.282ZM255.485 99.2822H254.231V100.238L255.152 100.492L255.485 99.2822ZM255.485 99.1222L255.02 97.9573L254.231 98.2728V99.1222H255.485ZM262.365 93.5222L261.284 92.8871L261.278 92.896L261.273 92.9049L262.365 93.5222ZM263.325 78.7222L262.156 79.1769L262.164 79.1968L262.172 79.2164L263.325 78.7222ZM259.965 73.6822L259.078 74.5693L259.086 74.5774L259.095 74.5853L259.965 73.6822ZM254.685 70.3222L254.199 71.4785L254.217 71.4861L254.235 71.4932L254.685 70.3222ZM230.82 94.8822V78.8022H228.311V94.8822H230.82ZM229.565 80.0568H243.325V77.5476H229.565V80.0568ZM243.325 80.0568C246.046 80.0568 247.852 80.6646 248.972 81.6599L250.639 79.7845C248.879 78.2198 246.365 77.5476 243.325 77.5476V80.0568ZM248.992 81.6772C250.042 82.5715 250.711 84.1411 250.711 86.7222H253.22C253.22 83.7566 252.449 81.3263 250.619 79.7672L248.992 81.6772ZM250.711 86.7222C250.711 89.4226 250.035 91.08 248.972 92.0245L250.639 93.8999C252.456 92.2844 253.22 89.7818 253.22 86.7222H250.711ZM248.972 92.0245C247.852 93.0198 246.046 93.6276 243.325 93.6276V96.1368C246.365 96.1368 248.879 95.4646 250.639 93.8999L248.972 92.0245ZM243.325 93.6276H229.565V96.1368H243.325V93.6276ZM215.751 69.0422V126.162H218.26V69.0422H215.751ZM217.005 127.417H229.565V124.908H217.005V127.417ZM230.82 126.162V103.842H228.311V126.162H230.82ZM229.565 105.097H242.125V102.588H229.565V105.097ZM242.125 105.097C245.133 105.097 246.995 105.766 248.038 106.809L249.813 105.035C248.082 103.305 245.412 102.588 242.125 102.588V105.097ZM248.038 106.809C249.154 107.925 249.996 109.806 250.403 112.66L252.887 112.305C252.442 109.186 251.47 106.692 249.813 105.035L248.038 106.809ZM250.403 112.656C250.718 114.915 250.955 117.284 251.113 119.762L253.618 119.602C253.456 117.067 253.213 114.636 252.888 112.309L250.403 112.656ZM251.113 119.762C251.279 122.36 251.724 124.65 252.474 126.61L254.817 125.714C254.18 124.048 253.772 122.018 253.618 119.602L251.113 119.762ZM253.645 127.417H266.205V124.908H253.645V127.417ZM267.217 125.42C266.732 124.759 266.338 123.939 266.052 122.938L263.639 123.627C263.993 124.865 264.505 125.965 265.194 126.904L267.217 125.42ZM266.069 123.004C265.812 121.874 265.606 120.688 265.45 119.447L262.961 119.758C263.125 121.076 263.346 122.344 263.622 123.56L266.069 123.004ZM265.456 119.498C265.35 118.234 265.271 116.997 265.219 115.788L262.712 115.897C262.766 117.141 262.847 118.411 262.955 119.706L265.456 119.498ZM265.219 115.788C265.165 114.557 265.112 113.483 265.058 112.569L262.553 112.716C262.606 113.614 262.659 114.674 262.712 115.897L265.219 115.788ZM265.057 112.55C264.945 111.048 264.723 109.548 264.39 108.05L261.941 108.594C262.248 109.977 262.452 111.357 262.554 112.735L265.057 112.55ZM264.399 108.094C264.111 106.536 263.616 105.102 262.907 103.801L260.704 105.003C261.275 106.049 261.687 107.229 261.932 108.551L264.399 108.094ZM262.918 103.822C262.206 102.457 261.278 101.286 260.134 100.323L258.517 102.242C259.4 102.985 260.125 103.894 260.693 104.983L262.918 103.822ZM260.162 100.347C258.981 99.2903 257.519 98.5417 255.819 98.0728L255.152 100.492C256.545 100.876 257.644 101.461 258.489 102.217L260.162 100.347ZM256.74 99.2822V99.1222H254.231V99.2822H256.74ZM255.951 100.287C259.355 98.9254 261.901 96.8929 263.458 94.1395L261.273 92.9049C260.056 95.0581 258.015 96.759 255.02 97.9573L255.951 100.287ZM263.447 94.1573C265.019 91.479 265.78 88.3447 265.78 84.8022H263.271C263.271 87.9797 262.591 90.6587 261.284 92.8871L263.447 94.1573ZM265.78 84.8022C265.78 82.4588 265.351 80.2625 264.479 78.228L262.172 79.2164C262.9 80.9152 263.271 82.7723 263.271 84.8022H265.78ZM264.495 78.2675C263.682 76.1769 262.459 74.3443 260.836 72.7791L259.095 74.5853C260.458 75.9001 261.476 77.4274 262.156 79.1769L264.495 78.2675ZM260.853 72.7951C259.277 71.2197 257.364 70.0083 255.136 69.1512L254.235 71.4932C256.167 72.2361 257.774 73.2647 259.078 74.5693L260.853 72.7951ZM255.172 69.1659C252.968 68.2379 250.506 67.7876 247.805 67.7876V70.2968C250.225 70.2968 252.349 70.6998 254.199 71.4785L255.172 69.1659ZM247.805 67.7876H217.005V70.2968H247.805V67.7876ZM289.14 104.082L287.958 103.663L287.363 105.337H289.14V104.082ZM296.58 83.1222V81.8676H295.694L295.398 82.7025L296.58 83.1222ZM296.74 83.1222L297.926 82.7146L297.635 81.8676H296.74V83.1222ZM303.94 104.082V105.337H305.697L305.126 103.675L303.94 104.082ZM290.34 69.0422V67.7876H289.473L289.166 68.5984L290.34 69.0422ZM268.74 126.162L267.566 125.718L266.924 127.417H268.74V126.162ZM281.38 126.162V127.417H282.268L282.563 126.579L281.38 126.162ZM285.86 113.442V112.188H284.972L284.677 113.025L285.86 113.442ZM307.22 113.442L308.408 113.039L308.119 112.188H307.22V113.442ZM311.54 126.162L310.352 126.566L310.641 127.417H311.54V126.162ZM324.58 126.162V127.417H326.388L325.755 125.723L324.58 126.162ZM303.22 69.0422L304.395 68.6028L304.09 67.7876H303.22V69.0422ZM290.322 104.502L297.762 83.5419L295.398 82.7025L287.958 103.663L290.322 104.502ZM296.58 84.3768H296.74V81.8676H296.58V84.3768ZM295.553 83.5298L302.753 104.49L305.126 103.675L297.926 82.7146L295.553 83.5298ZM303.94 102.828H289.14V105.337H303.94V102.828ZM289.166 68.5984L267.566 125.718L269.913 126.606L291.513 69.486L289.166 68.5984ZM268.74 127.417H281.38V124.908H268.74V127.417ZM282.563 126.579L287.043 113.859L284.677 113.025L280.197 125.745L282.563 126.579ZM285.86 114.697H307.22V112.188H285.86V114.697ZM306.032 113.846L310.352 126.566L312.728 125.759L308.408 113.039L306.032 113.846ZM311.54 127.417H324.58V124.908H311.54V127.417ZM325.755 125.723L304.395 68.6028L302.045 69.4816L323.405 126.602L325.755 125.723ZM303.22 67.7876H290.34V70.2968H303.22V67.7876ZM329.505 69.0422V67.7876H328.251V69.0422H329.505ZM329.505 126.162H328.251V127.417H329.505V126.162ZM369.905 126.162V127.417H371.16V126.162H369.905ZM369.905 115.602H371.16V114.348H369.905V115.602ZM342.065 115.602H340.811V116.857H342.065V115.602ZM342.065 69.0422H343.32V67.7876H342.065V69.0422ZM328.251 69.0422V126.162H330.76V69.0422H328.251ZM329.505 127.417H369.905V124.908H329.505V127.417ZM371.16 126.162V115.602H368.651V126.162H371.16ZM369.905 114.348H342.065V116.857H369.905V114.348ZM343.32 115.602V69.0422H340.811V115.602H343.32ZM342.065 67.7876H329.505V70.2968H342.065V67.7876ZM376.927 69.0422V67.7876H375.673V69.0422H376.927ZM376.927 126.162H375.673V127.417H376.927V126.162ZM417.327 126.162V127.417H418.582V126.162H417.327ZM417.327 115.602H418.582V114.348H417.327V115.602ZM389.487 115.602H388.233V116.857H389.487V115.602ZM389.487 69.0422H390.742V67.7876H389.487V69.0422ZM375.673 69.0422V126.162H378.182V69.0422H375.673ZM376.927 127.417H417.327V124.908H376.927V127.417ZM418.582 126.162V115.602H416.073V126.162H418.582ZM417.327 114.348H389.487V116.857H417.327V114.348ZM390.742 115.602V69.0422H388.233V115.602H390.742ZM389.487 67.7876H376.927V70.2968H389.487V67.7876ZM430.243 103.922H431.498V103.574L431.318 103.276L430.243 103.922ZM430.243 126.162H428.988V127.417H430.243V126.162ZM442.803 126.162V127.417H444.058V126.162H442.803ZM442.803 104.242L441.728 103.595L441.548 103.894V104.242H442.803ZM464.003 69.0422L465.078 69.6895L466.223 67.7876H464.003V69.0422ZM450.003 69.0422V67.7876H449.286L448.922 68.4058L450.003 69.0422ZM436.723 91.6022L435.643 92.2415L436.726 94.0698L437.804 92.2386L436.723 91.6022ZM423.363 69.0422L424.442 68.4029L424.078 67.7876H423.363V69.0422ZM409.283 69.0422V67.7876H407.065L408.208 69.6884L409.283 69.0422ZM428.988 103.922V126.162H431.498V103.922H428.988ZM430.243 127.417H442.803V124.908H430.243V127.417ZM444.058 126.162V104.242H441.548V126.162H444.058ZM443.878 104.889L465.078 69.6895L462.928 68.3949L441.728 103.595L443.878 104.889ZM464.003 67.7876H450.003V70.2968H464.003V67.7876ZM448.922 68.4058L435.642 90.9658L437.804 92.2386L451.084 69.6786L448.922 68.4058ZM437.802 90.9629L424.442 68.4029L422.283 69.6815L435.643 92.2415L437.802 90.9629ZM423.363 67.7876H409.283V70.2968H423.363V67.7876ZM408.208 69.6884L429.168 104.568L431.318 103.276L410.358 68.396L408.208 69.6884Z" fill="#343434"/>
<path d="M48.9519 44.7051V101.825H60.7119V63.5851H60.8719L84.6319 101.825H97.1919V44.7051H85.4319V83.0251H85.2719L61.4319 44.7051H48.9519ZM122.649 79.7451L130.089 58.7851H130.249L137.449 79.7451H122.649ZM123.849 44.7051L102.249 101.825H114.889L119.369 89.1051H140.729L145.049 101.825H158.089L136.729 44.7051H123.849ZM168.311 55.2651V101.825H180.871V55.2651H197.991V44.7051H151.191V55.2651H168.311ZM253.057 80.2251V44.7051H240.497V80.2251C240.497 84.4918 239.644 87.6384 237.937 89.6651C236.23 91.6384 233.137 92.6251 228.657 92.6251C226.097 92.6251 224.044 92.2784 222.497 91.5851C221.004 90.8384 219.83 89.9051 218.977 88.7851C218.124 87.6118 217.564 86.2784 217.297 84.7851C217.03 83.2918 216.897 81.7718 216.897 80.2251V44.7051H204.337V80.2251C204.337 88.0118 206.444 93.7718 210.657 97.5051C214.924 101.238 220.924 103.105 228.657 103.105C236.284 103.105 242.257 101.238 246.577 97.5051C250.897 93.7184 253.057 87.9584 253.057 80.2251ZM276.434 70.5451V54.4651H290.194C293.074 54.4651 295.234 55.1051 296.674 56.3851C298.114 57.6118 298.834 59.6118 298.834 62.3851C298.834 65.2651 298.114 67.3451 296.674 68.6251C295.234 69.9051 293.074 70.5451 290.194 70.5451H276.434ZM263.874 44.7051V101.825H276.434V79.5051H288.994C292.14 79.5051 294.407 80.1984 295.794 81.5851C297.18 82.9718 298.087 85.1584 298.514 88.1451C298.834 90.4384 299.074 92.8384 299.234 95.3451C299.394 97.8518 299.82 100.012 300.514 101.825H313.074C312.487 101.025 312.034 100.065 311.714 98.9451C311.447 97.7718 311.234 96.5451 311.074 95.2651C310.967 93.9851 310.887 92.7318 310.834 91.5051C310.78 90.2784 310.727 89.2118 310.674 88.3051C310.567 86.8651 310.354 85.4251 310.034 83.9851C309.767 82.5451 309.314 81.2384 308.674 80.0651C308.034 78.8384 307.207 77.7984 306.194 76.9451C305.18 76.0384 303.9 75.3718 302.354 74.9451V74.7851C305.554 73.5051 307.847 71.6384 309.234 69.1851C310.674 66.7318 311.394 63.8251 311.394 60.4651C311.394 58.2784 310.994 56.2518 310.194 54.3851C309.447 52.4651 308.327 50.7851 306.834 49.3451C305.394 47.9051 303.634 46.7851 301.554 45.9851C299.527 45.1318 297.234 44.7051 294.674 44.7051H263.874ZM336.008 79.7451L343.448 58.7851H343.608L350.808 79.7451H336.008ZM337.208 44.7051L315.608 101.825H328.248L332.728 89.1051H354.088L358.408 101.825H371.448L350.088 44.7051H337.208ZM376.374 44.7051V101.825H416.774V91.2651H388.934V44.7051H376.374ZM423.796 44.7051V101.825H464.196V91.2651H436.356V44.7051H423.796ZM477.111 79.5851V101.825H489.671V79.9051L510.871 44.7051H496.871L483.591 67.2651L470.231 44.7051H456.151L477.111 79.5851Z" fill="#343434"/>
</svg>
