<svg width="866" height="229" viewBox="0 0 866 229" fill="none" xmlns="http://www.w3.org/2000/svg">
<path d="M68.457 71.608V69.608H66.457V71.608H68.457ZM68.457 163H66.457V165H68.457V163ZM87.273 163V165H89.273V163H87.273ZM87.273 101.816V99.816H85.273V101.816H87.273ZM87.529 101.816L89.2278 100.76L88.6409 99.816H87.529V101.816ZM125.545 163L123.846 164.056L124.433 165H125.545V163ZM145.641 163V165H147.641V163H145.641ZM145.641 71.608H147.641V69.608H145.641V71.608ZM126.825 71.608V69.608H124.825V71.608H126.825ZM126.825 132.92V134.92H128.825V132.92H126.825ZM126.569 132.92L124.871 133.976L125.458 134.92H126.569V132.92ZM88.425 71.608L90.1232 70.5515L89.5362 69.608H88.425V71.608ZM66.457 71.608V163H70.457V71.608H66.457ZM68.457 165H87.273V161H68.457V165ZM89.273 163V101.816H85.273V163H89.273ZM87.273 103.816H87.529V99.816H87.273V103.816ZM85.8302 102.872L123.846 164.056L127.244 161.944L89.2278 100.76L85.8302 102.872ZM125.545 165H145.641V161H125.545V165ZM147.641 163V71.608H143.641V163H147.641ZM145.641 69.608H126.825V73.608H145.641V69.608ZM124.825 71.608V132.92H128.825V71.608H124.825ZM126.825 130.92H126.569V134.92H126.825V130.92ZM128.267 131.864L90.1232 70.5515L86.7268 72.6645L124.871 133.976L128.267 131.864ZM88.425 69.608H68.457V73.608H88.425V69.608ZM186.372 127.672L184.487 127.003L183.54 129.672H186.372V127.672ZM198.276 94.136V92.136H196.864L196.391 93.467L198.276 94.136ZM198.532 94.136L200.424 93.4862L199.96 92.136H198.532V94.136ZM210.052 127.672V129.672H212.854L211.944 127.022L210.052 127.672ZM188.292 71.608V69.608H186.91L186.421 70.9006L188.292 71.608ZM153.732 163L151.861 162.293L150.837 165H153.732V163ZM173.956 163V165H175.372L175.842 163.664L173.956 163ZM181.124 142.648V140.648H179.708L179.238 141.984L181.124 142.648ZM215.3 142.648L217.194 142.005L216.733 140.648H215.3V142.648ZM222.212 163L220.318 163.643L220.779 165H222.212V163ZM243.076 163V165H245.959L244.949 162.299L243.076 163ZM208.9 71.608L210.773 70.9075L210.287 69.608H208.9V71.608ZM188.257 128.341L200.161 94.805L196.391 93.467L184.487 127.003L188.257 128.341ZM198.276 96.136H198.532V92.136H198.276V96.136ZM196.64 94.7858L208.16 128.322L211.944 127.022L200.424 93.4862L196.64 94.7858ZM210.052 125.672H186.372V129.672H210.052V125.672ZM186.421 70.9006L151.861 162.293L155.603 163.707L190.163 72.3154L186.421 70.9006ZM153.732 165H173.956V161H153.732V165ZM175.842 163.664L183.01 143.312L179.238 141.984L172.07 162.336L175.842 163.664ZM181.124 144.648H215.3V140.648H181.124V144.648ZM213.406 143.291L220.318 163.643L224.106 162.357L217.194 142.005L213.406 143.291ZM222.212 165H243.076V161H222.212V165ZM244.949 162.299L210.773 70.9075L207.027 72.3085L241.203 163.701L244.949 162.299ZM208.9 69.608H188.292V73.608H208.9V69.608ZM259.431 88.504H261.431V86.504H259.431V88.504ZM259.431 163H257.431V165H259.431V163ZM279.527 163V165H281.527V163H279.527ZM279.527 88.504V86.504H277.527V88.504H279.527ZM306.919 88.504V90.504H308.919V88.504H306.919ZM306.919 71.608H308.919V69.608H306.919V71.608ZM232.039 71.608V69.608H230.039V71.608H232.039ZM232.039 88.504H230.039V90.504H232.039V88.504ZM257.431 88.504V163H261.431V88.504H257.431ZM259.431 165H279.527V161H259.431V165ZM281.527 163V88.504H277.527V163H281.527ZM279.527 90.504H306.919V86.504H279.527V90.504ZM308.919 88.504V71.608H304.919V88.504H308.919ZM306.919 69.608H232.039V73.608H306.919V69.608ZM230.039 71.608V88.504H234.039V71.608H230.039ZM232.039 90.504H259.431V86.504H232.039V90.504ZM395.025 71.608H397.025V69.608H395.025V71.608ZM374.929 71.608V69.608H372.929V71.608H374.929ZM370.833 143.544L372.346 144.852L372.354 144.842L372.363 144.832L370.833 143.544ZM346.129 146.616L345.235 148.405L345.272 148.424L345.311 148.441L346.129 146.616ZM340.497 142.136L338.88 143.312L338.893 143.33L338.906 143.348L340.497 142.136ZM337.809 135.736L339.778 135.384L337.809 135.736ZM337.169 71.608H339.169V69.608H337.169V71.608ZM317.073 71.608V69.608H315.073V71.608H317.073ZM327.185 156.088L325.859 157.585L325.868 157.593L327.185 156.088ZM384.657 156.088L385.965 157.601L385.975 157.592L384.657 156.088ZM397.025 128.44V71.608H393.025V128.44H397.025ZM395.025 69.608H374.929V73.608H395.025V69.608ZM372.929 71.608V128.44H376.929V71.608H372.929ZM372.929 128.44C372.929 135.065 371.593 139.537 369.303 142.256L372.363 144.832C375.534 141.066 376.929 135.469 376.929 128.44H372.929ZM369.32 142.236C367.169 144.723 362.97 146.28 355.985 146.28V150.28C363.336 150.28 369.036 148.68 372.346 144.852L369.32 142.236ZM355.985 146.28C352.04 146.28 349.067 145.741 346.947 144.791L345.311 148.441C348.14 149.709 351.738 150.28 355.985 150.28V146.28ZM347.023 144.827C344.857 143.744 343.237 142.432 342.088 140.924L338.906 143.348C340.488 145.424 342.622 147.099 345.235 148.405L347.023 144.827ZM342.114 140.96C340.935 139.338 340.154 137.49 339.778 135.384L335.84 136.088C336.318 138.761 337.328 141.179 338.88 143.312L342.114 140.96ZM339.778 135.384C339.372 133.113 339.169 130.799 339.169 128.44H335.169C335.169 131.03 335.392 133.58 335.84 136.088L339.778 135.384ZM339.169 128.44V71.608H335.169V128.44H339.169ZM337.169 69.608H317.073V73.608H337.169V69.608ZM315.073 71.608V128.44H319.073V71.608H315.073ZM315.073 128.44C315.073 141.243 318.544 151.103 325.859 157.585L328.511 154.591C322.344 149.126 319.073 140.554 319.073 128.44H315.073ZM325.868 157.593C333.174 163.986 343.304 167.048 355.985 167.048V163.048C343.919 163.048 334.85 160.137 328.502 154.583L325.868 157.593ZM355.985 167.048C368.505 167.048 378.583 163.981 385.965 157.601L383.349 154.575C376.907 160.142 367.87 163.048 355.985 163.048V167.048ZM385.975 157.592C393.457 151.034 397.025 141.18 397.025 128.44H393.025C393.025 140.447 389.681 149.024 383.339 154.584L385.975 157.592ZM432.428 112.952H430.428V114.952H432.428V112.952ZM432.428 87.224V85.224H430.428V87.224H432.428ZM464.812 90.296L463.483 91.7908L463.499 91.8048L463.515 91.8185L464.812 90.296ZM412.332 71.608V69.608H410.332V71.608H412.332ZM412.332 163H410.332V165H412.332V163ZM432.428 163V165H434.428V163H432.428ZM432.428 127.288V125.288H430.428V127.288H432.428ZM463.404 130.616L464.818 129.202L463.404 130.616ZM467.756 141.112L469.737 140.836L469.736 140.829L467.756 141.112ZM468.908 152.632L470.904 152.505V152.505L468.908 152.632ZM470.956 163L469.088 163.714L469.579 165H470.956V163ZM491.052 163V165H494.999L492.665 161.817L491.052 163ZM488.876 158.392L486.926 158.835L486.938 158.889L486.953 158.941L488.876 158.392ZM487.852 152.504L485.859 152.67L485.862 152.711L485.867 152.752L487.852 152.504ZM487.212 141.368L489.209 141.251L489.208 141.235L489.207 141.22L487.212 141.368ZM486.188 134.456L484.221 134.82L484.228 134.855L484.236 134.89L486.188 134.456ZM484.012 128.184L482.239 129.109L482.247 129.125L482.256 129.142L484.012 128.184ZM480.044 123.192L478.71 124.682L478.733 124.702L478.756 124.722L480.044 123.192ZM473.9 119.992H471.9V121.515L473.368 121.92L473.9 119.992ZM473.9 119.736L473.157 117.879L471.9 118.382V119.736H473.9ZM484.908 110.776L483.183 109.764L483.175 109.778L483.167 109.792L484.908 110.776ZM486.444 87.096L484.58 87.8209L484.592 87.8526L484.606 87.8838L486.444 87.096ZM481.068 79.032L479.654 80.4462L479.667 80.4591L479.68 80.4717L481.068 79.032ZM472.62 73.656L471.844 75.4993L471.873 75.5114L471.902 75.5227L472.62 73.656ZM434.428 112.952V87.224H430.428V112.952H434.428ZM432.428 89.224H454.444V85.224H432.428V89.224ZM454.444 89.224C458.798 89.224 461.69 90.1966 463.483 91.7908L466.141 88.8012C463.326 86.2993 459.306 85.224 454.444 85.224V89.224ZM463.515 91.8185C465.197 93.2512 466.268 95.7652 466.268 99.896H470.268C470.268 95.1522 469.035 91.2662 466.109 88.7735L463.515 91.8185ZM466.268 99.896C466.268 104.218 465.186 106.872 463.483 108.385L466.141 111.375C469.046 108.792 470.268 104.79 470.268 99.896H466.268ZM463.483 108.385C461.69 109.979 458.798 110.952 454.444 110.952V114.952C459.306 114.952 463.326 113.877 466.141 111.375L463.483 108.385ZM454.444 110.952H432.428V114.952H454.444V110.952ZM410.332 71.608V163H414.332V71.608H410.332ZM412.332 165H432.428V161H412.332V165ZM434.428 163V127.288H430.428V163H434.428ZM432.428 129.288H452.524V125.288H432.428V129.288ZM452.524 129.288C457.336 129.288 460.319 130.359 461.99 132.03L464.818 129.202C462.052 126.435 457.781 125.288 452.524 125.288V129.288ZM461.99 132.03C463.777 133.818 465.124 136.828 465.776 141.395L469.736 140.829C469.023 135.839 467.468 131.852 464.818 129.202L461.99 132.03ZM465.775 141.388C466.28 145.004 466.659 148.794 466.912 152.759L470.904 152.505C470.645 148.448 470.256 144.558 469.737 140.836L465.775 141.388ZM466.912 152.759C467.177 156.915 467.889 160.579 469.088 163.714L472.824 162.286C471.804 159.618 471.151 156.37 470.904 152.505L466.912 152.759ZM470.956 165H491.052V161H470.956V165ZM492.665 161.817C491.888 160.758 491.257 159.446 490.799 157.843L486.953 158.941C487.519 160.922 488.338 162.682 489.439 164.183L492.665 161.817ZM490.826 157.949C490.415 156.14 490.085 154.243 489.837 152.256L485.867 152.752C486.131 154.861 486.483 156.889 486.926 158.835L490.826 157.949ZM489.845 152.338C489.677 150.315 489.55 148.336 489.466 146.401L485.47 146.575C485.556 148.565 485.686 150.597 485.859 152.67L489.845 152.338ZM489.466 146.401C489.38 144.432 489.295 142.714 489.209 141.251L485.215 141.485C485.3 142.923 485.385 144.619 485.47 146.575L489.466 146.401ZM489.207 141.22C489.029 138.818 488.673 136.418 488.14 134.022L484.236 134.89C484.727 137.102 485.054 139.31 485.217 141.516L489.207 141.22ZM488.155 134.092C487.693 131.6 486.902 129.306 485.768 127.226L482.256 129.142C483.17 130.817 483.83 132.704 484.221 134.82L488.155 134.092ZM485.785 127.259C484.646 125.075 483.162 123.203 481.332 121.662L478.756 124.722C480.169 125.912 481.33 127.367 482.239 129.109L485.785 127.259ZM481.378 121.702C479.488 120.011 477.151 118.814 474.432 118.064L473.368 121.92C475.599 122.535 477.357 123.471 478.71 124.682L481.378 121.702ZM475.9 119.992V119.736H471.9V119.992H475.9ZM474.643 121.593C480.088 119.415 484.16 116.164 486.649 111.76L483.167 109.792C481.219 113.239 477.952 115.961 473.157 117.879L474.643 121.593ZM486.633 111.788C489.147 107.505 490.364 102.491 490.364 96.824H486.364C486.364 101.909 485.277 106.197 483.183 109.764L486.633 111.788ZM490.364 96.824C490.364 93.0755 489.677 89.5624 488.282 86.3082L484.606 87.8838C485.771 90.6029 486.364 93.5752 486.364 96.824H490.364ZM488.308 86.3711C487.008 83.0273 485.053 80.0959 482.456 77.5923L479.68 80.4717C481.862 82.5761 483.491 85.0207 484.58 87.8209L488.308 86.3711ZM482.482 77.6178C479.962 75.0979 476.902 73.1602 473.338 71.7893L471.902 75.5227C474.994 76.7118 477.566 78.3581 479.654 80.4462L482.482 77.6178ZM473.396 71.8127C469.871 70.3284 465.931 69.608 461.612 69.608V73.608C465.485 73.608 468.884 74.2529 471.844 75.4993L473.396 71.8127ZM461.612 69.608H412.332V73.608H461.612V69.608ZM527.747 127.672L525.862 127.003L524.915 129.672H527.747V127.672ZM539.651 94.136V92.136H538.239L537.766 93.467L539.651 94.136ZM539.907 94.136L541.799 93.4862L541.335 92.136H539.907V94.136ZM551.427 127.672V129.672H554.229L553.319 127.022L551.427 127.672ZM529.667 71.608V69.608H528.285L527.796 70.9006L529.667 71.608ZM495.107 163L493.236 162.293L492.212 165H495.107V163ZM515.331 163V165H516.747L517.217 163.664L515.331 163ZM522.499 142.648V140.648H521.083L520.613 141.984L522.499 142.648ZM556.675 142.648L558.569 142.005L558.108 140.648H556.675V142.648ZM563.587 163L561.693 163.643L562.154 165H563.587V163ZM584.451 163V165H587.334L586.324 162.299L584.451 163ZM550.275 71.608L552.148 70.9075L551.662 69.608H550.275V71.608ZM529.632 128.341L541.536 94.805L537.766 93.467L525.862 127.003L529.632 128.341ZM539.651 96.136H539.907V92.136H539.651V96.136ZM538.016 94.7858L549.535 128.322L553.319 127.022L541.799 93.4862L538.016 94.7858ZM551.427 125.672H527.747V129.672H551.427V125.672ZM527.796 70.9006L493.236 162.293L496.978 163.707L531.538 72.3154L527.796 70.9006ZM495.107 165H515.331V161H495.107V165ZM517.217 163.664L524.385 143.312L520.613 141.984L513.445 162.336L517.217 163.664ZM522.499 144.648H556.675V140.648H522.499V144.648ZM554.781 143.291L561.693 163.643L565.481 162.357L558.569 142.005L554.781 143.291ZM563.587 165H584.451V161H563.587V165ZM586.324 162.299L552.148 70.9075L548.402 72.3085L582.578 163.701L586.324 162.299ZM550.275 69.608H529.667V73.608H550.275V69.608ZM592.332 71.608V69.608H590.332V71.608H592.332ZM592.332 163H590.332V165H592.332V163ZM656.972 163V165H658.972V163H656.972ZM656.972 146.104H658.972V144.104H656.972V146.104ZM612.428 146.104H610.428V148.104H612.428V146.104ZM612.428 71.608H614.428V69.608H612.428V71.608ZM590.332 71.608V163H594.332V71.608H590.332ZM592.332 165H656.972V161H592.332V165ZM658.972 163V146.104H654.972V163H658.972ZM656.972 144.104H612.428V148.104H656.972V144.104ZM614.428 146.104V71.608H610.428V146.104H614.428ZM612.428 69.608H592.332V73.608H612.428V69.608ZM668.207 71.608V69.608H666.207V71.608H668.207ZM668.207 163H666.207V165H668.207V163ZM732.847 163V165H734.847V163H732.847ZM732.847 146.104H734.847V144.104H732.847V146.104ZM688.303 146.104H686.303V148.104H688.303V146.104ZM688.303 71.608H690.303V69.608H688.303V71.608ZM666.207 71.608V163H670.207V71.608H666.207ZM668.207 165H732.847V161H668.207V165ZM734.847 163V146.104H730.847V163H734.847ZM732.847 144.104H688.303V148.104H732.847V144.104ZM690.303 146.104V71.608H686.303V146.104H690.303ZM688.303 69.608H668.207V73.608H688.303V69.608ZM753.512 127.416H755.512V126.861L755.226 126.386L753.512 127.416ZM753.512 163H751.512V165H753.512V163ZM773.608 163V165H775.608V163H773.608ZM773.608 127.928L771.895 126.896L771.608 127.372V127.928H773.608ZM807.528 71.608L809.241 72.6398L811.067 69.608H807.528V71.608ZM785.128 71.608V69.608H783.984L783.404 70.5934L785.128 71.608ZM763.88 107.704L762.159 108.723L763.885 111.638L765.604 108.719L763.88 107.704ZM742.504 71.608L744.225 70.5889L743.644 69.608H742.504V71.608ZM719.976 71.608V69.608H716.441L718.262 72.6381L719.976 71.608ZM751.512 127.416V163H755.512V127.416H751.512ZM753.512 165H773.608V161H753.512V165ZM775.608 163V127.928H771.608V163H775.608ZM775.321 128.96L809.241 72.6398L805.815 70.5761L771.895 126.896L775.321 128.96ZM807.528 69.608H785.128V73.608H807.528V69.608ZM783.404 70.5934L762.156 106.689L765.604 108.719L786.852 72.6226L783.404 70.5934ZM765.601 106.685L744.225 70.5889L740.783 72.6271L762.159 108.723L765.601 106.685ZM742.504 69.608H719.976V73.608H742.504V69.608ZM718.262 72.6381L751.798 128.446L755.226 126.386L721.69 70.5778L718.262 72.6381Z" fill="#343434"/>
</svg>
