<svg width="103" height="61" viewBox="0 0 103 61" fill="none" xmlns="http://www.w3.org/2000/svg">
<path fill-rule="evenodd" clip-rule="evenodd" d="M27.6077 0.00732422C23.6539 3.96107 23.6539 10.3714 27.6077 14.3251L43.9536 30.671L43.9535 30.6712L51.1124 37.8301L51.1125 37.8299L51.1126 37.8301L58.2715 30.6712L58.2714 30.671L74.6174 14.3251C78.5711 10.3714 78.5711 3.96107 74.6173 0.00732422L51.1125 23.5121L27.6077 0.00732422ZM14.3177 9.80049C10.374 5.83673 3.96376 5.82048 0 9.76419L43.8326 53.8197L43.8293 53.823L50.97 61L50.9733 60.9967L50.9767 61L58.1537 53.8593L58.1504 53.856L102.206 10.0234C98.2621 6.05959 91.8518 6.04334 87.8881 9.98705L51.0096 46.6789L14.3177 9.80049ZM11.3595 33.3948V43.1141C11.3595 47.5872 14.9857 51.2134 19.4589 51.2134H29.0769V51.1122L11.3595 33.3948ZM91.5293 43.1141V33.3948L73.8119 51.1122V51.2134H83.4299C87.9031 51.2134 91.5293 47.5872 91.5293 43.1141Z" fill="#343434"/>
</svg>
