<svg width="1000" height="229" viewBox="0 0 1000 229" fill="none" xmlns="http://www.w3.org/2000/svg">
<path d="M153.457 71.608V163H172.273V101.816H172.529L210.545 163H230.641V71.608H211.825V132.92H211.569L173.425 71.608H153.457ZM271.372 127.672L283.276 94.136H283.532L295.052 127.672H271.372ZM273.292 71.608L238.732 163H258.956L266.124 142.648H300.3L307.212 163H328.076L293.9 71.608H273.292ZM344.431 88.504V163H364.527V88.504H391.919V71.608H317.039V88.504H344.431ZM480.025 128.44V71.608H459.929V128.44C459.929 135.267 458.564 140.301 455.833 143.544C453.102 146.701 448.153 148.28 440.985 148.28C436.889 148.28 433.604 147.725 431.129 146.616C428.74 145.421 426.862 143.928 425.497 142.136C424.132 140.259 423.236 138.125 422.809 135.736C422.382 133.347 422.169 130.915 422.169 128.44V71.608H402.073V128.44C402.073 140.899 405.444 150.115 412.185 156.088C419.012 162.061 428.612 165.048 440.985 165.048C453.188 165.048 462.745 162.061 469.657 156.088C476.569 150.029 480.025 140.813 480.025 128.44ZM517.428 112.952V87.224H539.444C544.052 87.224 547.508 88.248 549.812 90.296C552.116 92.2587 553.268 95.4587 553.268 99.896C553.268 104.504 552.116 107.832 549.812 109.88C547.508 111.928 544.052 112.952 539.444 112.952H517.428ZM497.332 71.608V163H517.428V127.288H537.524C542.559 127.288 546.185 128.397 548.404 130.616C550.623 132.835 552.073 136.333 552.756 141.112C553.268 144.781 553.652 148.621 553.908 152.632C554.164 156.643 554.847 160.099 555.956 163H576.052C575.113 161.72 574.388 160.184 573.876 158.392C573.449 156.515 573.108 154.552 572.852 152.504C572.681 150.456 572.553 148.451 572.468 146.488C572.383 144.525 572.297 142.819 572.212 141.368C572.041 139.064 571.7 136.76 571.188 134.456C570.761 132.152 570.036 130.061 569.012 128.184C567.988 126.221 566.665 124.557 565.044 123.192C563.423 121.741 561.375 120.675 558.9 119.992V119.736C564.02 117.688 567.689 114.701 569.908 110.776C572.212 106.851 573.364 102.2 573.364 96.824C573.364 93.3253 572.724 90.0827 571.444 87.096C570.249 84.024 568.457 81.336 566.068 79.032C563.764 76.728 560.948 74.936 557.62 73.656C554.377 72.2907 550.708 71.608 546.612 71.608H497.332ZM612.747 127.672L624.651 94.136H624.907L636.427 127.672H612.747ZM614.667 71.608L580.107 163H600.331L607.499 142.648H641.675L648.587 163H669.451L635.275 71.608H614.667ZM677.332 71.608V163H741.972V146.104H697.428V71.608H677.332ZM753.207 71.608V163H817.847V146.104H773.303V71.608H753.207ZM838.512 127.416V163H858.608V127.928L892.528 71.608H870.128L848.88 107.704L827.504 71.608H804.976L838.512 127.416Z" fill="#343434"/>
</svg>
