<svg width="297" height="58" viewBox="0 0 297 58" fill="none" xmlns="http://www.w3.org/2000/svg">
<path d="M22.856 36.848L22.0184 36.3017L22.0184 36.3017L22.856 36.848ZM20.424 39.216L20.9328 40.077L20.9439 40.0702L20.424 39.216ZM13.512 39.216L12.9921 40.0702L13.0059 40.0786L13.0199 40.0866L13.512 39.216ZM13.512 19.76L14.0041 20.6306L14.0181 20.6226L14.0319 20.6142L13.512 19.76ZM20.424 19.76L19.8871 20.6037L19.9092 20.6177L19.9319 20.6306L20.424 19.76ZM22.856 22.064L22.0184 22.6103L22.0184 22.6103L22.856 22.064ZM0.456 0.303997V-0.696003H-0.544V0.303997H0.456ZM0.456 46H-0.544V47H0.456V46ZM9.096 46V47H10.096V46H9.096ZM9.096 41.776V40.776H8.096V41.776H9.096ZM9.224 41.776L10.1058 41.3043L9.82318 40.776H9.224V41.776ZM13.576 45.68L13.2046 46.6085L13.2046 46.6085L13.576 45.68ZM25.032 45.808L25.4201 46.7296L25.4201 46.7296L25.032 45.808ZM29.384 42.672L28.6552 41.9873L28.6496 41.9933L28.6441 41.9993L29.384 42.672ZM32.584 37.296L33.5211 37.6451L33.5233 37.6392L32.584 37.296ZM32.584 21.616L31.6447 21.9592L31.6469 21.9651L32.584 21.616ZM29.384 16.176L28.6441 16.8487L28.6496 16.8547L28.6552 16.8607L29.384 16.176ZM25.032 13.04L25.4201 12.1184L25.4201 12.1184L25.032 13.04ZM14.152 13.232L14.5307 14.1576L14.541 14.1532L14.152 13.232ZM9.672 16.944V17.944H10.2147L10.5104 17.489L9.672 16.944ZM9.544 16.944H8.544V17.944H9.544V16.944ZM9.544 0.303997H10.544V-0.696003H9.544V0.303997ZM23.712 29.488C23.712 30.7798 23.5708 32.0261 23.2902 33.2288L25.2378 33.6832C25.5546 32.3259 25.712 30.9269 25.712 29.488H23.712ZM23.2902 33.2288C23.0148 34.409 22.5875 35.4291 22.0184 36.3017L23.6936 37.3943C24.4045 36.3042 24.9159 35.063 25.2378 33.6832L23.2902 33.2288ZM22.0184 36.3017C21.4583 37.1606 20.7553 37.8437 19.9041 38.3618L20.9439 40.0702C22.0554 39.3937 22.9737 38.4981 23.6936 37.3943L22.0184 36.3017ZM19.9153 38.3551C19.1651 38.7984 18.199 39.048 16.968 39.048V41.048C18.4676 41.048 19.8056 40.743 20.9327 40.0769L19.9153 38.3551ZM16.968 39.048C15.7877 39.048 14.8111 38.8016 14.0041 38.3454L13.0199 40.0866C14.1756 40.7397 15.503 41.048 16.968 41.048V39.048ZM14.0319 38.3618C13.1807 37.8437 12.4777 37.1606 11.9176 36.3017L10.2424 37.3943C10.9623 38.4981 11.8806 39.3937 12.9921 40.0702L14.0319 38.3618ZM11.9176 36.3017C11.3485 35.4291 10.9212 34.409 10.6458 33.2288L8.69816 33.6832C9.0201 35.063 9.53147 36.3042 10.2424 37.3943L11.9176 36.3017ZM10.6458 33.2288C10.3652 32.0261 10.224 30.7798 10.224 29.488H8.224C8.224 30.9269 8.38145 32.3259 8.69816 33.6832L10.6458 33.2288ZM10.224 29.488C10.224 28.1511 10.3657 26.8837 10.6458 25.6832L8.69816 25.2288C8.38092 26.5883 8.224 28.0089 8.224 29.488H10.224ZM10.6458 25.6832C10.9212 24.503 11.3485 23.4829 11.9176 22.6103L10.2424 21.5177C9.53147 22.6078 9.0201 23.849 8.69816 25.2288L10.6458 25.6832ZM11.9176 22.6103C12.4736 21.7577 13.1678 21.1032 14.0041 20.6306L13.0199 18.8894C11.8935 19.5261 10.9664 20.4076 10.2424 21.5177L11.9176 22.6103ZM14.0319 20.6142C14.8341 20.1259 15.8005 19.864 16.968 19.864V17.864C15.4902 17.864 14.1526 18.1994 12.9921 18.9058L14.0319 20.6142ZM16.968 19.864C18.1865 19.864 19.1419 20.1294 19.8871 20.6037L20.9609 18.9163C19.8288 18.1959 18.4802 17.864 16.968 17.864V19.864ZM19.9319 20.6306C20.7682 21.1032 21.4624 21.7577 22.0184 22.6103L23.6936 21.5177C22.9696 20.4076 22.0425 19.5261 20.9161 18.8894L19.9319 20.6306ZM22.0184 22.6103C22.5875 23.4829 23.0148 24.503 23.2902 25.6832L25.2378 25.2288C24.9159 23.849 24.4045 22.6078 23.6936 21.5177L22.0184 22.6103ZM23.2902 25.6832C23.5703 26.8837 23.712 28.1511 23.712 29.488H25.712C25.712 28.0089 25.5551 26.5883 25.2378 25.2288L23.2902 25.6832ZM-0.544 0.303997V46H1.456V0.303997H-0.544ZM0.456 47H9.096V45H0.456V47ZM10.096 46V41.776H8.096V46H10.096ZM9.096 42.776H9.224V40.776H9.096V42.776ZM8.34222 42.2477C9.43385 44.2885 11.0645 45.7524 13.2046 46.6085L13.9474 44.7515C12.2475 44.0716 10.9768 42.9328 10.1058 41.3043L8.34222 42.2477ZM13.2046 46.6085C15.2616 47.4313 17.5668 47.832 20.104 47.832V45.832C17.7772 45.832 15.7304 45.4647 13.9474 44.7515L13.2046 46.6085ZM20.104 47.832C21.9088 47.832 23.683 47.461 25.4201 46.7296L24.6439 44.8864C23.1383 45.5203 21.6272 45.832 20.104 45.832V47.832ZM25.4201 46.7296C27.1861 45.9861 28.7542 44.8513 30.1239 43.3447L28.6441 41.9993C27.4538 43.3087 26.1206 44.2646 24.6439 44.8864L25.4201 46.7296ZM30.1129 43.3567C31.543 41.8343 32.6732 39.9211 33.5211 37.6451L31.6469 36.9469C30.8735 39.0229 29.8704 40.6937 28.6552 41.9873L30.1129 43.3567ZM33.5233 37.6392C34.3837 35.2844 34.8 32.5389 34.8 29.424H32.8C32.8 32.3677 32.4057 34.8702 31.6447 36.9528L33.5233 37.6392ZM34.8 29.424C34.8 26.3099 34.3839 23.5828 33.5211 21.2669L31.6469 21.9651C32.4055 24.0012 32.8 26.4795 32.8 29.424H34.8ZM33.5233 21.2728C32.6763 18.9548 31.5462 17.0171 30.1129 15.4913L28.6552 16.8607C29.8672 18.1509 30.8704 19.8399 31.6447 21.9592L33.5233 21.2728ZM30.1239 15.5033C28.7542 13.9967 27.1861 12.8619 25.4201 12.1184L24.6439 13.9616C26.1206 14.5834 27.4538 15.5393 28.6441 16.8487L30.1239 15.5033ZM25.4201 12.1184C23.683 11.387 21.9088 11.016 20.104 11.016V13.016C21.6272 13.016 23.1383 13.3277 24.6439 13.9616L25.4201 12.1184ZM20.104 11.016C17.92 11.016 15.8039 11.4491 13.763 12.3107L14.541 14.1532C16.3401 13.3936 18.192 13.016 20.104 13.016V11.016ZM13.7734 12.3065C11.7069 13.1518 10.0534 14.5223 8.83356 16.399L10.5104 17.489C11.5092 15.9524 12.8424 14.8482 14.5306 14.1575L13.7734 12.3065ZM9.672 15.944H9.544V17.944H9.672V15.944ZM10.544 16.944V0.303997H8.544V16.944H10.544ZM9.544 -0.696003H0.456V1.304H9.544V-0.696003ZM55.901 50.096L54.9637 49.7475L54.9616 49.7531L55.901 50.096ZM69.725 12.912L70.6623 13.2605L71.1636 11.912H69.725V12.912ZM60.317 12.912V11.912H59.5865L59.3644 12.6079L60.317 12.912ZM53.085 35.568V36.568H53.8155L54.0376 35.8721L53.085 35.568ZM52.957 35.568L52.0075 35.8818L52.2343 36.568H52.957V35.568ZM45.469 12.912L46.4185 12.5982L46.1917 11.912H45.469V12.912ZM35.805 12.912V11.912H34.3644L34.8681 13.2616L35.805 12.912ZM47.389 43.952L46.4521 44.3016L46.4562 44.3126L46.4605 44.3234L47.389 43.952ZM46.877 48.688L46.0719 48.0948L46.0616 48.1089L46.0517 48.1233L46.877 48.688ZM44.253 50.096L44.3006 51.0949L44.3301 51.0935L44.3595 51.0903L44.253 50.096ZM41.565 50.032L41.6598 49.0365L41.6598 49.0365L41.565 50.032ZM38.941 49.776L39.0405 48.781L37.941 48.671V49.776H38.941ZM38.941 57.264H37.941V58.1772L38.8505 58.2599L38.941 57.264ZM41.693 57.456L41.7835 56.4601L41.7621 56.4582L41.7406 56.4571L41.693 57.456ZM51.805 55.856L52.355 56.6912L52.355 56.6912L51.805 55.856ZM56.8383 50.4445L70.6623 13.2605L68.7877 12.5635L54.9637 49.7475L56.8383 50.4445ZM69.725 11.912H60.317V13.912H69.725V11.912ZM59.3644 12.6079L52.1324 35.2639L54.0376 35.8721L61.2696 13.2161L59.3644 12.6079ZM53.085 34.568H52.957V36.568H53.085V34.568ZM53.9065 35.2542L46.4185 12.5982L44.5195 13.2258L52.0075 35.8818L53.9065 35.2542ZM45.469 11.912H35.805V13.912H45.469V11.912ZM34.8681 13.2616L46.4521 44.3016L48.3259 43.6024L36.7419 12.5624L34.8681 13.2616ZM46.4605 44.3234C46.6668 44.8392 46.773 45.3951 46.773 46H48.773C48.773 45.1542 48.6232 44.3448 48.3175 43.5806L46.4605 44.3234ZM46.773 46C46.773 46.762 46.5462 47.4512 46.0719 48.0948L47.6821 49.2812C48.4025 48.3035 48.773 47.2007 48.773 46H46.773ZM46.0517 48.1233C45.6986 48.6393 45.1211 48.9973 44.1465 49.1017L44.3595 51.0903C45.7742 50.9387 46.946 50.358 47.7023 49.2527L46.0517 48.1233ZM44.2054 49.0971C43.3571 49.1375 42.5087 49.1173 41.6598 49.0365L41.4702 51.0275C42.4133 51.1173 43.3569 51.1398 44.3006 51.0949L44.2054 49.0971ZM41.6598 49.0365C40.7653 48.9513 39.8922 48.8661 39.0405 48.781L38.8415 50.771C39.6965 50.8565 40.5727 50.942 41.4702 51.0275L41.6598 49.0365ZM37.941 49.776V57.264H39.941V49.776H37.941ZM38.8505 58.2599C39.8027 58.3465 40.7344 58.4115 41.6454 58.4549L41.7406 56.4571C40.8596 56.4152 39.9566 56.3522 39.0315 56.2681L38.8505 58.2599ZM41.6025 58.4519C42.5711 58.54 43.54 58.584 44.509 58.584V56.584C43.6007 56.584 42.6922 56.5427 41.7835 56.4601L41.6025 58.4519ZM44.509 58.584C47.7296 58.584 50.3809 57.9912 52.355 56.6912L51.255 55.0208C49.7304 56.0248 47.5177 56.584 44.509 56.584V58.584ZM52.355 56.6912C54.3388 55.3847 55.8119 53.256 56.8404 50.4389L54.9616 49.7531C54.0274 52.312 52.7698 54.0233 51.255 55.0208L52.355 56.6912ZM90.581 12.912V11.912H89.581V12.912H90.581ZM90.581 46H89.581V47H90.581V46ZM99.669 46V47H100.669V46H99.669ZM101.333 21.424L102.127 22.0315L102.136 22.0203L101.333 21.424ZM111.253 21.232L110.405 21.762L110.409 21.7681L110.413 21.7741L111.253 21.232ZM112.533 46H111.533V47H112.533V46ZM121.621 46V47H122.621V46H121.621ZM121.045 20.08L120.064 20.2761L120.067 20.2905L120.071 20.3049L121.045 20.08ZM119.189 15.792L118.389 16.392L118.394 16.399L118.4 16.4059L119.189 15.792ZM115.477 13.04L115.071 13.9538L115.086 13.9605L115.101 13.9667L115.477 13.04ZM103.893 13.36L104.315 14.2667L104.323 14.2627L104.332 14.2586L103.893 13.36ZM99.413 17.52V18.52H99.9792L100.27 18.0345L99.413 17.52ZM99.221 17.52H98.221V18.52H99.221V17.52ZM99.221 12.912H100.221V11.912H99.221V12.912ZM89.581 12.912V46H91.581V12.912H89.581ZM90.581 47H99.669V45H90.581V47ZM100.669 46V28.656H98.669V46H100.669ZM100.669 28.656C100.669 25.3431 101.224 23.2124 102.127 22.0315L100.539 20.8165C99.223 22.537 98.669 25.2276 98.669 28.656H100.669ZM102.136 22.0203C102.998 20.8601 104.437 20.184 106.709 20.184V18.184C104.032 18.184 101.887 19.0012 100.53 20.8277L102.136 22.0203ZM106.709 20.184C108.675 20.184 109.796 20.7878 110.405 21.762L112.101 20.702C111.003 18.9455 109.095 18.184 106.709 18.184V20.184ZM110.413 21.7741C111.11 22.8554 111.533 24.6493 111.533 27.312H113.533C113.533 24.5134 113.102 22.2539 112.093 20.6899L110.413 21.7741ZM111.533 27.312V46H113.533V27.312H111.533ZM112.533 47H121.621V45H112.533V47ZM122.621 46V25.648H120.621V46H122.621ZM122.621 25.648C122.621 23.5388 122.423 21.6058 122.019 19.8551L120.071 20.3049C120.435 21.8822 120.621 23.6612 120.621 25.648H122.621ZM122.026 19.8839C121.66 18.0541 120.986 16.474 119.978 15.1781L118.4 16.4059C119.184 17.414 119.748 18.6926 120.064 20.2761L122.026 19.8839ZM119.989 15.192C118.969 13.8323 117.576 12.8118 115.853 12.1133L115.101 13.9667C116.536 14.5482 117.617 15.3624 118.389 16.392L119.989 15.192ZM115.883 12.1262C114.175 11.3672 112.039 11.016 109.525 11.016V13.016C111.875 13.016 113.707 13.3475 115.071 13.9538L115.883 12.1262ZM109.525 11.016C107.443 11.016 105.417 11.503 103.454 12.4614L104.332 14.2586C106.039 13.425 107.767 13.016 109.525 13.016V11.016ZM103.471 12.4533C101.436 13.3998 99.7989 14.9332 98.5555 17.0055L100.27 18.0345C101.331 16.2668 102.68 15.0269 104.315 14.2667L103.471 12.4533ZM99.413 16.52H99.221V18.52H99.413V16.52ZM100.221 17.52V12.912H98.221V17.52H100.221ZM99.221 11.912H90.581V13.912H99.221V11.912ZM128.135 23.088L127.136 23.0281L127.073 24.088H128.135V23.088ZM129.735 17.776L130.567 18.3307L130.567 18.3307L129.735 17.776ZM133.319 14.384L133.826 15.2459L133.826 15.2459L133.319 14.384ZM138.183 12.592L138.37 13.5743L138.379 13.5726L138.387 13.5708L138.183 12.592ZM148.743 12.4L148.594 13.3889L148.606 13.3908L148.618 13.3923L148.743 12.4ZM153.415 13.744L152.978 14.6438L152.978 14.6438L153.415 13.744ZM156.871 16.624L156.061 17.2105L156.065 17.2173L156.071 17.224L156.871 16.624ZM158.471 42.928L157.478 43.052L157.478 43.052L158.471 42.928ZM159.367 46V47H161.171L160.214 45.47L159.367 46ZM150.151 46L149.202 46.3162L149.43 47H150.151V46ZM149.703 44.464L148.714 44.6161L148.721 44.6617L148.732 44.7065L149.703 44.464ZM149.511 42.8L150.508 42.7233L150.338 40.5134L148.793 42.1032L149.511 42.8ZM144.391 45.936L144.682 46.8927L144.391 45.936ZM133.959 46.256L134.229 45.2933L134.229 45.2933L133.959 46.256ZM130.375 44.464L129.754 45.248L129.754 45.248L130.375 44.464ZM127.943 41.392L127.03 41.8011L127.036 41.814L127.042 41.8267L127.943 41.392ZM128.071 32.368L127.195 31.8849L127.189 31.8958L128.071 32.368ZM130.631 29.424L130.068 28.5971L130.06 28.6024L130.052 28.608L130.631 29.424ZM134.215 27.824L134.464 28.7923L134.475 28.7896L134.485 28.7867L134.215 27.824ZM138.311 26.928L138.465 27.916L138.465 27.916L138.311 26.928ZM142.343 26.416L142.246 25.4206L142.246 25.4206L142.343 26.416ZM145.863 25.84L145.62 24.8699L145.62 24.8699L145.863 25.84ZM148.295 24.752L148.912 25.5383L148.929 25.5251L148.945 25.5113L148.295 24.752ZM149.127 22.576H148.127V22.5987L148.128 22.6214L149.127 22.576ZM148.615 20.272L147.72 20.7192L147.74 20.7586L147.763 20.7961L148.615 20.272ZM147.335 18.928L146.78 19.76L146.819 19.7862L146.86 19.8085L147.335 18.928ZM145.479 18.288L145.294 19.2709L145.328 19.2772L145.362 19.2811L145.479 18.288ZM137.223 23.088V24.088H138.132L138.218 23.1828L137.223 23.088ZM149.127 29.808H150.127V27.5812L148.462 29.0606L149.127 29.808ZM147.655 30.64L147.949 31.5958L147.97 31.5892L147.991 31.5817L147.655 30.64ZM145.799 31.088L145.614 30.1051L145.602 30.1074L145.799 31.088ZM143.751 31.408L143.634 30.4148L143.634 30.4148L143.751 31.408ZM141.575 31.728L141.401 30.7432L141.39 30.7451L141.575 31.728ZM139.527 32.24L139.228 31.2855L139.219 31.2883L139.21 31.2913L139.527 32.24ZM137.799 33.136L138.387 33.9447L138.393 33.9404L138.399 33.936L137.799 33.136ZM136.647 38.64L135.766 39.1141L135.766 39.1141L136.647 38.64ZM137.863 39.984L137.308 40.816L137.333 40.8327L137.359 40.8478L137.863 39.984ZM139.655 40.624L139.839 39.6411L139.839 39.6411L139.655 40.624ZM145.927 39.92L145.407 39.0658L145.407 39.0658L145.927 39.92ZM148.103 37.808L148.968 38.309L148.973 38.2995L148.979 38.2899L148.103 37.808ZM148.935 35.248L147.946 35.0997L147.942 35.124L147.939 35.1485L148.935 35.248ZM129.133 23.1479C129.253 21.1455 129.749 19.5574 130.567 18.3307L128.902 17.2213C127.843 18.8106 127.272 20.7638 127.136 23.0281L129.133 23.1479ZM130.567 18.3307C131.422 17.0476 132.506 16.0223 133.826 15.2459L132.811 13.5221C131.23 14.4524 129.924 15.6884 128.902 17.2213L130.567 18.3307ZM133.826 15.2459C135.169 14.4555 136.681 13.896 138.37 13.5743L137.995 11.6097C136.1 11.9707 134.369 12.6058 132.811 13.5221L133.826 15.2459ZM138.387 13.5708C140.156 13.2006 141.922 13.016 143.687 13.016V11.016C141.782 11.016 139.878 11.2154 137.978 11.6132L138.387 13.5708ZM143.687 13.016C145.299 13.016 146.935 13.14 148.594 13.3889L148.891 11.4111C147.137 11.148 145.402 11.016 143.687 11.016V13.016ZM148.618 13.3923C150.227 13.5934 151.678 14.0133 152.978 14.6438L153.851 12.8442C152.335 12.1094 150.671 11.6333 148.867 11.4077L148.618 13.3923ZM152.978 14.6438C154.241 15.2563 155.264 16.1102 156.061 17.2105L157.68 16.0375C156.685 14.6631 155.404 13.597 153.851 12.8442L152.978 14.6438ZM156.071 17.224C156.799 18.1948 157.215 19.5616 157.215 21.424H159.215C159.215 19.2758 158.734 17.4425 157.671 16.024L156.071 17.224ZM157.215 21.424V38.64H159.215V21.424H157.215ZM157.215 38.64C157.215 40.1713 157.302 41.6422 157.478 43.052L159.463 42.804C159.298 41.4831 159.215 40.0953 159.215 38.64H157.215ZM157.478 43.052C157.656 44.4732 157.979 45.6661 158.519 46.53L160.214 45.47C159.901 44.9686 159.626 44.1134 159.463 42.804L157.478 43.052ZM159.367 45H150.151V47H159.367V45ZM151.099 45.6838C150.936 45.1955 150.794 44.7081 150.673 44.2215L148.732 44.7065C148.867 45.2439 149.023 45.7805 149.202 46.3162L151.099 45.6838ZM150.691 44.3119C150.609 43.7821 150.548 43.2525 150.508 42.7233L148.513 42.8767C148.558 43.4568 148.625 44.0366 148.714 44.6161L150.691 44.3119ZM148.793 42.1032C147.459 43.4772 145.898 44.432 144.099 44.9793L144.682 46.8927C146.809 46.2454 148.661 45.1095 150.228 43.4968L148.793 42.1032ZM144.099 44.9793C142.231 45.548 140.324 45.832 138.375 45.832V47.832C140.521 47.832 142.625 47.5187 144.682 46.8927L144.099 44.9793ZM138.375 45.832C136.877 45.832 135.497 45.6499 134.229 45.2933L133.688 47.2187C135.151 47.6301 136.715 47.832 138.375 47.832V45.832ZM134.229 45.2933C132.98 44.9421 131.907 44.4017 130.995 43.68L129.754 45.248C130.89 46.1476 132.206 46.8019 133.688 47.2187L134.229 45.2933ZM130.995 43.68C130.096 42.968 129.378 42.0658 128.843 40.9573L127.042 41.8267C127.701 43.1929 128.605 44.3387 129.754 45.248L130.995 43.68ZM128.855 40.9829C128.371 39.903 128.111 38.577 128.111 36.976H126.111C126.111 38.7884 126.405 40.4063 127.03 41.8011L128.855 40.9829ZM128.111 36.976C128.111 35.2033 128.414 33.8445 128.952 32.8402L127.189 31.8958C126.447 33.2808 126.111 34.9941 126.111 36.976H128.111ZM128.946 32.8511C129.565 31.729 130.322 30.8678 131.209 30.24L130.052 28.608C128.891 29.4309 127.941 30.5324 127.195 31.8849L128.946 32.8511ZM131.193 30.2509C132.159 29.5941 133.247 29.1065 134.464 28.7923L133.965 26.8557C132.537 27.2241 131.236 27.8032 130.068 28.5971L131.193 30.2509ZM134.485 28.7867C135.813 28.4131 137.14 28.1231 138.465 27.916L138.156 25.94C136.751 26.1596 135.346 26.4669 133.944 26.8613L134.485 28.7867ZM138.465 27.916C139.812 27.7056 141.136 27.5374 142.439 27.4113L142.246 25.4206C140.903 25.5506 139.54 25.7238 138.156 25.94L138.465 27.916ZM142.439 27.4113C143.799 27.2797 145.023 27.0808 146.105 26.8101L145.62 24.8699C144.654 25.1112 143.532 25.2963 142.246 25.4206L142.439 27.4113ZM146.105 26.8101C147.216 26.5324 148.17 26.1216 148.912 25.5383L147.677 23.9657C147.224 24.3211 146.557 24.6356 145.62 24.8699L146.105 26.8101ZM148.945 25.5113C149.823 24.7591 150.179 23.71 150.125 22.5306L148.128 22.6214C148.159 23.3193 147.961 23.7209 147.644 23.9927L148.945 25.5113ZM150.127 22.576C150.127 21.4968 149.942 20.5208 149.466 19.7479L147.763 20.7961C147.97 21.1325 148.127 21.6926 148.127 22.576H150.127ZM149.509 19.8248C149.124 19.0549 148.556 18.4499 147.809 18.0475L146.86 19.8085C147.222 20.0034 147.508 20.2944 147.72 20.7192L149.509 19.8248ZM147.889 18.0959C147.224 17.6522 146.448 17.3952 145.595 17.2948L145.362 19.2811C145.959 19.3515 146.421 19.5211 146.78 19.76L147.889 18.0959ZM145.663 17.3051C144.91 17.164 144.101 17.096 143.239 17.096V19.096C143.997 19.096 144.681 19.156 145.294 19.2709L145.663 17.3051ZM143.239 17.096C141.315 17.096 139.669 17.5073 138.415 18.448L139.615 20.048C140.408 19.4527 141.578 19.096 143.239 19.096V17.096ZM138.415 18.448C137.086 19.4445 136.413 21.0381 136.227 22.9932L138.218 23.1828C138.373 21.5539 138.895 20.5875 139.615 20.048L138.415 18.448ZM137.223 22.088H128.135V24.088H137.223V22.088ZM148.462 29.0606C148.194 29.2993 147.822 29.5183 147.318 29.6983L147.991 31.5817C148.682 31.3351 149.291 30.9994 149.791 30.5554L148.462 29.0606ZM147.36 29.6842C146.848 29.8419 146.267 29.9828 145.614 30.1051L145.983 32.0709C146.696 31.9372 147.352 31.7794 147.949 31.5958L147.36 29.6842ZM145.602 30.1074C144.991 30.2296 144.335 30.3323 143.634 30.4148L143.867 32.4011C144.616 32.3131 145.326 32.2024 145.995 32.0686L145.602 30.1074ZM143.634 30.4148C142.889 30.5024 142.145 30.6119 141.401 30.7432L141.748 32.7128C142.455 32.5881 143.161 32.4842 143.867 32.4011L143.634 30.4148ZM141.39 30.7451C140.668 30.8806 139.947 31.0608 139.228 31.2855L139.825 33.1945C140.471 32.9925 141.116 32.8314 141.759 32.7109L141.39 30.7451ZM139.21 31.2913C138.474 31.5368 137.801 31.8841 137.199 32.336L138.399 33.936C138.82 33.6199 139.299 33.3699 139.843 33.1887L139.21 31.2913ZM137.21 32.3273C136.61 32.7642 136.13 33.3307 135.766 34.0059L137.527 34.9541C137.761 34.52 138.049 34.1905 138.387 33.9447L137.21 32.3273ZM135.766 34.0059C135.366 34.7487 135.199 35.6293 135.199 36.592H137.199C137.199 35.8481 137.33 35.3206 137.527 34.9541L135.766 34.0059ZM135.199 36.592C135.199 37.522 135.37 38.3779 135.766 39.1141L137.527 38.1659C137.326 37.7928 137.199 37.2834 137.199 36.592H135.199ZM135.766 39.1141C136.14 39.8094 136.656 40.3817 137.308 40.816L138.417 39.1519C138.045 38.9037 137.75 38.5799 137.527 38.1659L135.766 39.1141ZM137.359 40.8478C137.985 41.2131 138.694 41.4613 139.47 41.6069L139.839 39.6411C139.25 39.5307 138.764 39.3522 138.366 39.1202L137.359 40.8478ZM139.47 41.6069C140.216 41.7468 140.982 41.816 141.767 41.816V39.816C141.1 39.816 140.458 39.7572 139.839 39.6411L139.47 41.6069ZM141.767 41.816C143.648 41.816 145.244 41.5062 146.446 40.7742L145.407 39.0658C144.646 39.5285 143.469 39.816 141.767 39.816V41.816ZM146.446 40.7742C147.539 40.1094 148.398 39.2938 148.968 38.309L147.237 37.307C146.869 37.9436 146.277 38.536 145.407 39.0658L146.446 40.7742ZM148.979 38.2899C149.504 37.3344 149.829 36.352 149.93 35.3475L147.939 35.1485C147.869 35.8506 147.639 36.5749 147.226 37.3261L148.979 38.2899ZM149.923 35.3963C150.055 34.5223 150.127 33.7839 150.127 33.2H148.127C148.127 33.6401 148.07 34.2671 147.946 35.0997L149.923 35.3963ZM150.127 33.2V29.808H148.127V33.2H150.127ZM176.789 12.912H175.789V13.912H176.789V12.912ZM176.789 2.992H177.789V1.992H176.789V2.992ZM167.701 2.992V1.992H166.701V2.992H167.701ZM167.701 12.912V13.912H168.701V12.912H167.701ZM162.197 12.912V11.912H161.197V12.912H162.197ZM162.197 18.992H161.197V19.992H162.197V18.992ZM167.701 18.992H168.701V17.992H167.701V18.992ZM168.533 42.544L167.653 43.0203L167.653 43.0203L168.533 42.544ZM170.773 44.912L170.264 45.7729L170.272 45.7778L170.28 45.7826L170.773 44.912ZM174.101 46L174.265 45.0136L174.251 45.0113L174.237 45.0094L174.101 46ZM180.885 46.256L180.839 45.257L180.839 45.257L180.885 46.256ZM183.445 46L183.609 46.9864L184.445 46.8471V46H183.445ZM183.445 38.96H184.445V37.7402L183.248 37.9794L183.445 38.96ZM182.101 39.152L182.01 38.1561L182.01 38.1561L182.101 39.152ZM177.557 38.448L176.849 39.1551L176.849 39.1551L177.557 38.448ZM176.789 18.992V17.992H175.789V18.992H176.789ZM183.445 18.992V19.992H184.445V18.992H183.445ZM183.445 12.912H184.445V11.912H183.445V12.912ZM177.789 12.912V2.992H175.789V12.912H177.789ZM176.789 1.992H167.701V3.992H176.789V1.992ZM166.701 2.992V12.912H168.701V2.992H166.701ZM167.701 11.912H162.197V13.912H167.701V11.912ZM161.197 12.912V18.992H163.197V12.912H161.197ZM162.197 19.992H167.701V17.992H162.197V19.992ZM166.701 18.992V38.512H168.701V18.992H166.701ZM166.701 38.512C166.701 40.2754 166.993 41.8007 167.653 43.0203L169.412 42.0677C168.963 41.2393 168.701 40.0766 168.701 38.512H166.701ZM167.653 43.0203C168.288 44.1924 169.158 45.1197 170.264 45.7729L171.281 44.0511C170.509 43.595 169.886 42.9436 169.412 42.0677L167.653 43.0203ZM170.28 45.7826C171.383 46.4057 172.615 46.8046 173.964 46.9906L174.237 45.0094C173.111 44.8541 172.125 44.5277 171.265 44.0414L170.28 45.7826ZM173.936 46.9864C175.275 47.2095 176.674 47.32 178.133 47.32V45.32C176.775 45.32 175.486 45.2172 174.265 45.0136L173.936 46.9864ZM178.133 47.32C179.044 47.32 179.977 47.2983 180.93 47.255L180.839 45.257C179.915 45.299 179.013 45.32 178.133 45.32V47.32ZM180.93 47.255C181.901 47.2108 182.794 47.1221 183.609 46.9864L183.28 45.0136C182.559 45.1339 181.746 45.2158 180.839 45.257L180.93 47.255ZM184.445 46V38.96H182.445V46H184.445ZM183.248 37.9794C182.859 38.0572 182.447 38.1164 182.01 38.1561L182.191 40.1479C182.693 40.1023 183.176 40.0334 183.641 39.9406L183.248 37.9794ZM182.01 38.1561C181.573 38.1958 181.113 38.216 180.628 38.216V40.216C181.168 40.216 181.689 40.1935 182.191 40.1479L182.01 38.1561ZM180.628 38.216C179.909 38.216 179.357 38.1553 178.951 38.0539C178.539 37.9509 178.346 37.823 178.264 37.7409L176.849 39.1551C177.279 39.585 177.854 39.8411 178.466 39.9941C179.084 40.1487 179.812 40.216 180.628 40.216V38.216ZM178.264 37.7409C178.181 37.6588 178.054 37.4652 177.951 37.0535C177.849 36.6478 177.789 36.0957 177.789 35.376H175.789C175.789 36.1923 175.856 36.9202 176.01 37.5385C176.163 38.1508 176.42 38.7252 176.849 39.1551L178.264 37.7409ZM177.789 35.376V18.992H175.789V35.376H177.789ZM176.789 19.992H183.445V17.992H176.789V19.992ZM184.445 18.992V12.912H182.445V18.992H184.445ZM183.445 11.912H176.789V13.912H183.445V11.912ZM218.809 46V47H219.809V46H218.809ZM218.809 12.912H219.809V11.912H218.809V12.912ZM209.721 12.912V11.912H208.721V12.912H209.721ZM208.057 37.552L208.851 38.1595L208.859 38.1483L208.057 37.552ZM198.137 37.744L197.289 38.274L197.292 38.2801L197.296 38.2861L198.137 37.744ZM196.857 12.912H197.857V11.912H196.857V12.912ZM187.769 12.912V11.912H186.769V12.912H187.769ZM188.281 38.896L187.3 39.0921L187.303 39.1065L187.306 39.1209L188.281 38.896ZM190.201 43.184L189.401 43.784L189.406 43.791L189.411 43.7979L190.201 43.184ZM193.849 45.872L193.464 46.7951L193.473 46.7987L193.849 45.872ZM205.497 45.552L205.918 46.4587L205.918 46.4587L205.497 45.552ZM209.977 41.392V40.392H209.41L209.119 40.8775L209.977 41.392ZM210.169 41.392H211.169V40.392H210.169V41.392ZM210.169 46H209.169V47H210.169V46ZM219.809 46V12.912H217.809V46H219.809ZM218.809 11.912H209.721V13.912H218.809V11.912ZM208.721 12.912V30.256H210.721V12.912H208.721ZM208.721 30.256C208.721 33.5646 208.167 35.7265 207.254 36.9557L208.859 38.1483C210.165 36.3908 210.721 33.6887 210.721 30.256H208.721ZM207.262 36.9445C206.404 38.0666 204.963 38.728 202.681 38.728V40.728C205.348 40.728 207.49 39.9387 208.851 38.1595L207.262 36.9445ZM202.681 38.728C200.701 38.728 199.58 38.1368 198.977 37.2019L197.296 38.2861C198.4 39.9965 200.308 40.728 202.681 40.728V38.728ZM198.984 37.214C198.278 36.0833 197.857 34.2589 197.857 31.6H195.857C195.857 34.4025 196.289 36.6741 197.289 38.274L198.984 37.214ZM197.857 31.6V12.912H195.857V31.6H197.857ZM196.857 11.912H187.769V13.912H196.857V11.912ZM186.769 12.912V33.264H188.769V12.912H186.769ZM186.769 33.264C186.769 35.3666 186.944 37.3107 187.3 39.0921L189.261 38.6999C188.935 37.0679 188.769 35.2574 188.769 33.264H186.769ZM187.306 39.1209C187.717 40.9013 188.41 42.4629 189.401 43.784L191.001 42.584C190.199 41.5158 189.612 40.2187 189.255 38.6711L187.306 39.1209ZM189.411 43.7979C190.427 45.1043 191.791 46.0981 193.464 46.7951L194.233 44.9489C192.834 44.3659 191.766 43.5677 190.99 42.5701L189.411 43.7979ZM193.473 46.7987C195.21 47.5031 197.354 47.832 199.865 47.832V45.832C197.511 45.832 195.644 45.5209 194.224 44.9453L193.473 46.7987ZM199.865 47.832C201.938 47.832 203.959 47.3701 205.918 46.4587L205.075 44.6453C203.365 45.4406 201.631 45.832 199.865 45.832V47.832ZM205.918 46.4587C207.953 45.5122 209.591 43.9788 210.834 41.9065L209.119 40.8775C208.058 42.6452 206.709 43.8851 205.075 44.6453L205.918 46.4587ZM209.977 42.392H210.169V40.392H209.977V42.392ZM209.169 41.392V46H211.169V41.392H209.169ZM210.169 47H218.809V45H210.169V47ZM225.706 12.912V11.912H224.706V12.912H225.706ZM225.706 46H224.706V47H225.706V46ZM234.794 46V47H235.794V46H234.794ZM236.714 23.6L235.91 23.0056L235.905 23.0118L236.714 23.6ZM239.53 21.296L239.964 22.197L239.964 22.197L239.53 21.296ZM245.482 20.592L245.341 21.5819L245.376 21.5869L245.411 21.5895L245.482 20.592ZM247.018 20.784L246.822 21.7646L248.018 22.0038V20.784H247.018ZM247.018 12.336H248.018V11.5878L247.3 11.3766L247.018 12.336ZM241.706 12.528L242.011 13.4804L242.011 13.4804L241.706 12.528ZM238.698 14L239.235 14.8437L239.248 14.8352L239.261 14.8262L238.698 14ZM236.202 16.24L236.964 16.8876L236.972 16.8785L236.979 16.8692L236.202 16.24ZM234.474 19.056V20.056H235.141L235.397 19.4406L234.474 19.056ZM234.346 19.056H233.346V20.056H234.346V19.056ZM234.346 12.912H235.346V11.912H234.346V12.912ZM224.706 12.912V46H226.706V12.912H224.706ZM225.706 47H234.794V45H225.706V47ZM235.794 46V31.088H233.794V46H235.794ZM235.794 31.088C235.794 29.661 235.937 28.3515 236.216 27.1552L234.268 26.7008C233.95 28.0645 233.794 29.5283 233.794 31.088H235.794ZM236.216 27.1552C236.488 25.9882 236.928 25.0054 237.523 24.1882L235.905 23.0118C235.134 24.072 234.593 25.3078 234.268 26.7008L236.216 27.1552ZM237.518 24.1944C238.142 23.3502 238.951 22.6846 239.964 22.197L239.096 20.395C237.805 21.0167 236.736 21.8872 235.91 23.0056L237.518 24.1944ZM239.964 22.197C240.946 21.7241 242.197 21.464 243.754 21.464V19.464C241.983 19.464 240.418 19.7586 239.096 20.395L239.964 22.197ZM243.754 21.464C244.257 21.464 244.786 21.5027 245.341 21.5819L245.623 19.602C244.983 19.5106 244.36 19.464 243.754 19.464V21.464ZM245.411 21.5895C245.981 21.6302 246.449 21.6899 246.822 21.7646L247.214 19.8034C246.734 19.7074 246.178 19.6392 245.553 19.5945L245.411 21.5895ZM248.018 20.784V12.336H246.018V20.784H248.018ZM247.3 11.3766C246.506 11.1431 245.748 11.016 245.034 11.016V13.016C245.514 13.016 246.079 13.1022 246.736 13.2954L247.3 11.3766ZM245.034 11.016C243.782 11.016 242.569 11.2018 241.401 11.5756L242.011 13.4804C242.976 13.1715 243.982 13.016 245.034 13.016V11.016ZM241.401 11.5756C240.241 11.9467 239.152 12.4803 238.135 13.1738L239.261 14.8262C240.122 14.2397 241.037 13.7919 242.011 13.4804L241.401 11.5756ZM238.161 13.1563C237.128 13.8138 236.216 14.6339 235.425 15.6108L236.979 16.8692C237.639 16.0541 238.391 15.3809 239.235 14.8437L238.161 13.1563ZM235.44 15.5923C234.648 16.5237 234.018 17.551 233.551 18.6714L235.397 19.4406C235.784 18.513 236.305 17.6629 236.964 16.8876L235.44 15.5923ZM234.474 18.056H234.346V20.056H234.474V18.056ZM235.346 19.056V12.912H233.346V19.056H235.346ZM234.346 11.912H225.706V13.912H234.346V11.912ZM271.728 25.904V26.904H272.93L272.711 25.7219L271.728 25.904ZM256.944 25.904L255.946 25.8375L255.875 26.904H256.944V25.904ZM257.328 23.728L256.374 23.4269L256.367 23.45L256.361 23.4735L257.328 23.728ZM258.544 21.424L257.772 20.7883L257.761 20.8022L257.75 20.8165L258.544 21.424ZM260.848 19.632L261.295 20.5264L261.303 20.5226L261.311 20.5186L260.848 19.632ZM269.424 20.656L268.678 21.322L268.685 21.3293L268.691 21.3364L269.424 20.656ZM256.944 31.664V30.664H255.9L255.945 31.7074L256.944 31.664ZM280.816 31.664V32.664H281.752L281.814 31.7305L280.816 31.664ZM277.232 18.032L276.421 18.6168L276.425 18.6229L276.43 18.629L277.232 18.032ZM272.112 13.68L271.643 14.5633L271.65 14.5671L271.658 14.5708L272.112 13.68ZM257.84 13.36L257.446 12.4408L257.439 12.4438L257.84 13.36ZM252.528 17.072L253.245 17.7691L253.254 17.7592L252.528 17.072ZM249.072 22.576L248.137 22.2208L248.137 22.2208L249.072 22.576ZM249.008 36.528L248.067 36.8667L248.07 36.875L248.073 36.8832L249.008 36.528ZM257.712 45.616L257.334 46.5418L257.342 46.5452L257.35 46.5484L257.712 45.616ZM274.352 44.272L274.894 45.1123L274.894 45.1123L274.352 44.272ZM280.24 35.76L281.192 36.067L281.613 34.76H280.24V35.76ZM272.24 35.76V34.76H271.49L271.28 35.48L272.24 35.76ZM269.808 38.704L270.369 39.5319L270.378 39.5258L270.387 39.5195L269.808 38.704ZM259.184 38.064L259.88 37.3458L259.88 37.3458L259.184 38.064ZM271.728 24.904H256.944V26.904H271.728V24.904ZM257.942 25.9705C257.979 25.4099 258.093 24.7492 258.295 23.9825L256.361 23.4735C256.136 24.3281 255.994 25.1181 255.946 25.8375L257.942 25.9705ZM258.282 24.0291C258.5 23.337 258.849 22.6715 259.338 22.0315L257.75 20.8165C257.13 21.6271 256.668 22.4977 256.374 23.4269L258.282 24.0291ZM259.316 22.0597C259.814 21.4544 260.467 20.9405 261.295 20.5264L260.401 18.7376C259.352 19.2621 258.468 19.943 257.772 20.7883L259.316 22.0597ZM261.311 20.5186C262.112 20.1006 263.158 19.864 264.496 19.864V17.864C262.933 17.864 261.547 18.1394 260.385 18.7454L261.311 20.5186ZM264.496 19.864C266.544 19.864 267.866 20.4121 268.678 21.322L270.17 19.99C268.849 18.5106 266.886 17.864 264.496 17.864V19.864ZM268.691 21.3364C269.627 22.3439 270.338 23.8912 270.745 26.0861L272.711 25.7219C272.264 23.3088 271.44 21.3574 270.157 19.9755L268.691 21.3364ZM256.944 32.664H280.816V30.664H256.944V32.664ZM281.814 31.7305C281.991 29.0716 281.77 26.5122 281.145 24.0573L279.207 24.5507C279.777 26.7892 279.982 29.1364 279.818 31.5975L281.814 31.7305ZM281.145 24.0573C280.517 21.5917 279.482 19.3805 278.034 17.435L276.43 18.629C277.713 20.3528 278.64 22.323 279.207 24.5507L281.145 24.0573ZM278.043 17.4472C276.624 15.4787 274.793 13.9253 272.566 12.7892L271.658 14.5708C273.612 15.568 275.195 16.9159 276.421 18.6168L278.043 17.4472ZM272.581 12.7967C270.321 11.5974 267.701 11.016 264.752 11.016V13.016C267.435 13.016 269.722 13.5439 271.643 14.5633L272.581 12.7967ZM264.752 11.016C262.114 11.016 259.674 11.4861 257.446 12.4409L258.234 14.2791C260.187 13.4419 262.356 13.016 264.752 13.016V11.016ZM257.439 12.4438C255.272 13.392 253.39 14.7059 251.802 16.3848L253.254 17.7592C254.653 16.2807 256.312 15.12 258.241 14.2762L257.439 12.4438ZM251.811 16.3749C250.216 18.0151 248.993 19.9683 248.137 22.2208L250.007 22.9312C250.772 20.917 251.853 19.2009 253.245 17.7691L251.811 16.3749ZM248.137 22.2208C247.28 24.4768 246.856 26.9022 246.856 29.488H248.856C248.856 27.1244 249.243 24.9419 250.007 22.9312L248.137 22.2208ZM246.856 29.488C246.856 32.1487 247.255 34.6117 248.067 36.8667L249.949 36.1893C249.225 34.1777 248.856 31.9473 248.856 29.488H246.856ZM248.073 36.8832C248.927 39.1297 250.125 41.0795 251.673 42.7186L253.127 41.3454C251.774 39.9125 250.71 38.193 249.943 36.1728L248.073 36.8832ZM251.673 42.7186C253.228 44.3654 255.121 45.6384 257.334 46.5418L258.09 44.6902C256.122 43.887 254.473 42.7706 253.127 41.3454L251.673 42.7186ZM257.35 46.5484C259.573 47.4103 262.045 47.832 264.752 47.832V45.832C262.253 45.832 260.032 45.443 258.074 44.6836L257.35 46.5484ZM264.752 47.832C268.661 47.832 272.058 46.9419 274.894 45.1123L273.81 43.4317C271.355 45.0155 268.352 45.832 264.752 45.832V47.832ZM274.894 45.1123C277.789 43.2449 279.864 40.183 281.192 36.067L279.288 35.453C278.056 39.273 276.206 41.8857 273.81 43.4317L274.894 45.1123ZM280.24 34.76H272.24V36.76H280.24V34.76ZM271.28 35.48C271.07 36.2005 270.459 37.0157 269.229 37.8885L270.387 39.5195C271.802 38.515 272.813 37.3675 273.2 36.04L271.28 35.48ZM269.247 37.8761C268.114 38.6439 266.737 39.048 265.072 39.048V41.048C267.076 41.048 268.857 40.5561 270.369 39.5319L269.247 37.8761ZM265.072 39.048C262.679 39.048 261.001 38.4324 259.88 37.3458L258.488 38.7822C260.097 40.341 262.345 41.048 265.072 41.048V39.048ZM259.88 37.3458C258.777 36.2772 258.066 34.445 257.943 31.6206L255.945 31.7074C256.078 34.771 256.861 37.2054 258.488 38.7822L259.88 37.3458ZM286.654 36.144V35.144H285.654V36.144H286.654ZM286.654 46H285.654V47H286.654V46ZM296.702 46V47H297.702V46H296.702ZM296.702 36.144H297.702V35.144H296.702V36.144ZM296.382 12.592L297.374 12.7176L297.382 12.6551V12.592H296.382ZM296.382 0.303997H297.382V-0.696003H296.382V0.303997ZM286.91 0.303997V-0.696003H285.91V0.303997H286.91ZM286.91 12.592H285.91V12.6535L285.918 12.7144L286.91 12.592ZM289.342 32.304L288.35 32.4264L288.458 33.304H289.342V32.304ZM293.886 32.304V33.304H294.767L294.878 32.4296L293.886 32.304ZM285.654 36.144V46H287.654V36.144H285.654ZM286.654 47H296.702V45H286.654V47ZM297.702 46V36.144H295.702V46H297.702ZM296.702 35.144H286.654V37.144H296.702V35.144ZM297.382 12.592V0.303997H295.382V12.592H297.382ZM296.382 -0.696003H286.91V1.304H296.382V-0.696003ZM285.91 0.303997V12.592H287.91V0.303997H285.91ZM285.918 12.7144L288.35 32.4264L290.334 32.1816L287.902 12.4696L285.918 12.7144ZM289.342 33.304H293.886V31.304H289.342V33.304ZM294.878 32.4296L297.374 12.7176L295.39 12.4664L292.894 32.1784L294.878 32.4296Z" fill="#343434"/>
</svg>
