<svg width="359" height="59" viewBox="0 0 359 59" fill="none" xmlns="http://www.w3.org/2000/svg">
<path d="M0.416 0.303997V-0.696003H-0.584V0.303997H0.416ZM0.416 46H-0.584V47H0.416V46ZM9.824 46V47H10.824V46H9.824ZM9.824 15.408V14.408H8.824V15.408H9.824ZM9.952 15.408L10.8014 14.8802L10.508 14.408H9.952V15.408ZM28.96 46L28.1106 46.5278L28.404 47H28.96V46ZM39.008 46V47H40.008V46H39.008ZM39.008 0.303997H40.008V-0.696003H39.008V0.303997ZM29.6 0.303997V-0.696003H28.6V0.303997H29.6ZM29.6 30.96V31.96H30.6V30.96H29.6ZM29.472 30.96L28.6229 31.4882L28.9164 31.96H29.472V30.96ZM10.4 0.303997L11.2491 -0.224248L10.9556 -0.696003H10.4V0.303997ZM-0.584 0.303997V46H1.416V0.303997H-0.584ZM0.416 47H9.824V45H0.416V47ZM10.824 46V15.408H8.824V46H10.824ZM9.824 16.408H9.952V14.408H9.824V16.408ZM9.10261 15.9358L28.1106 46.5278L29.8094 45.4722L10.8014 14.8802L9.10261 15.9358ZM28.96 47H39.008V45H28.96V47ZM40.008 46V0.303997H38.008V46H40.008ZM39.008 -0.696003H29.6V1.304H39.008V-0.696003ZM28.6 0.303997V30.96H30.6V0.303997H28.6ZM29.6 29.96H29.472V31.96H29.6V29.96ZM30.3211 30.4318L11.2491 -0.224248L9.55091 0.832242L28.6229 31.4882L30.3211 30.4318ZM10.4 -0.696003H0.416V1.304H10.4V-0.696003ZM46.5095 23.088L45.5113 23.0281L45.4477 24.088H46.5095V23.088ZM48.1095 17.776L48.9416 18.3307L48.9416 18.3307L48.1095 17.776ZM51.6935 14.384L52.2005 15.2459L52.2005 15.2459L51.6935 14.384ZM56.5575 12.592L56.7446 13.5743L56.7535 13.5726L56.7624 13.5708L56.5575 12.592ZM67.1175 12.4L66.9692 13.3889L66.9813 13.3908L66.9935 13.3923L67.1175 12.4ZM71.7895 13.744L71.3532 14.6438L71.3532 14.6438L71.7895 13.744ZM75.2455 16.624L74.4356 17.2105L74.4405 17.2173L74.4455 17.224L75.2455 16.624ZM76.8455 42.928L75.8532 43.052L75.8532 43.052L76.8455 42.928ZM77.7415 46V47H79.5457L78.5895 45.47L77.7415 46ZM68.5255 46L67.5768 46.3162L67.8047 47H68.5255V46ZM68.0775 44.464L67.0891 44.6161L67.0962 44.6617L67.1074 44.7065L68.0775 44.464ZM67.8855 42.8L68.8826 42.7233L68.7126 40.5134L67.1682 42.1032L67.8855 42.8ZM62.7655 45.936L63.0567 46.8927L62.7655 45.936ZM52.3335 46.256L52.6042 45.2933L52.6042 45.2933L52.3335 46.256ZM48.7495 44.464L48.1288 45.248L48.1288 45.248L48.7495 44.464ZM46.3175 41.392L45.405 41.8011L45.4108 41.814L45.4169 41.8267L46.3175 41.392ZM46.4455 32.368L45.5699 31.8849L45.564 31.8958L46.4455 32.368ZM49.0055 29.424L48.4432 28.5971L48.4353 28.6024L48.4275 28.608L49.0055 29.424ZM52.5895 27.824L52.8394 28.7923L52.8498 28.7896L52.8602 28.7867L52.5895 27.824ZM56.6855 26.928L56.8399 27.916L56.8399 27.916L56.6855 26.928ZM60.7175 26.416L60.6212 25.4206L60.6212 25.4206L60.7175 26.416ZM64.2375 25.84L63.995 24.8699L63.995 24.8699L64.2375 25.84ZM66.6695 24.752L67.2873 25.5383L67.3041 25.5251L67.3203 25.5113L66.6695 24.752ZM67.5015 22.576H66.5015V22.5987L66.5025 22.6214L67.5015 22.576ZM66.9895 20.272L66.0951 20.7192L66.1148 20.7586L66.1378 20.7961L66.9895 20.272ZM65.7095 18.928L65.1548 19.76L65.194 19.7862L65.2354 19.8085L65.7095 18.928ZM63.8535 18.288L63.6692 19.2709L63.7028 19.2772L63.7367 19.2811L63.8535 18.288ZM55.5975 23.088V24.088H56.5068L56.593 23.1828L55.5975 23.088ZM67.5015 29.808H68.5015V27.5812L66.8371 29.0606L67.5015 29.808ZM66.0295 30.64L66.3236 31.5958L66.3449 31.5892L66.3658 31.5817L66.0295 30.64ZM64.1735 31.088L63.9892 30.1051L63.9774 30.1074L64.1735 31.088ZM62.1255 31.408L62.0087 30.4148L62.0087 30.4148L62.1255 31.408ZM59.9495 31.728L59.7757 30.7432L59.7652 30.7451L59.9495 31.728ZM57.9015 32.24L57.6032 31.2855L57.5942 31.2883L57.5853 31.2913L57.9015 32.24ZM56.1735 33.136L56.7617 33.9447L56.7676 33.9404L56.7735 33.936L56.1735 33.136ZM55.0215 38.64L54.141 39.1141L54.141 39.1141L55.0215 38.64ZM56.2375 39.984L55.6828 40.816L55.7077 40.8327L55.7336 40.8478L56.2375 39.984ZM58.0295 40.624L58.2138 39.6411L58.2138 39.6411L58.0295 40.624ZM64.3015 39.92L63.7816 39.0658L63.7816 39.0658L64.3015 39.92ZM66.4775 37.808L67.3429 38.309L67.3484 38.2995L67.3537 38.2899L66.4775 37.808ZM67.3095 35.248L66.3206 35.0997L66.3169 35.124L66.3145 35.1485L67.3095 35.248ZM47.5077 23.1479C47.6278 21.1455 48.1238 19.5574 48.9416 18.3307L47.2775 17.2213C46.2179 18.8106 45.6472 20.7638 45.5113 23.0281L47.5077 23.1479ZM48.9416 18.3307C49.7969 17.0476 50.8807 16.0223 52.2005 15.2459L51.1865 13.5221C49.6049 14.4524 48.2994 15.6884 47.2774 17.2213L48.9416 18.3307ZM52.2005 15.2459C53.5443 14.4555 55.0559 13.896 56.7446 13.5743L56.3704 11.6097C54.4751 11.9707 52.7441 12.6058 51.1865 13.5221L52.2005 15.2459ZM56.7624 13.5708C58.5311 13.2006 60.2971 13.016 62.0615 13.016V11.016C60.1565 11.016 58.2532 11.2154 56.3526 11.6132L56.7624 13.5708ZM62.0615 13.016C63.674 13.016 65.3098 13.14 66.9692 13.3889L67.2658 11.4111C65.5119 11.148 63.777 11.016 62.0615 11.016V13.016ZM66.9935 13.3923C68.6024 13.5934 70.0528 14.0133 71.3532 14.6438L72.2258 12.8442C70.7102 12.1094 69.0459 11.6333 67.2415 11.4077L66.9935 13.3923ZM71.3532 14.6438C72.6165 15.2563 73.6388 16.1102 74.4356 17.2105L76.0554 16.0375C75.0602 14.6631 73.7785 13.597 72.2258 12.8442L71.3532 14.6438ZM74.4455 17.224C75.1736 18.1948 75.5895 19.5616 75.5895 21.424H77.5895C77.5895 19.2758 77.1094 17.4425 76.0455 16.024L74.4455 17.224ZM75.5895 21.424V38.64H77.5895V21.424H75.5895ZM75.5895 38.64C75.5895 40.1713 75.677 41.6422 75.8532 43.052L77.8378 42.804C77.6727 41.4831 77.5895 40.0953 77.5895 38.64H75.5895ZM75.8532 43.052C76.0309 44.4732 76.3536 45.6661 76.8935 46.53L78.5895 45.47C78.2761 44.9686 78.0015 44.1134 77.8378 42.804L75.8532 43.052ZM77.7415 45H68.5255V47H77.7415V45ZM69.4742 45.6838C69.3114 45.1955 69.1693 44.7081 69.0476 44.2215L67.1074 44.7065C67.2417 45.2439 67.3982 45.7805 67.5768 46.3162L69.4742 45.6838ZM69.0659 44.3119C68.9844 43.7821 68.9233 43.2525 68.8826 42.7233L66.8884 42.8767C66.9331 43.4568 67 44.0366 67.0891 44.6161L69.0659 44.3119ZM67.1682 42.1032C65.8335 43.4772 64.2728 44.432 62.4743 44.9793L63.0567 46.8927C65.1835 46.2454 67.0361 45.1095 68.6028 43.4968L67.1682 42.1032ZM62.4743 44.9793C60.6059 45.548 58.6987 45.832 56.7495 45.832V47.832C58.8963 47.832 60.9998 47.5187 63.0567 46.8927L62.4743 44.9793ZM56.7495 45.832C55.2522 45.832 53.8722 45.6499 52.6042 45.2933L52.0628 47.2187C53.5255 47.6301 55.0895 47.832 56.7495 47.832V45.832ZM52.6042 45.2933C51.3552 44.9421 50.2819 44.4017 49.3702 43.68L48.1288 45.248C49.2651 46.1476 50.5811 46.8019 52.0628 47.2187L52.6042 45.2933ZM49.3702 43.68C48.4708 42.968 47.7532 42.0658 47.2181 40.9573L45.4169 41.8267C46.0765 43.1929 46.9802 44.3387 48.1288 45.248L49.3702 43.68ZM47.23 40.9829C46.7459 39.903 46.4855 38.577 46.4855 36.976H44.4855C44.4855 38.7884 44.7798 40.4063 45.405 41.8011L47.23 40.9829ZM46.4855 36.976C46.4855 35.2033 46.789 33.8445 47.327 32.8402L45.564 31.8958C44.822 33.2808 44.4855 34.9941 44.4855 36.976H46.4855ZM47.3211 32.8511C47.9402 31.729 48.6972 30.8678 49.5835 30.24L48.4275 28.608C47.2658 29.4309 46.3162 30.5324 45.5699 31.8849L47.3211 32.8511ZM49.5678 30.2509C50.5337 29.5941 51.6216 29.1065 52.8394 28.7923L52.3396 26.8557C50.9121 27.2241 49.6106 27.8032 48.4432 28.5971L49.5678 30.2509ZM52.8602 28.7867C54.1883 28.4131 55.5148 28.1231 56.8399 27.916L56.5311 25.94C55.1255 26.1596 53.7213 26.4669 52.3188 26.8613L52.8602 28.7867ZM56.8399 27.916C58.1867 27.7056 59.5113 27.5374 60.8138 27.4113L60.6212 25.4206C59.2783 25.5506 57.915 25.7238 56.5311 25.94L56.8399 27.916ZM60.8138 27.4113C62.1738 27.2797 63.3976 27.0808 64.48 26.8101L63.995 24.8699C63.0294 25.1112 61.9065 25.2963 60.6212 25.4206L60.8138 27.4113ZM64.48 26.8101C65.5909 26.5324 66.545 26.1216 67.2873 25.5383L66.0517 23.9657C65.5994 24.3211 64.9321 24.6356 63.995 24.8699L64.48 26.8101ZM67.3203 25.5113C68.1978 24.7591 68.5541 23.71 68.5005 22.5306L66.5025 22.6214C66.5343 23.3193 66.3359 23.7209 66.0187 23.9927L67.3203 25.5113ZM68.5015 22.576C68.5015 21.4968 68.3168 20.5208 67.8412 19.7479L66.1378 20.7961C66.3449 21.1325 66.5015 21.6926 66.5015 22.576H68.5015ZM67.8839 19.8248C67.499 19.0549 66.9309 18.4499 66.1836 18.0475L65.2354 19.8085C65.5975 20.0034 65.8827 20.2944 66.0951 20.7192L67.8839 19.8248ZM66.2642 18.0959C65.5986 17.6522 64.8232 17.3952 63.9703 17.2948L63.7367 19.2811C64.3345 19.3515 64.7964 19.5211 65.1548 19.76L66.2642 18.0959ZM64.0378 17.3051C63.2853 17.164 62.476 17.096 61.6135 17.096V19.096C62.3723 19.096 63.0564 19.156 63.6692 19.2709L64.0378 17.3051ZM61.6135 17.096C59.6896 17.096 58.0438 17.5073 56.7895 18.448L57.9895 20.048C58.7832 19.4527 59.9534 19.096 61.6135 19.096V17.096ZM56.7895 18.448C55.4608 19.4445 54.7882 21.0381 54.602 22.9932L56.593 23.1828C56.7481 21.5539 57.2702 20.5875 57.9895 20.048L56.7895 18.448ZM55.5975 22.088H46.5095V24.088H55.5975V22.088ZM66.8371 29.0606C66.5686 29.2993 66.1971 29.5183 65.6932 29.6983L66.3658 31.5817C67.0565 31.3351 67.6664 30.9994 68.1659 30.5554L66.8371 29.0606ZM65.7354 29.6842C65.223 29.8419 64.6418 29.9828 63.9892 30.1051L64.3578 32.0709C65.0706 31.9372 65.7267 31.7794 66.3236 31.5958L65.7354 29.6842ZM63.9774 30.1074C63.3665 30.2296 62.7105 30.3323 62.0087 30.4148L62.2423 32.4011C62.9912 32.3131 63.7005 32.2024 64.3696 32.0686L63.9774 30.1074ZM62.0087 30.4148C61.2641 30.5024 60.5198 30.6119 59.7757 30.7432L60.1233 32.7128C60.8299 32.5881 61.5362 32.4842 62.2423 32.4011L62.0087 30.4148ZM59.7652 30.7451C59.0429 30.8806 58.3222 31.0608 57.6032 31.2855L58.1998 33.1945C58.8461 32.9925 59.4908 32.8314 60.1338 32.7109L59.7652 30.7451ZM57.5853 31.2913C56.8489 31.5368 56.176 31.8841 55.5735 32.336L56.7735 33.936C57.195 33.6199 57.6741 33.3699 58.2177 33.1887L57.5853 31.2913ZM55.5853 32.3273C54.9846 32.7642 54.5046 33.3307 54.141 34.0059L55.902 34.9541C56.1357 34.52 56.4238 34.1905 56.7617 33.9447L55.5853 32.3273ZM54.141 34.0059C53.741 34.7487 53.5735 35.6293 53.5735 36.592H55.5735C55.5735 35.8481 55.7046 35.3206 55.902 34.9541L54.141 34.0059ZM53.5735 36.592C53.5735 37.522 53.7446 38.3779 54.141 39.1141L55.902 38.1659C55.7011 37.7928 55.5735 37.2834 55.5735 36.592H53.5735ZM54.141 39.1141C54.5154 39.8094 55.0312 40.3817 55.6828 40.816L56.7922 39.1519C56.4198 38.9037 56.1249 38.5799 55.902 38.1659L54.141 39.1141ZM55.7336 40.8478C56.3599 41.2131 57.0689 41.4613 57.8452 41.6069L58.2138 39.6411C57.6248 39.5307 57.1391 39.3522 56.7414 39.1202L55.7336 40.8478ZM57.8452 41.6069C58.5913 41.7468 59.3571 41.816 60.1415 41.816V39.816C59.4753 39.816 58.8331 39.7572 58.2138 39.6411L57.8452 41.6069ZM60.1415 41.816C62.0229 41.816 63.619 41.5062 64.8214 40.7742L63.7816 39.0658C63.0214 39.5285 61.8441 39.816 60.1415 39.816V41.816ZM64.8214 40.7742C65.9137 40.1094 66.7728 39.2938 67.3429 38.309L65.6121 37.307C65.2435 37.9436 64.652 38.536 63.7816 39.0658L64.8214 40.7742ZM67.3537 38.2899C67.8793 37.3344 68.2041 36.352 68.3045 35.3475L66.3145 35.1485C66.2443 35.8506 66.0144 36.5749 65.6013 37.3261L67.3537 38.2899ZM68.2984 35.3963C68.4295 34.5223 68.5015 33.7839 68.5015 33.2H66.5015C66.5015 33.6401 66.4455 34.2671 66.3206 35.0997L68.2984 35.3963ZM68.5015 33.2V29.808H66.5015V33.2H68.5015ZM95.1635 12.912H94.1635V13.912H95.1635V12.912ZM95.1635 2.992H96.1635V1.992H95.1635V2.992ZM86.0755 2.992V1.992H85.0755V2.992H86.0755ZM86.0755 12.912V13.912H87.0755V12.912H86.0755ZM80.5715 12.912V11.912H79.5715V12.912H80.5715ZM80.5715 18.992H79.5715V19.992H80.5715V18.992ZM86.0755 18.992H87.0755V17.992H86.0755V18.992ZM86.9075 42.544L86.0282 43.0203L86.0282 43.0203L86.9075 42.544ZM89.1475 44.912L88.6388 45.7729L88.6471 45.7778L88.6554 45.7826L89.1475 44.912ZM92.4755 46L92.6399 45.0136L92.626 45.0113L92.6121 45.0094L92.4755 46ZM99.2595 46.256L99.2141 45.257L99.2141 45.257L99.2595 46.256ZM101.82 46L101.984 46.9864L102.82 46.8471V46H101.82ZM101.82 38.96H102.82V37.7402L101.623 37.9794L101.82 38.96ZM100.476 39.152L100.385 38.1561L100.385 38.1561L100.476 39.152ZM95.9315 38.448L95.2244 39.1551L95.2244 39.1551L95.9315 38.448ZM95.1635 18.992V17.992H94.1635V18.992H95.1635ZM101.82 18.992V19.992H102.82V18.992H101.82ZM101.82 12.912H102.82V11.912H101.82V12.912ZM96.1635 12.912V2.992H94.1635V12.912H96.1635ZM95.1635 1.992H86.0755V3.992H95.1635V1.992ZM85.0755 2.992V12.912H87.0755V2.992H85.0755ZM86.0755 11.912H80.5715V13.912H86.0755V11.912ZM79.5715 12.912V18.992H81.5715V12.912H79.5715ZM80.5715 19.992H86.0755V17.992H80.5715V19.992ZM85.0755 18.992V38.512H87.0755V18.992H85.0755ZM85.0755 38.512C85.0755 40.2754 85.3676 41.8007 86.0282 43.0203L87.7868 42.0677C87.338 41.2393 87.0755 40.0766 87.0755 38.512H85.0755ZM86.0282 43.0203C86.6631 44.1924 87.5333 45.1197 88.6388 45.7729L89.6562 44.0511C88.8844 43.595 88.2612 42.9436 87.7868 42.0677L86.0282 43.0203ZM88.6554 45.7826C89.7579 46.4057 90.99 46.8046 92.3389 46.9906L92.6121 45.0094C91.4863 44.8541 90.4998 44.5277 89.6396 44.0414L88.6554 45.7826ZM92.3111 46.9864C93.6498 47.2095 95.049 47.32 96.5075 47.32V45.32C95.15 45.32 93.8612 45.2172 92.6399 45.0136L92.3111 46.9864ZM96.5075 47.32C97.4194 47.32 98.3518 47.2983 99.3049 47.255L99.2141 45.257C98.2898 45.299 97.3876 45.32 96.5075 45.32V47.32ZM99.3049 47.255C100.276 47.2108 101.169 47.1221 101.984 46.9864L101.655 45.0136C100.934 45.1339 100.121 45.2158 99.2141 45.257L99.3049 47.255ZM102.82 46V38.96H100.82V46H102.82ZM101.623 37.9794C101.234 38.0572 100.822 38.1164 100.385 38.1561L100.566 40.1479C101.068 40.1023 101.551 40.0334 102.016 39.9406L101.623 37.9794ZM100.385 38.1561C99.9482 38.1958 99.4878 38.216 99.0035 38.216V40.216C99.5432 40.216 100.064 40.1935 100.566 40.1479L100.385 38.1561ZM99.0035 38.216C98.2838 38.216 97.7317 38.1553 97.326 38.0539C96.9143 37.9509 96.7207 37.823 96.6386 37.7409L95.2244 39.1551C95.6543 39.585 96.2287 39.8411 96.841 39.9941C97.4593 40.1487 98.1872 40.216 99.0035 40.216V38.216ZM96.6386 37.7409C96.5565 37.6588 96.4286 37.4652 96.3256 37.0535C96.2242 36.6478 96.1635 36.0957 96.1635 35.376H94.1635C94.1635 36.1923 94.2308 36.9202 94.3854 37.5385C94.5384 38.1508 94.7945 38.7252 95.2244 39.1551L96.6386 37.7409ZM96.1635 35.376V18.992H94.1635V35.376H96.1635ZM95.1635 19.992H101.82V17.992H95.1635V19.992ZM102.82 18.992V12.912H100.82V18.992H102.82ZM101.82 11.912H95.1635V13.912H101.82V11.912ZM137.184 46V47H138.184V46H137.184ZM137.184 12.912H138.184V11.912H137.184V12.912ZM128.096 12.912V11.912H127.096V12.912H128.096ZM126.432 37.552L127.226 38.1595L127.234 38.1483L126.432 37.552ZM116.512 37.744L115.664 38.274L115.667 38.2801L115.671 38.2861L116.512 37.744ZM115.232 12.912H116.232V11.912H115.232V12.912ZM106.144 12.912V11.912H105.144V12.912H106.144ZM106.656 38.896L105.675 39.0921L105.678 39.1065L105.681 39.1209L106.656 38.896ZM108.576 43.184L107.776 43.784L107.781 43.791L107.786 43.7979L108.576 43.184ZM112.224 45.872L111.839 46.7951L111.848 46.7987L112.224 45.872ZM123.872 45.552L124.293 46.4587L124.293 46.4587L123.872 45.552ZM128.352 41.392V40.392H127.785L127.494 40.8775L128.352 41.392ZM128.544 41.392H129.544V40.392H128.544V41.392ZM128.544 46H127.544V47H128.544V46ZM138.184 46V12.912H136.184V46H138.184ZM137.184 11.912H128.096V13.912H137.184V11.912ZM127.096 12.912V30.256H129.096V12.912H127.096ZM127.096 30.256C127.096 33.5646 126.542 35.7265 125.629 36.9557L127.234 38.1483C128.54 36.3908 129.096 33.6887 129.096 30.256H127.096ZM125.637 36.9445C124.779 38.0666 123.338 38.728 121.056 38.728V40.728C123.723 40.728 125.865 39.9387 127.226 38.1595L125.637 36.9445ZM121.056 38.728C119.076 38.728 117.955 38.1368 117.352 37.2019L115.671 38.2861C116.775 39.9965 118.683 40.728 121.056 40.728V38.728ZM117.359 37.214C116.653 36.0833 116.232 34.2589 116.232 31.6H114.232C114.232 34.4025 114.664 36.6741 115.664 38.274L117.359 37.214ZM116.232 31.6V12.912H114.232V31.6H116.232ZM115.232 11.912H106.144V13.912H115.232V11.912ZM105.144 12.912V33.264H107.144V12.912H105.144ZM105.144 33.264C105.144 35.3666 105.319 37.3107 105.675 39.0921L107.636 38.6999C107.31 37.0679 107.144 35.2574 107.144 33.264H105.144ZM105.681 39.1209C106.092 40.9013 106.785 42.4629 107.776 43.784L109.376 42.584C108.574 41.5158 107.987 40.2187 107.63 38.6711L105.681 39.1209ZM107.786 43.7979C108.802 45.1043 110.166 46.0981 111.839 46.7951L112.608 44.9489C111.209 44.3659 110.141 43.5677 109.365 42.5701L107.786 43.7979ZM111.848 46.7987C113.585 47.5031 115.729 47.832 118.24 47.832V45.832C115.886 45.832 114.019 45.5209 112.599 44.9453L111.848 46.7987ZM118.24 47.832C120.313 47.832 122.334 47.3701 124.293 46.4587L123.45 44.6453C121.74 45.4406 120.006 45.832 118.24 45.832V47.832ZM124.293 46.4587C126.328 45.5122 127.966 43.9788 129.209 41.9065L127.494 40.8775C126.433 42.6452 125.084 43.8851 123.45 44.6453L124.293 46.4587ZM128.352 42.392H128.544V40.392H128.352V42.392ZM127.544 41.392V46H129.544V41.392H127.544ZM128.544 47H137.184V45H128.544V47ZM144.081 12.912V11.912H143.081V12.912H144.081ZM144.081 46H143.081V47H144.081V46ZM153.169 46V47H154.169V46H153.169ZM155.089 23.6L154.285 23.0056L154.28 23.0118L155.089 23.6ZM157.905 21.296L158.339 22.197L158.339 22.197L157.905 21.296ZM163.857 20.592L163.716 21.5819L163.751 21.5869L163.786 21.5895L163.857 20.592ZM165.393 20.784L165.197 21.7646L166.393 22.0038V20.784H165.393ZM165.393 12.336H166.393V11.5878L165.675 11.3766L165.393 12.336ZM160.081 12.528L160.386 13.4804L160.386 13.4804L160.081 12.528ZM157.073 14L157.61 14.8437L157.623 14.8352L157.636 14.8262L157.073 14ZM154.577 16.24L155.339 16.8876L155.347 16.8785L155.354 16.8692L154.577 16.24ZM152.849 19.056V20.056H153.516L153.772 19.4406L152.849 19.056ZM152.721 19.056H151.721V20.056H152.721V19.056ZM152.721 12.912H153.721V11.912H152.721V12.912ZM143.081 12.912V46H145.081V12.912H143.081ZM144.081 47H153.169V45H144.081V47ZM154.169 46V31.088H152.169V46H154.169ZM154.169 31.088C154.169 29.661 154.312 28.3515 154.591 27.1552L152.643 26.7008C152.325 28.0645 152.169 29.5283 152.169 31.088H154.169ZM154.591 27.1552C154.863 25.9882 155.303 25.0054 155.898 24.1882L154.28 23.0118C153.509 24.072 152.968 25.3078 152.643 26.7008L154.591 27.1552ZM155.893 24.1944C156.517 23.3502 157.326 22.6846 158.339 22.197L157.471 20.395C156.18 21.0167 155.111 21.8872 154.285 23.0056L155.893 24.1944ZM158.339 22.197C159.321 21.7241 160.572 21.464 162.129 21.464V19.464C160.358 19.464 158.793 19.7586 157.471 20.395L158.339 22.197ZM162.129 21.464C162.632 21.464 163.161 21.5027 163.716 21.5819L163.998 19.602C163.358 19.5106 162.735 19.464 162.129 19.464V21.464ZM163.786 21.5895C164.356 21.6302 164.824 21.6899 165.197 21.7646L165.589 19.8034C165.109 19.7074 164.553 19.6392 163.928 19.5945L163.786 21.5895ZM166.393 20.784V12.336H164.393V20.784H166.393ZM165.675 11.3766C164.881 11.1431 164.123 11.016 163.409 11.016V13.016C163.889 13.016 164.454 13.1022 165.111 13.2954L165.675 11.3766ZM163.409 11.016C162.157 11.016 160.944 11.2018 159.776 11.5756L160.386 13.4804C161.351 13.1715 162.357 13.016 163.409 13.016V11.016ZM159.776 11.5756C158.616 11.9467 157.527 12.4803 156.51 13.1738L157.636 14.8262C158.497 14.2397 159.412 13.7919 160.386 13.4804L159.776 11.5756ZM156.536 13.1563C155.503 13.8138 154.591 14.6339 153.8 15.6108L155.354 16.8692C156.014 16.0541 156.766 15.3809 157.61 14.8437L156.536 13.1563ZM153.815 15.5923C153.023 16.5237 152.393 17.551 151.926 18.6714L153.772 19.4406C154.159 18.513 154.68 17.6629 155.339 16.8876L153.815 15.5923ZM152.849 18.056H152.721V20.056H152.849V18.056ZM153.721 19.056V12.912H151.721V19.056H153.721ZM152.721 11.912H144.081V13.912H152.721V11.912ZM169.212 0.303997V-0.696003H168.212V0.303997H169.212ZM169.212 46H168.212V47H169.212V46ZM178.3 46V47H179.3V46H178.3ZM178.3 0.303997H179.3V-0.696003H178.3V0.303997ZM168.212 0.303997V46H170.212V0.303997H168.212ZM169.212 47H178.3V45H169.212V47ZM179.3 46V0.303997H177.3V46H179.3ZM178.3 -0.696003H169.212V1.304H178.3V-0.696003ZM194.8 7.792V8.792H195.8V7.792H194.8ZM194.8 0.303997H195.8V-0.696003H194.8V0.303997ZM185.712 0.303997V-0.696003H184.712V0.303997H185.712ZM185.712 7.792H184.712V8.792H185.712V7.792ZM185.712 12.912V11.912H184.712V12.912H185.712ZM185.712 46H184.712V47H185.712V46ZM194.8 46V47H195.8V46H194.8ZM194.8 12.912H195.8V11.912H194.8V12.912ZM195.8 7.792V0.303997H193.8V7.792H195.8ZM194.8 -0.696003H185.712V1.304H194.8V-0.696003ZM184.712 0.303997V7.792H186.712V0.303997H184.712ZM185.712 8.792H194.8V6.792H185.712V8.792ZM184.712 12.912V46H186.712V12.912H184.712ZM185.712 47H194.8V45H185.712V47ZM195.8 46V12.912H193.8V46H195.8ZM194.8 11.912H185.712V13.912H194.8V11.912ZM213.86 37.296L213.323 38.1397L213.323 38.1397L213.86 37.296ZM211.556 34.992L210.695 35.5007L210.703 35.5149L210.712 35.5289L211.556 34.992ZM210.34 31.856L209.356 32.0318L209.359 32.0524L209.364 32.0729L210.34 31.856ZM210.404 24.752L209.436 24.501L209.433 24.514L209.43 24.5271L210.404 24.752ZM211.748 21.744L210.934 21.1627L210.929 21.1705L211.748 21.744ZM214.052 19.632L213.573 18.7541L213.564 18.7588L213.556 18.7638L214.052 19.632ZM221.092 19.696L220.6 20.5666L220.6 20.5666L221.092 19.696ZM224.74 25.2L223.761 25.4026L223.762 25.4095L224.74 25.2ZM224.612 32.496L223.656 32.2019L223.652 32.2141L223.649 32.2264L224.612 32.496ZM223.204 35.376L222.404 34.776L222.404 34.776L223.204 35.376ZM220.772 37.424L221.235 38.3106L221.235 38.3106L220.772 37.424ZM233.764 12.912H234.764V11.912H233.764V12.912ZM225.124 12.912V11.912H224.124V12.912H225.124ZM225.124 17.328V18.328H226.124V17.328H225.124ZM224.996 17.328L224.13 17.8283L224.419 18.328H224.996V17.328ZM220.836 13.232L220.389 14.1265L220.398 14.131L220.836 13.232ZM208.996 13.36L208.549 12.4655L208.54 12.47L208.996 13.36ZM204.58 17.008L205.361 17.6328L205.369 17.6219L204.58 17.008ZM201.828 22.256L200.875 21.9519L200.871 21.9648L201.828 22.256ZM201.7 34.864L200.73 35.1065L200.733 35.1186L200.736 35.1306L201.7 34.864ZM204.26 40.176L203.46 40.7761L203.468 40.7868L204.26 40.176ZM208.676 43.76L208.229 44.6544L208.237 44.6587L208.246 44.6629L208.676 43.76ZM220.772 43.824L221.184 44.7352L221.194 44.7307L220.772 43.824ZM224.996 39.92V38.92H224.41L224.124 39.4307L224.996 39.92ZM225.124 39.92H226.124V38.92H225.124V39.92ZM225.124 44.272H224.124V44.2811L224.124 44.2902L225.124 44.272ZM223.396 50.096L222.607 49.4821L222.601 49.489L222.596 49.496L223.396 50.096ZM213.54 51.376L214.023 50.5004L214.011 50.4939L213.999 50.4878L213.54 51.376ZM211.044 47.856L212.014 47.6135L211.825 46.856H211.044V47.856ZM202.02 47.856V46.856H200.949L201.022 47.924L202.02 47.856ZM203.556 52.656L202.728 53.2169L202.732 53.2225L203.556 52.656ZM207.012 55.984L206.482 56.8321L206.494 56.8392L207.012 55.984ZM211.62 57.84L211.863 56.8699L211.854 56.8677L211.845 56.8656L211.62 57.84ZM230.884 53.168L230.112 52.5323L230.108 52.5378L230.103 52.5433L230.884 53.168ZM233.188 48.432L232.212 48.2125L232.21 48.2242L232.207 48.2359L233.188 48.432ZM217.38 37.192C216.112 37.192 215.137 36.9236 214.397 36.4523L213.323 38.1397C214.46 38.863 215.832 39.192 217.38 39.192V37.192ZM214.397 36.4523C213.582 35.9336 212.918 35.2703 212.4 34.4551L210.712 35.5289C211.388 36.591 212.261 37.4637 213.323 38.1397L214.397 36.4523ZM212.417 34.4833C211.92 33.6424 211.551 32.6968 211.316 31.6391L209.364 32.0729C209.641 33.3192 210.083 34.4643 210.695 35.5007L212.417 34.4833ZM211.324 31.6802C211.121 30.5426 211.02 29.4068 211.02 28.272H209.02C209.02 29.5265 209.132 30.78 209.356 32.0318L211.324 31.6802ZM211.02 28.272C211.02 27.1039 211.141 26.0064 211.378 24.9769L209.43 24.5271C209.155 25.7163 209.02 26.9655 209.02 28.272H211.02ZM211.372 25.003C211.645 23.9502 212.047 23.0602 212.567 22.3175L210.929 21.1705C210.254 22.1345 209.76 23.2498 209.436 24.501L211.372 25.003ZM212.562 22.3252C213.124 21.5387 213.786 20.9359 214.548 20.5002L213.556 18.7638C212.526 19.3521 211.652 20.1573 210.934 21.1628L212.562 22.3252ZM214.531 20.5099C215.296 20.0924 216.234 19.864 217.38 19.864V17.864C215.966 17.864 214.685 18.1476 213.573 18.7541L214.531 20.5099ZM217.38 19.864C218.755 19.864 219.81 20.1199 220.6 20.5666L221.584 18.8254C220.412 18.1627 218.992 17.864 217.38 17.864V19.864ZM220.6 20.5666C221.44 21.0416 222.108 21.6745 222.616 22.4729L224.304 21.3991C223.617 20.3202 222.706 19.4597 221.584 18.8254L220.6 20.5666ZM222.616 22.4729C223.14 23.2964 223.526 24.268 223.761 25.4026L225.719 24.9974C225.442 23.6573 224.974 22.453 224.304 21.3991L222.616 22.4729ZM223.762 25.4095C224.002 26.5278 224.124 27.737 224.124 29.04H226.124C226.124 27.6123 225.99 26.2615 225.718 24.9905L223.762 25.4095ZM224.124 29.04C224.124 30.1379 223.967 31.1906 223.656 32.2019L225.568 32.7901C225.939 31.5827 226.124 30.3314 226.124 29.04H224.124ZM223.649 32.2264C223.382 33.1784 222.967 34.0255 222.404 34.776L224.004 35.976C224.721 35.0198 225.244 33.9469 225.575 32.7656L223.649 32.2264ZM222.404 34.776C221.857 35.5052 221.163 36.0919 220.309 36.5374L221.235 38.3106C222.343 37.7321 223.271 36.9534 224.004 35.976L222.404 34.776ZM220.309 36.5374C219.492 36.964 218.524 37.192 217.38 37.192V39.192C218.796 39.192 220.09 38.908 221.235 38.3106L220.309 36.5374ZM234.764 43.888V12.912H232.764V43.888H234.764ZM233.764 11.912H225.124V13.912H233.764V11.912ZM224.124 12.912V17.328H226.124V12.912H224.124ZM225.124 16.328H224.996V18.328H225.124V16.328ZM225.862 16.8277C224.673 14.7699 223.15 13.247 221.274 12.333L220.398 14.131C221.85 14.8383 223.1 16.0461 224.13 17.8283L225.862 16.8277ZM221.283 12.3376C219.498 11.4449 217.44 11.016 215.14 11.016V13.016C217.192 13.016 218.931 13.3978 220.389 14.1264L221.283 12.3376ZM215.14 11.016C212.704 11.016 210.499 11.4904 208.549 12.4656L209.443 14.2544C211.077 13.4376 212.968 13.016 215.14 13.016V11.016ZM208.54 12.47C206.662 13.4318 205.076 14.7416 203.791 16.3941L205.369 17.6219C206.473 16.2024 207.831 15.0802 209.452 14.25L208.54 12.47ZM203.799 16.3833C202.521 17.9813 201.549 19.8419 200.875 21.952L202.781 22.56C203.387 20.6595 204.25 19.0214 205.361 17.6327L203.799 16.3833ZM200.871 21.9648C200.244 24.0256 199.932 26.172 199.932 28.4H201.932C201.932 26.3614 202.217 24.4117 202.785 22.5472L200.871 21.9648ZM199.932 28.4C199.932 30.7373 200.197 32.9738 200.73 35.1065L202.67 34.6215C202.179 32.6582 201.932 30.5854 201.932 28.4H199.932ZM200.736 35.1306C201.321 37.2462 202.227 39.132 203.46 40.776L205.06 39.576C203.989 38.148 203.188 36.4925 202.664 34.5974L200.736 35.1306ZM203.468 40.7868C204.718 42.4068 206.311 43.6953 208.229 44.6544L209.123 42.8656C207.457 42.0327 206.106 40.9319 205.052 39.5652L203.468 40.7868ZM208.246 44.6629C210.201 45.5939 212.488 46.04 215.076 46.04V44.04C212.714 44.04 210.735 43.6327 209.106 42.8571L208.246 44.6629ZM215.076 46.04C217.221 46.04 219.26 45.6055 221.184 44.7351L220.36 42.9129C218.7 43.6638 216.942 44.04 215.076 44.04V46.04ZM221.194 44.7307C223.217 43.7898 224.783 42.3433 225.868 40.4093L224.124 39.4307C223.246 40.9954 221.997 42.1516 220.35 42.9173L221.194 44.7307ZM224.996 40.92H225.124V38.92H224.996V40.92ZM224.124 39.92V44.272H226.124V39.92H224.124ZM224.124 44.2902C224.164 46.4571 223.634 48.1616 222.607 49.4821L224.185 50.7099C225.548 48.9584 226.17 46.7802 226.124 44.2538L224.124 44.2902ZM222.596 49.496C221.692 50.7013 220.187 51.4 217.828 51.4V53.4C220.589 53.4 222.796 52.5627 224.196 50.696L222.596 49.496ZM217.828 51.4C216.35 51.4 215.092 51.0901 214.023 50.5004L213.057 52.2516C214.463 53.0272 216.063 53.4 217.828 53.4V51.4ZM213.999 50.4878C213.081 50.0129 212.391 49.1202 212.014 47.6135L210.074 48.0985C210.55 50.0051 211.524 51.4591 213.081 52.2642L213.999 50.4878ZM211.044 46.856H202.02V48.856H211.044V46.856ZM201.022 47.924C201.16 49.9461 201.717 51.7236 202.728 53.2168L204.384 52.0952C203.603 50.943 203.136 49.5205 203.018 47.788L201.022 47.924ZM202.732 53.2225C203.746 54.6975 204.997 55.9039 206.482 56.832L207.542 55.136C206.296 54.3575 205.243 53.3452 204.38 52.0895L202.732 53.2225ZM206.494 56.8392C207.996 57.7496 209.632 58.4074 211.395 58.8144L211.845 56.8656C210.28 56.5046 208.844 55.925 207.53 55.1288L206.494 56.8392ZM211.377 58.8101C213.157 59.255 214.902 59.48 216.612 59.48V57.48C215.079 57.48 213.497 57.2784 211.863 56.8699L211.377 58.8101ZM216.612 59.48C220.484 59.48 223.671 58.9604 226.113 57.855L225.287 56.033C223.206 56.9756 220.335 57.48 216.612 57.48V59.48ZM226.113 57.855C228.476 56.7846 230.347 55.4403 231.665 53.7927L230.103 52.5433C229.032 53.8824 227.447 55.0554 225.287 56.033L226.113 57.855ZM231.656 53.8037C232.947 52.2363 233.792 50.509 234.169 48.6281L232.207 48.2359C231.901 49.7684 231.211 51.1983 230.112 52.5323L231.656 53.8037ZM234.164 48.6515C234.559 46.8944 234.764 45.3038 234.764 43.888H232.764C232.764 45.1176 232.585 46.5563 232.212 48.2125L234.164 48.6515ZM252.601 12.912H251.601V13.912H252.601V12.912ZM252.601 2.992H253.601V1.992H252.601V2.992ZM243.513 2.992V1.992H242.513V2.992H243.513ZM243.513 12.912V13.912H244.513V12.912H243.513ZM238.009 12.912V11.912H237.009V12.912H238.009ZM238.009 18.992H237.009V19.992H238.009V18.992ZM243.513 18.992H244.513V17.992H243.513V18.992ZM244.345 42.544L243.466 43.0203L243.466 43.0203L244.345 42.544ZM246.585 44.912L246.076 45.7729L246.085 45.7778L246.093 45.7826L246.585 44.912ZM249.913 46L250.077 45.0136L250.064 45.0113L250.05 45.0094L249.913 46ZM256.697 46.256L256.652 45.257L256.652 45.257L256.697 46.256ZM259.257 46L259.421 46.9864L260.257 46.8471V46H259.257ZM259.257 38.96H260.257V37.7402L259.061 37.9794L259.257 38.96ZM257.913 39.152L257.822 38.1561L257.822 38.1561L257.913 39.152ZM253.369 38.448L252.662 39.1551L252.662 39.1551L253.369 38.448ZM252.601 18.992V17.992H251.601V18.992H252.601ZM259.257 18.992V19.992H260.257V18.992H259.257ZM259.257 12.912H260.257V11.912H259.257V12.912ZM253.601 12.912V2.992H251.601V12.912H253.601ZM252.601 1.992H243.513V3.992H252.601V1.992ZM242.513 2.992V12.912H244.513V2.992H242.513ZM243.513 11.912H238.009V13.912H243.513V11.912ZM237.009 12.912V18.992H239.009V12.912H237.009ZM238.009 19.992H243.513V17.992H238.009V19.992ZM242.513 18.992V38.512H244.513V18.992H242.513ZM242.513 38.512C242.513 40.2754 242.805 41.8007 243.466 43.0203L245.224 42.0677C244.776 41.2393 244.513 40.0766 244.513 38.512H242.513ZM243.466 43.0203C244.101 44.1924 244.971 45.1197 246.076 45.7729L247.094 44.0511C246.322 43.595 245.699 42.9436 245.224 42.0677L243.466 43.0203ZM246.093 45.7826C247.195 46.4057 248.428 46.8046 249.776 46.9906L250.05 45.0094C248.924 44.8541 247.937 44.5277 247.077 44.0414L246.093 45.7826ZM249.749 46.9864C251.087 47.2095 252.487 47.32 253.945 47.32V45.32C252.587 45.32 251.299 45.2172 250.077 45.0136L249.749 46.9864ZM253.945 47.32C254.857 47.32 255.789 47.2983 256.742 47.255L256.652 45.257C255.727 45.299 254.825 45.32 253.945 45.32V47.32ZM256.742 47.255C257.713 47.2108 258.607 47.1221 259.421 46.9864L259.093 45.0136C258.371 45.1339 257.558 45.2158 256.652 45.257L256.742 47.255ZM260.257 46V38.96H258.257V46H260.257ZM259.061 37.9794C258.672 38.0572 258.259 38.1164 257.822 38.1561L258.004 40.1479C258.505 40.1023 258.989 40.0334 259.453 39.9406L259.061 37.9794ZM257.822 38.1561C257.386 38.1958 256.925 38.216 256.441 38.216V40.216C256.981 40.216 257.502 40.1935 258.004 40.1479L257.822 38.1561ZM256.441 38.216C255.721 38.216 255.169 38.1553 254.764 38.0539C254.352 37.9509 254.158 37.823 254.076 37.7409L252.662 39.1551C253.092 39.585 253.666 39.8411 254.278 39.9941C254.897 40.1487 255.625 40.216 256.441 40.216V38.216ZM254.076 37.7409C253.994 37.6588 253.866 37.4652 253.763 37.0535C253.662 36.6478 253.601 36.0957 253.601 35.376H251.601C251.601 36.1923 251.668 36.9202 251.823 37.5385C251.976 38.1508 252.232 38.7252 252.662 39.1551L254.076 37.7409ZM253.601 35.376V18.992H251.601V35.376H253.601ZM252.601 19.992H259.257V17.992H252.601V19.992ZM260.257 18.992V12.912H258.257V18.992H260.257ZM259.257 11.912H252.601V13.912H259.257V11.912ZM281.885 46V47H282.602L282.832 46.3206L281.885 46ZM293.085 12.912L294.032 13.2326L294.479 11.912H293.085V12.912ZM284.061 12.912V11.912H283.323L283.106 12.617L284.061 12.912ZM277.085 35.504V36.504H277.823L278.04 35.799L277.085 35.504ZM276.957 35.504L276.002 35.799L276.219 36.504H276.957V35.504ZM269.981 12.912L270.936 12.617L270.719 11.912H269.981V12.912ZM260.445 12.912V11.912H259.046L259.499 13.2359L260.445 12.912ZM271.773 46L270.827 46.3239L271.058 47H271.773V46ZM282.832 46.3206L294.032 13.2326L292.138 12.5914L280.938 45.6794L282.832 46.3206ZM293.085 11.912H284.061V13.912H293.085V11.912ZM283.106 12.617L276.13 35.209L278.04 35.799L285.016 13.207L283.106 12.617ZM277.085 34.504H276.957V36.504H277.085V34.504ZM277.912 35.209L270.936 12.617L269.026 13.207L276.002 35.799L277.912 35.209ZM269.981 11.912H260.445V13.912H269.981V11.912ZM259.499 13.2359L270.827 46.3239L272.719 45.6761L261.391 12.5881L259.499 13.2359ZM271.773 47H281.885V45H271.773V47ZM306.175 7.792V8.792H307.175V7.792H306.175ZM306.175 0.303997H307.175V-0.696003H306.175V0.303997ZM297.087 0.303997V-0.696003H296.087V0.303997H297.087ZM297.087 7.792H296.087V8.792H297.087V7.792ZM297.087 12.912V11.912H296.087V12.912H297.087ZM297.087 46H296.087V47H297.087V46ZM306.175 46V47H307.175V46H306.175ZM306.175 12.912H307.175V11.912H306.175V12.912ZM307.175 7.792V0.303997H305.175V7.792H307.175ZM306.175 -0.696003H297.087V1.304H306.175V-0.696003ZM296.087 0.303997V7.792H298.087V0.303997H296.087ZM297.087 8.792H306.175V6.792H297.087V8.792ZM296.087 12.912V46H298.087V12.912H296.087ZM297.087 47H306.175V45H297.087V47ZM307.175 46V12.912H305.175V46H307.175ZM306.175 11.912H297.087V13.912H306.175V11.912ZM320.371 35.248H321.371V34.248H320.371V35.248ZM311.731 35.248V34.248H310.692L310.732 35.2864L311.731 35.248ZM313.203 40.816L312.346 41.3305L312.354 41.345L312.363 41.3593L313.203 40.816ZM316.723 44.336L316.186 45.1797L316.198 45.1868L316.723 44.336ZM321.651 46.256L321.856 45.2772L321.856 45.2772L321.651 46.256ZM332.787 46.256L332.604 45.2729L332.591 45.2754L332.577 45.2782L332.787 46.256ZM337.651 44.4L338.188 45.2437L338.188 45.2437L337.651 44.4ZM341.043 40.88L340.185 40.3655L340.181 40.373L341.043 40.88ZM341.491 31.536L340.618 32.0246L340.623 32.0323L340.627 32.0399L341.491 31.536ZM339.123 28.912L338.529 29.7162L338.54 29.7247L338.552 29.7329L339.123 28.912ZM335.731 27.184L335.405 28.1294L335.415 28.1327L335.731 27.184ZM331.891 26.096L331.664 27.0699L331.671 27.0714L331.891 26.096ZM328.115 25.264L327.912 26.2433L327.912 26.2433L328.115 25.264ZM324.787 24.432L324.445 25.3718L324.47 25.3809L324.496 25.3887L324.787 24.432ZM322.099 19.568L322.846 20.2324L322.864 20.213L322.88 20.1927L322.099 19.568ZM323.315 18.608L322.93 17.6849L322.916 17.691L322.901 17.6976L323.315 18.608ZM324.979 18.224L325.05 19.2215L325.085 19.2189L325.12 19.2139L324.979 18.224ZM330.867 19.056L330.395 19.9375L330.407 19.9441L330.42 19.9504L330.867 19.056ZM332.851 22.576L331.854 22.649L331.921 23.576H332.851V22.576ZM341.491 22.576V23.576H342.578L342.488 22.493L341.491 22.576ZM339.891 17.52L339.043 18.05L339.053 18.0656L339.063 18.0808L339.891 17.52ZM336.627 14.256L336.104 15.1086L336.104 15.1086L336.627 14.256ZM332.083 12.528L331.882 13.5076L331.887 13.5086L332.083 12.528ZM321.651 12.528L321.823 13.513L321.835 13.5109L321.847 13.5086L321.651 12.528ZM317.043 14.192L317.533 15.0636L317.543 15.0578L317.554 15.0519L317.043 14.192ZM313.715 17.392L312.867 16.862L312.861 16.8717L312.855 16.8815L313.715 17.392ZM313.395 26.352L312.531 26.8559L312.536 26.864L312.541 26.8719L313.395 26.352ZM315.763 28.848L315.192 29.6689L315.204 29.6774L315.217 29.6856L315.763 28.848ZM319.091 30.448L318.765 31.3934L318.784 31.4L318.804 31.4058L319.091 30.448ZM322.995 31.472L322.775 32.4474L322.782 32.449L322.789 32.4505L322.995 31.472ZM330.547 33.52L330.191 34.4545L330.198 34.4572L330.547 33.52ZM332.723 38.64L333.523 39.24L333.534 39.2248L333.545 39.2092L332.723 38.64ZM331.251 39.92L331.725 40.8005L331.736 40.7945L331.747 40.7882L331.251 39.92ZM329.331 40.624L329.515 41.6069L329.538 41.6027L329.56 41.5974L329.331 40.624ZM324.723 40.496L324.468 41.4631L324.48 41.4661L324.723 40.496ZM322.547 39.536L321.956 40.3424L321.974 40.3556L321.992 40.3681L322.547 39.536ZM320.947 37.808L320.063 38.2759L320.08 38.3076L320.099 38.338L320.947 37.808ZM320.371 34.248H311.731V36.248H320.371V34.248ZM310.732 35.2864C310.822 37.628 311.342 39.6586 312.346 41.3305L314.06 40.3015C313.272 38.9868 312.811 37.3053 312.73 35.2096L310.732 35.2864ZM312.363 41.3593C313.377 42.9263 314.652 44.2037 316.186 45.1797L317.26 43.4923C315.978 42.6763 314.906 41.6071 314.043 40.2727L312.363 41.3593ZM316.198 45.1868C317.756 46.1495 319.509 46.8294 321.446 47.2348L321.856 45.2772C320.123 44.9146 318.591 44.3145 317.248 43.4852L316.198 45.1868ZM321.446 47.2348C323.35 47.6332 325.296 47.832 327.283 47.832V45.832C325.43 45.832 323.622 45.6468 321.856 45.2772L321.446 47.2348ZM327.283 47.832C329.229 47.832 331.134 47.6329 332.997 47.2338L332.577 45.2782C330.856 45.6471 329.092 45.832 327.283 45.832V47.832ZM332.97 47.2391C334.916 46.8771 336.66 46.216 338.188 45.2437L337.114 43.5563C335.826 44.376 334.328 44.9522 332.604 45.2729L332.97 47.2391ZM338.188 45.2437C339.731 44.262 340.972 42.9728 341.905 41.387L340.181 40.373C339.407 41.6885 338.388 42.746 337.114 43.5563L338.188 45.2437ZM341.9 41.3945C342.91 39.7113 343.387 37.6884 343.387 35.376H341.387C341.387 37.4156 340.968 39.062 340.186 40.3655L341.9 41.3945ZM343.387 35.376C343.387 33.7141 343.064 32.2479 342.355 31.0321L340.627 32.0399C341.113 32.8721 341.387 33.9659 341.387 35.376H343.387ZM342.364 31.0474C341.694 29.8517 340.803 28.8623 339.694 28.0911L338.552 29.7329C339.406 30.3271 340.093 31.087 340.618 32.0246L342.364 31.0474ZM339.717 28.1078C338.643 27.3138 337.417 26.6917 336.047 26.2353L335.415 28.1327C336.605 28.5296 337.64 29.0596 338.529 29.7162L339.717 28.1078ZM336.057 26.2386C334.784 25.7996 333.468 25.427 332.111 25.1206L331.671 27.0714C332.959 27.3623 334.204 27.7151 335.405 28.1294L336.057 26.2386ZM332.118 25.1222C330.83 24.8217 329.563 24.5425 328.318 24.2847L327.912 26.2433C329.141 26.4975 330.392 26.773 331.664 27.0698L332.118 25.1222ZM328.318 24.2847C327.104 24.0336 326.025 23.7634 325.078 23.4753L324.496 25.3887C325.512 25.698 326.652 25.9824 327.912 26.2433L328.318 24.2847ZM325.129 23.4922C324.274 23.1814 323.619 22.8085 323.134 22.3927L321.832 23.9113C322.542 24.5194 323.423 25 324.445 25.3718L325.129 23.4922ZM323.134 22.3927C322.766 22.0773 322.587 21.6969 322.587 21.168H320.587C320.587 22.2604 321.006 23.2027 321.832 23.9113L323.134 22.3927ZM322.587 21.168C322.587 20.6484 322.715 20.3802 322.846 20.2324L321.352 18.9036C320.8 19.5238 320.587 20.3223 320.587 21.168H322.587ZM322.88 20.1927C323.129 19.8812 323.411 19.6628 323.729 19.5184L322.901 17.6976C322.28 17.9799 321.752 18.4014 321.318 18.9433L322.88 20.1927ZM323.7 19.5311C324.104 19.3625 324.552 19.257 325.05 19.2215L324.908 17.2265C324.211 17.2763 323.55 17.4268 322.93 17.6849L323.7 19.5311ZM325.12 19.2139C325.679 19.1342 326.186 19.096 326.643 19.096V17.096C326.076 17.096 325.474 17.1432 324.838 17.234L325.12 19.2139ZM326.643 19.096C328.132 19.096 329.371 19.3892 330.395 19.9375L331.339 18.1745C329.973 17.4428 328.397 17.096 326.643 17.096V19.096ZM330.42 19.9504C331.201 20.341 331.742 21.1259 331.854 22.649L333.848 22.503C333.704 20.5274 332.922 18.9657 331.314 18.1616L330.42 19.9504ZM332.851 23.576H341.491V21.576H332.851V23.576ZM342.488 22.493C342.307 20.3217 341.735 18.459 340.719 16.9592L339.063 18.0808C339.839 19.2263 340.334 20.7343 340.494 22.659L342.488 22.493ZM340.739 16.99C339.807 15.4985 338.609 14.2981 337.15 13.4034L336.104 15.1086C337.29 15.8353 338.269 16.8108 339.043 18.05L340.739 16.99ZM337.15 13.4034C335.715 12.5241 334.087 11.9091 332.279 11.5474L331.887 13.5086C333.492 13.8296 334.894 14.3665 336.104 15.1086L337.15 13.4034ZM332.284 11.5484C330.55 11.1928 328.755 11.016 326.899 11.016V13.016C328.627 13.016 330.288 13.1806 331.882 13.5076L332.284 11.5484ZM326.899 11.016C325.043 11.016 323.228 11.1928 321.455 11.5474L321.847 13.5086C323.487 13.1805 325.171 13.016 326.899 13.016V11.016ZM321.479 11.543C319.663 11.8606 318.011 12.4542 316.532 13.3321L317.554 15.0519C318.806 14.3085 320.225 13.7927 321.823 13.513L321.479 11.543ZM316.553 13.3204C315.037 14.1729 313.807 15.3588 312.867 16.862L314.563 17.922C315.33 16.6946 316.318 15.7471 317.533 15.0636L316.553 13.3204ZM312.855 16.8815C311.926 18.4456 311.499 20.3866 311.499 22.64H313.499C313.499 20.6267 313.882 19.0691 314.575 17.9025L312.855 16.8815ZM311.499 22.64C311.499 24.2283 311.827 25.6481 312.531 26.8559L314.259 25.8481C313.769 25.0079 313.499 23.953 313.499 22.64H311.499ZM312.541 26.8719C313.213 27.9771 314.101 28.91 315.192 29.6689L316.334 28.0271C315.462 27.4206 314.771 26.6896 314.249 25.8321L312.541 26.8719ZM315.217 29.6856C316.274 30.3753 317.459 30.943 318.765 31.3934L319.417 29.5026C318.248 29.0996 317.214 28.6007 316.309 28.0104L315.217 29.6856ZM318.804 31.4058C320.106 31.7966 321.43 32.1438 322.775 32.4474L323.215 30.4966C321.915 30.2029 320.636 29.8674 319.378 29.4902L318.804 31.4058ZM322.789 32.4505C326.012 33.129 328.47 33.799 330.191 34.4545L330.903 32.5855C329.04 31.8756 326.464 31.1803 323.201 30.4934L322.789 32.4505ZM330.198 34.4572C331.024 34.7645 331.552 35.1163 331.866 35.4672C332.162 35.7972 332.299 36.1575 332.299 36.592H334.299C334.299 35.6612 333.978 34.8268 333.356 34.1328C332.753 33.4597 331.905 32.9582 330.896 32.5828L330.198 34.4572ZM332.299 36.592C332.299 37.241 332.147 37.7147 331.901 38.0708L333.545 39.2092C334.067 38.456 334.299 37.5643 334.299 36.592H332.299ZM331.923 38.04C331.627 38.4348 331.243 38.773 330.755 39.0518L331.747 40.7882C332.454 40.3843 333.051 39.8692 333.523 39.24L331.923 38.04ZM330.777 39.0395C330.312 39.2898 329.757 39.4965 329.102 39.6506L329.56 41.5974C330.356 41.4102 331.081 41.1475 331.725 40.8005L330.777 39.0395ZM329.147 39.6411C328.52 39.7587 327.92 39.816 327.347 39.816V41.816C328.054 41.816 328.777 41.7453 329.515 41.6069L329.147 39.6411ZM327.347 39.816C326.531 39.816 325.738 39.719 324.966 39.5259L324.48 41.4661C325.415 41.6997 326.371 41.816 327.347 41.816V39.816ZM324.977 39.5289C324.264 39.3412 323.642 39.0641 323.102 38.7039L321.992 40.3681C322.732 40.8613 323.561 41.2241 324.469 41.4631L324.977 39.5289ZM323.138 38.7296C322.602 38.3364 322.155 37.8547 321.795 37.278L320.099 38.338C320.592 39.1267 321.212 39.797 321.956 40.3424L323.138 38.7296ZM321.831 37.3401C321.537 36.7846 321.371 36.098 321.371 35.248H319.371C319.371 36.3607 319.589 37.3807 320.063 38.2759L321.831 37.3401ZM348.154 36.144V35.144H347.154V36.144H348.154ZM348.154 46H347.154V47H348.154V46ZM358.202 46V47H359.202V46H358.202ZM358.202 36.144H359.202V35.144H358.202V36.144ZM357.882 12.592L358.874 12.7176L358.882 12.6551V12.592H357.882ZM357.882 0.303997H358.882V-0.696003H357.882V0.303997ZM348.41 0.303997V-0.696003H347.41V0.303997H348.41ZM348.41 12.592H347.41V12.6535L347.418 12.7144L348.41 12.592ZM350.842 32.304L349.85 32.4264L349.958 33.304H350.842V32.304ZM355.386 32.304V33.304H356.267L356.378 32.4296L355.386 32.304ZM347.154 36.144V46H349.154V36.144H347.154ZM348.154 47H358.202V45H348.154V47ZM359.202 46V36.144H357.202V46H359.202ZM358.202 35.144H348.154V37.144H358.202V35.144ZM358.882 12.592V0.303997H356.882V12.592H358.882ZM357.882 -0.696003H348.41V1.304H357.882V-0.696003ZM347.41 0.303997V12.592H349.41V0.303997H347.41ZM347.418 12.7144L349.85 32.4264L351.834 32.1816L349.402 12.4696L347.418 12.7144ZM350.842 33.304H355.386V31.304H350.842V33.304ZM356.378 32.4296L358.874 12.7176L356.89 12.4664L354.394 32.1784L356.378 32.4296Z" fill="#343434"/>
</svg>
