<svg width="298" height="58" viewBox="0 0 298 58" fill="none" xmlns="http://www.w3.org/2000/svg">
<path d="M23.356 36.848L22.5184 36.3017L22.5184 36.3017L23.356 36.848ZM20.924 39.216L21.4328 40.077L21.4439 40.0702L20.924 39.216ZM14.012 39.216L13.4921 40.0702L13.5059 40.0786L13.5199 40.0866L14.012 39.216ZM14.012 19.76L14.5041 20.6306L14.5181 20.6226L14.5319 20.6142L14.012 19.76ZM20.924 19.76L20.3871 20.6037L20.4092 20.6177L20.4319 20.6306L20.924 19.76ZM23.356 22.064L22.5184 22.6103L22.5184 22.6103L23.356 22.064ZM0.956 0.303997V-0.696003H-0.0439999V0.303997H0.956ZM0.956 46H-0.0439999V47H0.956V46ZM9.596 46V47H10.596V46H9.596ZM9.596 41.776V40.776H8.596V41.776H9.596ZM9.724 41.776L10.6058 41.3043L10.3232 40.776H9.724V41.776ZM14.076 45.68L13.7046 46.6085L13.7046 46.6085L14.076 45.68ZM25.532 45.808L25.9201 46.7296L25.9201 46.7296L25.532 45.808ZM29.884 42.672L29.1552 41.9873L29.1496 41.9933L29.1441 41.9993L29.884 42.672ZM33.084 37.296L34.0211 37.6451L34.0233 37.6392L33.084 37.296ZM33.084 21.616L32.1447 21.9592L32.1469 21.9651L33.084 21.616ZM29.884 16.176L29.1441 16.8487L29.1496 16.8547L29.1552 16.8607L29.884 16.176ZM25.532 13.04L25.9201 12.1184L25.9201 12.1184L25.532 13.04ZM14.652 13.232L15.0307 14.1576L15.041 14.1532L14.652 13.232ZM10.172 16.944V17.944H10.7147L11.0104 17.489L10.172 16.944ZM10.044 16.944H9.044V17.944H10.044V16.944ZM10.044 0.303997H11.044V-0.696003H10.044V0.303997ZM24.212 29.488C24.212 30.7798 24.0708 32.0261 23.7902 33.2288L25.7378 33.6832C26.0546 32.3259 26.212 30.9269 26.212 29.488H24.212ZM23.7902 33.2288C23.5148 34.409 23.0875 35.4291 22.5184 36.3017L24.1936 37.3943C24.9045 36.3042 25.4159 35.063 25.7378 33.6832L23.7902 33.2288ZM22.5184 36.3017C21.9583 37.1606 21.2553 37.8437 20.4041 38.3618L21.4439 40.0702C22.5554 39.3937 23.4737 38.4981 24.1936 37.3943L22.5184 36.3017ZM20.4153 38.3551C19.6651 38.7984 18.699 39.048 17.468 39.048V41.048C18.9676 41.048 20.3056 40.743 21.4327 40.0769L20.4153 38.3551ZM17.468 39.048C16.2877 39.048 15.3111 38.8016 14.5041 38.3454L13.5199 40.0866C14.6756 40.7397 16.003 41.048 17.468 41.048V39.048ZM14.5319 38.3618C13.6807 37.8437 12.9777 37.1606 12.4176 36.3017L10.7424 37.3943C11.4623 38.4981 12.3806 39.3937 13.4921 40.0702L14.5319 38.3618ZM12.4176 36.3017C11.8485 35.4291 11.4212 34.409 11.1458 33.2288L9.19816 33.6832C9.5201 35.063 10.0315 36.3042 10.7424 37.3943L12.4176 36.3017ZM11.1458 33.2288C10.8652 32.0261 10.724 30.7798 10.724 29.488H8.724C8.724 30.9269 8.88145 32.3259 9.19816 33.6832L11.1458 33.2288ZM10.724 29.488C10.724 28.1511 10.8657 26.8837 11.1458 25.6832L9.19816 25.2288C8.88092 26.5883 8.724 28.0089 8.724 29.488H10.724ZM11.1458 25.6832C11.4212 24.503 11.8485 23.4829 12.4176 22.6103L10.7424 21.5177C10.0315 22.6078 9.5201 23.849 9.19816 25.2288L11.1458 25.6832ZM12.4176 22.6103C12.9736 21.7577 13.6678 21.1032 14.5041 20.6306L13.5199 18.8894C12.3935 19.5261 11.4664 20.4076 10.7424 21.5177L12.4176 22.6103ZM14.5319 20.6142C15.3341 20.1259 16.3005 19.864 17.468 19.864V17.864C15.9902 17.864 14.6526 18.1994 13.4921 18.9058L14.5319 20.6142ZM17.468 19.864C18.6865 19.864 19.6419 20.1294 20.3871 20.6037L21.4609 18.9163C20.3288 18.1959 18.9802 17.864 17.468 17.864V19.864ZM20.4319 20.6306C21.2682 21.1032 21.9624 21.7577 22.5184 22.6103L24.1936 21.5177C23.4696 20.4076 22.5425 19.5261 21.4161 18.8894L20.4319 20.6306ZM22.5184 22.6103C23.0875 23.4829 23.5148 24.503 23.7902 25.6832L25.7378 25.2288C25.4159 23.849 24.9045 22.6078 24.1936 21.5177L22.5184 22.6103ZM23.7902 25.6832C24.0703 26.8837 24.212 28.1511 24.212 29.488H26.212C26.212 28.0089 26.0551 26.5883 25.7378 25.2288L23.7902 25.6832ZM-0.0439999 0.303997V46H1.956V0.303997H-0.0439999ZM0.956 47H9.596V45H0.956V47ZM10.596 46V41.776H8.596V46H10.596ZM9.596 42.776H9.724V40.776H9.596V42.776ZM8.84222 42.2477C9.93385 44.2885 11.5645 45.7524 13.7046 46.6085L14.4474 44.7515C12.7475 44.0716 11.4768 42.9328 10.6058 41.3043L8.84222 42.2477ZM13.7046 46.6085C15.7616 47.4313 18.0668 47.832 20.604 47.832V45.832C18.2772 45.832 16.2304 45.4647 14.4474 44.7515L13.7046 46.6085ZM20.604 47.832C22.4088 47.832 24.183 47.461 25.9201 46.7296L25.1439 44.8864C23.6383 45.5203 22.1272 45.832 20.604 45.832V47.832ZM25.9201 46.7296C27.6861 45.9861 29.2542 44.8513 30.6239 43.3447L29.1441 41.9993C27.9538 43.3087 26.6206 44.2646 25.1439 44.8864L25.9201 46.7296ZM30.6129 43.3567C32.043 41.8343 33.1732 39.9211 34.0211 37.6451L32.1469 36.9469C31.3735 39.0229 30.3704 40.6937 29.1552 41.9873L30.6129 43.3567ZM34.0233 37.6392C34.8837 35.2844 35.3 32.5389 35.3 29.424H33.3C33.3 32.3677 32.9057 34.8702 32.1447 36.9528L34.0233 37.6392ZM35.3 29.424C35.3 26.3099 34.8839 23.5828 34.0211 21.2669L32.1469 21.9651C32.9055 24.0012 33.3 26.4795 33.3 29.424H35.3ZM34.0233 21.2728C33.1763 18.9548 32.0462 17.0171 30.6129 15.4913L29.1552 16.8607C30.3672 18.1509 31.3704 19.8399 32.1447 21.9592L34.0233 21.2728ZM30.6239 15.5033C29.2542 13.9967 27.6861 12.8619 25.9201 12.1184L25.1439 13.9616C26.6206 14.5834 27.9538 15.5393 29.1441 16.8487L30.6239 15.5033ZM25.9201 12.1184C24.183 11.387 22.4088 11.016 20.604 11.016V13.016C22.1272 13.016 23.6383 13.3277 25.1439 13.9616L25.9201 12.1184ZM20.604 11.016C18.42 11.016 16.3039 11.4491 14.263 12.3107L15.041 14.1532C16.8401 13.3936 18.692 13.016 20.604 13.016V11.016ZM14.2734 12.3065C12.2069 13.1518 10.5534 14.5223 9.33356 16.399L11.0104 17.489C12.0092 15.9524 13.3424 14.8482 15.0306 14.1575L14.2734 12.3065ZM10.172 15.944H10.044V17.944H10.172V15.944ZM11.044 16.944V0.303997H9.044V16.944H11.044ZM10.044 -0.696003H0.956V1.304H10.044V-0.696003ZM56.401 50.096L55.4637 49.7475L55.4616 49.7531L56.401 50.096ZM70.225 12.912L71.1623 13.2605L71.6636 11.912H70.225V12.912ZM60.817 12.912V11.912H60.0865L59.8644 12.6079L60.817 12.912ZM53.585 35.568V36.568H54.3155L54.5376 35.8721L53.585 35.568ZM53.457 35.568L52.5075 35.8818L52.7343 36.568H53.457V35.568ZM45.969 12.912L46.9185 12.5982L46.6917 11.912H45.969V12.912ZM36.305 12.912V11.912H34.8644L35.3681 13.2616L36.305 12.912ZM47.889 43.952L46.9521 44.3016L46.9562 44.3126L46.9605 44.3234L47.889 43.952ZM47.377 48.688L46.5719 48.0948L46.5616 48.1089L46.5517 48.1233L47.377 48.688ZM44.753 50.096L44.8006 51.0949L44.8301 51.0935L44.8595 51.0903L44.753 50.096ZM42.065 50.032L42.1598 49.0365L42.1598 49.0365L42.065 50.032ZM39.441 49.776L39.5405 48.781L38.441 48.671V49.776H39.441ZM39.441 57.264H38.441V58.1772L39.3505 58.2599L39.441 57.264ZM42.193 57.456L42.2835 56.4601L42.2621 56.4582L42.2406 56.4571L42.193 57.456ZM52.305 55.856L52.855 56.6912L52.855 56.6912L52.305 55.856ZM57.3383 50.4445L71.1623 13.2605L69.2877 12.5635L55.4637 49.7475L57.3383 50.4445ZM70.225 11.912H60.817V13.912H70.225V11.912ZM59.8644 12.6079L52.6324 35.2639L54.5376 35.8721L61.7696 13.2161L59.8644 12.6079ZM53.585 34.568H53.457V36.568H53.585V34.568ZM54.4065 35.2542L46.9185 12.5982L45.0195 13.2258L52.5075 35.8818L54.4065 35.2542ZM45.969 11.912H36.305V13.912H45.969V11.912ZM35.3681 13.2616L46.9521 44.3016L48.8259 43.6024L37.2419 12.5624L35.3681 13.2616ZM46.9605 44.3234C47.1668 44.8392 47.273 45.3951 47.273 46H49.273C49.273 45.1542 49.1232 44.3448 48.8175 43.5806L46.9605 44.3234ZM47.273 46C47.273 46.762 47.0462 47.4512 46.5719 48.0948L48.1821 49.2812C48.9025 48.3035 49.273 47.2007 49.273 46H47.273ZM46.5517 48.1233C46.1986 48.6393 45.6211 48.9973 44.6465 49.1017L44.8595 51.0903C46.2742 50.9387 47.446 50.358 48.2023 49.2527L46.5517 48.1233ZM44.7054 49.0971C43.8571 49.1375 43.0087 49.1173 42.1598 49.0365L41.9702 51.0275C42.9133 51.1173 43.8569 51.1398 44.8006 51.0949L44.7054 49.0971ZM42.1598 49.0365C41.2653 48.9513 40.3922 48.8661 39.5405 48.781L39.3415 50.771C40.1965 50.8565 41.0727 50.942 41.9702 51.0275L42.1598 49.0365ZM38.441 49.776V57.264H40.441V49.776H38.441ZM39.3505 58.2599C40.3027 58.3465 41.2344 58.4115 42.1454 58.4549L42.2406 56.4571C41.3596 56.4152 40.4566 56.3522 39.5315 56.2681L39.3505 58.2599ZM42.1025 58.4519C43.0711 58.54 44.04 58.584 45.009 58.584V56.584C44.1007 56.584 43.1922 56.5427 42.2835 56.4601L42.1025 58.4519ZM45.009 58.584C48.2296 58.584 50.8809 57.9912 52.855 56.6912L51.755 55.0208C50.2304 56.0248 48.0177 56.584 45.009 56.584V58.584ZM52.855 56.6912C54.8388 55.3847 56.3119 53.256 57.3404 50.4389L55.4616 49.7531C54.5274 52.312 53.2698 54.0233 51.755 55.0208L52.855 56.6912ZM91.081 12.912V11.912H90.081V12.912H91.081ZM91.081 46H90.081V47H91.081V46ZM100.169 46V47H101.169V46H100.169ZM101.833 21.424L102.627 22.0315L102.636 22.0203L101.833 21.424ZM111.753 21.232L110.905 21.762L110.909 21.7681L110.913 21.7741L111.753 21.232ZM113.033 46H112.033V47H113.033V46ZM122.121 46V47H123.121V46H122.121ZM121.545 20.08L120.564 20.2761L120.567 20.2905L120.571 20.3049L121.545 20.08ZM119.689 15.792L118.889 16.392L118.894 16.399L118.9 16.4059L119.689 15.792ZM115.977 13.04L115.571 13.9538L115.586 13.9605L115.601 13.9667L115.977 13.04ZM104.393 13.36L104.815 14.2667L104.823 14.2627L104.832 14.2586L104.393 13.36ZM99.913 17.52V18.52H100.479L100.77 18.0345L99.913 17.52ZM99.721 17.52H98.721V18.52H99.721V17.52ZM99.721 12.912H100.721V11.912H99.721V12.912ZM90.081 12.912V46H92.081V12.912H90.081ZM91.081 47H100.169V45H91.081V47ZM101.169 46V28.656H99.169V46H101.169ZM101.169 28.656C101.169 25.3431 101.724 23.2124 102.627 22.0315L101.039 20.8165C99.723 22.537 99.169 25.2276 99.169 28.656H101.169ZM102.636 22.0203C103.498 20.8601 104.937 20.184 107.209 20.184V18.184C104.532 18.184 102.387 19.0012 101.03 20.8277L102.636 22.0203ZM107.209 20.184C109.175 20.184 110.296 20.7878 110.905 21.762L112.601 20.702C111.503 18.9455 109.595 18.184 107.209 18.184V20.184ZM110.913 21.7741C111.61 22.8554 112.033 24.6493 112.033 27.312H114.033C114.033 24.5134 113.602 22.2539 112.593 20.6899L110.913 21.7741ZM112.033 27.312V46H114.033V27.312H112.033ZM113.033 47H122.121V45H113.033V47ZM123.121 46V25.648H121.121V46H123.121ZM123.121 25.648C123.121 23.5388 122.923 21.6058 122.519 19.8551L120.571 20.3049C120.935 21.8822 121.121 23.6612 121.121 25.648H123.121ZM122.526 19.8839C122.16 18.0541 121.486 16.474 120.478 15.1781L118.9 16.4059C119.684 17.414 120.248 18.6926 120.564 20.2761L122.526 19.8839ZM120.489 15.192C119.469 13.8323 118.076 12.8118 116.353 12.1133L115.601 13.9667C117.036 14.5482 118.117 15.3624 118.889 16.392L120.489 15.192ZM116.383 12.1262C114.675 11.3672 112.539 11.016 110.025 11.016V13.016C112.375 13.016 114.207 13.3475 115.571 13.9538L116.383 12.1262ZM110.025 11.016C107.943 11.016 105.917 11.503 103.954 12.4614L104.832 14.2586C106.539 13.425 108.267 13.016 110.025 13.016V11.016ZM103.971 12.4533C101.936 13.3998 100.299 14.9332 99.0555 17.0055L100.77 18.0345C101.831 16.2668 103.18 15.0269 104.815 14.2667L103.971 12.4533ZM99.913 16.52H99.721V18.52H99.913V16.52ZM100.721 17.52V12.912H98.721V17.52H100.721ZM99.721 11.912H91.081V13.912H99.721V11.912ZM128.635 23.088L127.636 23.0281L127.573 24.088H128.635V23.088ZM130.235 17.776L131.067 18.3307L131.067 18.3307L130.235 17.776ZM133.819 14.384L134.326 15.2459L134.326 15.2459L133.819 14.384ZM138.683 12.592L138.87 13.5743L138.879 13.5726L138.887 13.5708L138.683 12.592ZM149.243 12.4L149.094 13.3889L149.106 13.3908L149.118 13.3923L149.243 12.4ZM153.915 13.744L153.478 14.6438L153.478 14.6438L153.915 13.744ZM157.371 16.624L156.561 17.2105L156.565 17.2173L156.571 17.224L157.371 16.624ZM158.971 42.928L157.978 43.052L157.978 43.052L158.971 42.928ZM159.867 46V47H161.671L160.714 45.47L159.867 46ZM150.651 46L149.702 46.3162L149.93 47H150.651V46ZM150.203 44.464L149.214 44.6161L149.221 44.6617L149.232 44.7065L150.203 44.464ZM150.011 42.8L151.008 42.7233L150.838 40.5134L149.293 42.1032L150.011 42.8ZM144.891 45.936L145.182 46.8927L144.891 45.936ZM134.459 46.256L134.729 45.2933L134.729 45.2933L134.459 46.256ZM130.875 44.464L130.254 45.248L130.254 45.248L130.875 44.464ZM128.443 41.392L127.53 41.8011L127.536 41.814L127.542 41.8267L128.443 41.392ZM128.571 32.368L127.695 31.8849L127.689 31.8958L128.571 32.368ZM131.131 29.424L130.568 28.5971L130.56 28.6024L130.552 28.608L131.131 29.424ZM134.715 27.824L134.964 28.7923L134.975 28.7896L134.985 28.7867L134.715 27.824ZM138.811 26.928L138.965 27.916L138.965 27.916L138.811 26.928ZM142.843 26.416L142.746 25.4206L142.746 25.4206L142.843 26.416ZM146.363 25.84L146.12 24.8699L146.12 24.8699L146.363 25.84ZM148.795 24.752L149.412 25.5383L149.429 25.5251L149.445 25.5113L148.795 24.752ZM149.627 22.576H148.627V22.5987L148.628 22.6214L149.627 22.576ZM149.115 20.272L148.22 20.7192L148.24 20.7586L148.263 20.7961L149.115 20.272ZM147.835 18.928L147.28 19.76L147.319 19.7862L147.36 19.8085L147.835 18.928ZM145.979 18.288L145.794 19.2709L145.828 19.2772L145.862 19.2811L145.979 18.288ZM137.723 23.088V24.088H138.632L138.718 23.1828L137.723 23.088ZM149.627 29.808H150.627V27.5812L148.962 29.0606L149.627 29.808ZM148.155 30.64L148.449 31.5958L148.47 31.5892L148.491 31.5817L148.155 30.64ZM146.299 31.088L146.114 30.1051L146.102 30.1074L146.299 31.088ZM144.251 31.408L144.134 30.4148L144.134 30.4148L144.251 31.408ZM142.075 31.728L141.901 30.7432L141.89 30.7451L142.075 31.728ZM140.027 32.24L139.728 31.2855L139.719 31.2883L139.71 31.2913L140.027 32.24ZM138.299 33.136L138.887 33.9447L138.893 33.9404L138.899 33.936L138.299 33.136ZM137.147 38.64L136.266 39.1141L136.266 39.1141L137.147 38.64ZM138.363 39.984L137.808 40.816L137.833 40.8327L137.859 40.8478L138.363 39.984ZM140.155 40.624L140.339 39.6411L140.339 39.6411L140.155 40.624ZM146.427 39.92L145.907 39.0658L145.907 39.0658L146.427 39.92ZM148.603 37.808L149.468 38.309L149.473 38.2995L149.479 38.2899L148.603 37.808ZM149.435 35.248L148.446 35.0997L148.442 35.124L148.439 35.1485L149.435 35.248ZM129.633 23.1479C129.753 21.1455 130.249 19.5574 131.067 18.3307L129.402 17.2213C128.343 18.8106 127.772 20.7638 127.636 23.0281L129.633 23.1479ZM131.067 18.3307C131.922 17.0476 133.006 16.0223 134.326 15.2459L133.311 13.5221C131.73 14.4524 130.424 15.6884 129.402 17.2213L131.067 18.3307ZM134.326 15.2459C135.669 14.4555 137.181 13.896 138.87 13.5743L138.495 11.6097C136.6 11.9707 134.869 12.6058 133.311 13.5221L134.326 15.2459ZM138.887 13.5708C140.656 13.2006 142.422 13.016 144.187 13.016V11.016C142.282 11.016 140.378 11.2154 138.478 11.6132L138.887 13.5708ZM144.187 13.016C145.799 13.016 147.435 13.14 149.094 13.3889L149.391 11.4111C147.637 11.148 145.902 11.016 144.187 11.016V13.016ZM149.118 13.3923C150.727 13.5934 152.178 14.0133 153.478 14.6438L154.351 12.8442C152.835 12.1094 151.171 11.6333 149.367 11.4077L149.118 13.3923ZM153.478 14.6438C154.741 15.2563 155.764 16.1102 156.561 17.2105L158.18 16.0375C157.185 14.6631 155.904 13.597 154.351 12.8442L153.478 14.6438ZM156.571 17.224C157.299 18.1948 157.715 19.5616 157.715 21.424H159.715C159.715 19.2758 159.234 17.4425 158.171 16.024L156.571 17.224ZM157.715 21.424V38.64H159.715V21.424H157.715ZM157.715 38.64C157.715 40.1713 157.802 41.6422 157.978 43.052L159.963 42.804C159.798 41.4831 159.715 40.0953 159.715 38.64H157.715ZM157.978 43.052C158.156 44.4732 158.479 45.6661 159.019 46.53L160.714 45.47C160.401 44.9686 160.126 44.1134 159.963 42.804L157.978 43.052ZM159.867 45H150.651V47H159.867V45ZM151.599 45.6838C151.436 45.1955 151.294 44.7081 151.173 44.2215L149.232 44.7065C149.367 45.2439 149.523 45.7805 149.702 46.3162L151.599 45.6838ZM151.191 44.3119C151.109 43.7821 151.048 43.2525 151.008 42.7233L149.013 42.8767C149.058 43.4568 149.125 44.0366 149.214 44.6161L151.191 44.3119ZM149.293 42.1032C147.959 43.4772 146.398 44.432 144.599 44.9793L145.182 46.8927C147.309 46.2454 149.161 45.1095 150.728 43.4968L149.293 42.1032ZM144.599 44.9793C142.731 45.548 140.824 45.832 138.875 45.832V47.832C141.021 47.832 143.125 47.5187 145.182 46.8927L144.599 44.9793ZM138.875 45.832C137.377 45.832 135.997 45.6499 134.729 45.2933L134.188 47.2187C135.651 47.6301 137.215 47.832 138.875 47.832V45.832ZM134.729 45.2933C133.48 44.9421 132.407 44.4017 131.495 43.68L130.254 45.248C131.39 46.1476 132.706 46.8019 134.188 47.2187L134.729 45.2933ZM131.495 43.68C130.596 42.968 129.878 42.0658 129.343 40.9573L127.542 41.8267C128.201 43.1929 129.105 44.3387 130.254 45.248L131.495 43.68ZM129.355 40.9829C128.871 39.903 128.611 38.577 128.611 36.976H126.611C126.611 38.7884 126.905 40.4063 127.53 41.8011L129.355 40.9829ZM128.611 36.976C128.611 35.2033 128.914 33.8445 129.452 32.8402L127.689 31.8958C126.947 33.2808 126.611 34.9941 126.611 36.976H128.611ZM129.446 32.8511C130.065 31.729 130.822 30.8678 131.709 30.24L130.552 28.608C129.391 29.4309 128.441 30.5324 127.695 31.8849L129.446 32.8511ZM131.693 30.2509C132.659 29.5941 133.747 29.1065 134.964 28.7923L134.465 26.8557C133.037 27.2241 131.736 27.8032 130.568 28.5971L131.693 30.2509ZM134.985 28.7867C136.313 28.4131 137.64 28.1231 138.965 27.916L138.656 25.94C137.251 26.1596 135.846 26.4669 134.444 26.8613L134.985 28.7867ZM138.965 27.916C140.312 27.7056 141.636 27.5374 142.939 27.4113L142.746 25.4206C141.403 25.5506 140.04 25.7238 138.656 25.94L138.965 27.916ZM142.939 27.4113C144.299 27.2797 145.523 27.0808 146.605 26.8101L146.12 24.8699C145.154 25.1112 144.032 25.2963 142.746 25.4206L142.939 27.4113ZM146.605 26.8101C147.716 26.5324 148.67 26.1216 149.412 25.5383L148.177 23.9657C147.724 24.3211 147.057 24.6356 146.12 24.8699L146.605 26.8101ZM149.445 25.5113C150.323 24.7591 150.679 23.71 150.625 22.5306L148.628 22.6214C148.659 23.3193 148.461 23.7209 148.144 23.9927L149.445 25.5113ZM150.627 22.576C150.627 21.4968 150.442 20.5208 149.966 19.7479L148.263 20.7961C148.47 21.1325 148.627 21.6926 148.627 22.576H150.627ZM150.009 19.8248C149.624 19.0549 149.056 18.4499 148.309 18.0475L147.36 19.8085C147.722 20.0034 148.008 20.2944 148.22 20.7192L150.009 19.8248ZM148.389 18.0959C147.724 17.6522 146.948 17.3952 146.095 17.2948L145.862 19.2811C146.459 19.3515 146.921 19.5211 147.28 19.76L148.389 18.0959ZM146.163 17.3051C145.41 17.164 144.601 17.096 143.739 17.096V19.096C144.497 19.096 145.181 19.156 145.794 19.2709L146.163 17.3051ZM143.739 17.096C141.815 17.096 140.169 17.5073 138.915 18.448L140.115 20.048C140.908 19.4527 142.078 19.096 143.739 19.096V17.096ZM138.915 18.448C137.586 19.4445 136.913 21.0381 136.727 22.9932L138.718 23.1828C138.873 21.5539 139.395 20.5875 140.115 20.048L138.915 18.448ZM137.723 22.088H128.635V24.088H137.723V22.088ZM148.962 29.0606C148.694 29.2993 148.322 29.5183 147.818 29.6983L148.491 31.5817C149.182 31.3351 149.791 30.9994 150.291 30.5554L148.962 29.0606ZM147.86 29.6842C147.348 29.8419 146.767 29.9828 146.114 30.1051L146.483 32.0709C147.196 31.9372 147.852 31.7794 148.449 31.5958L147.86 29.6842ZM146.102 30.1074C145.491 30.2296 144.835 30.3323 144.134 30.4148L144.367 32.4011C145.116 32.3131 145.826 32.2024 146.495 32.0686L146.102 30.1074ZM144.134 30.4148C143.389 30.5024 142.645 30.6119 141.901 30.7432L142.248 32.7128C142.955 32.5881 143.661 32.4842 144.367 32.4011L144.134 30.4148ZM141.89 30.7451C141.168 30.8806 140.447 31.0608 139.728 31.2855L140.325 33.1945C140.971 32.9925 141.616 32.8314 142.259 32.7109L141.89 30.7451ZM139.71 31.2913C138.974 31.5368 138.301 31.8841 137.699 32.336L138.899 33.936C139.32 33.6199 139.799 33.3699 140.343 33.1887L139.71 31.2913ZM137.71 32.3273C137.11 32.7642 136.63 33.3307 136.266 34.0059L138.027 34.9541C138.261 34.52 138.549 34.1905 138.887 33.9447L137.71 32.3273ZM136.266 34.0059C135.866 34.7487 135.699 35.6293 135.699 36.592H137.699C137.699 35.8481 137.83 35.3206 138.027 34.9541L136.266 34.0059ZM135.699 36.592C135.699 37.522 135.87 38.3779 136.266 39.1141L138.027 38.1659C137.826 37.7928 137.699 37.2834 137.699 36.592H135.699ZM136.266 39.1141C136.64 39.8094 137.156 40.3817 137.808 40.816L138.917 39.1519C138.545 38.9037 138.25 38.5799 138.027 38.1659L136.266 39.1141ZM137.859 40.8478C138.485 41.2131 139.194 41.4613 139.97 41.6069L140.339 39.6411C139.75 39.5307 139.264 39.3522 138.866 39.1202L137.859 40.8478ZM139.97 41.6069C140.716 41.7468 141.482 41.816 142.267 41.816V39.816C141.6 39.816 140.958 39.7572 140.339 39.6411L139.97 41.6069ZM142.267 41.816C144.148 41.816 145.744 41.5062 146.946 40.7742L145.907 39.0658C145.146 39.5285 143.969 39.816 142.267 39.816V41.816ZM146.946 40.7742C148.039 40.1094 148.898 39.2938 149.468 38.309L147.737 37.307C147.369 37.9436 146.777 38.536 145.907 39.0658L146.946 40.7742ZM149.479 38.2899C150.004 37.3344 150.329 36.352 150.43 35.3475L148.439 35.1485C148.369 35.8506 148.139 36.5749 147.726 37.3261L149.479 38.2899ZM150.423 35.3963C150.555 34.5223 150.627 33.7839 150.627 33.2H148.627C148.627 33.6401 148.57 34.2671 148.446 35.0997L150.423 35.3963ZM150.627 33.2V29.808H148.627V33.2H150.627ZM177.289 12.912H176.289V13.912H177.289V12.912ZM177.289 2.992H178.289V1.992H177.289V2.992ZM168.201 2.992V1.992H167.201V2.992H168.201ZM168.201 12.912V13.912H169.201V12.912H168.201ZM162.697 12.912V11.912H161.697V12.912H162.697ZM162.697 18.992H161.697V19.992H162.697V18.992ZM168.201 18.992H169.201V17.992H168.201V18.992ZM169.033 42.544L168.153 43.0203L168.153 43.0203L169.033 42.544ZM171.273 44.912L170.764 45.7729L170.772 45.7778L170.78 45.7826L171.273 44.912ZM174.601 46L174.765 45.0136L174.751 45.0113L174.737 45.0094L174.601 46ZM181.385 46.256L181.339 45.257L181.339 45.257L181.385 46.256ZM183.945 46L184.109 46.9864L184.945 46.8471V46H183.945ZM183.945 38.96H184.945V37.7402L183.748 37.9794L183.945 38.96ZM182.601 39.152L182.51 38.1561L182.51 38.1561L182.601 39.152ZM178.057 38.448L177.349 39.1551L177.349 39.1551L178.057 38.448ZM177.289 18.992V17.992H176.289V18.992H177.289ZM183.945 18.992V19.992H184.945V18.992H183.945ZM183.945 12.912H184.945V11.912H183.945V12.912ZM178.289 12.912V2.992H176.289V12.912H178.289ZM177.289 1.992H168.201V3.992H177.289V1.992ZM167.201 2.992V12.912H169.201V2.992H167.201ZM168.201 11.912H162.697V13.912H168.201V11.912ZM161.697 12.912V18.992H163.697V12.912H161.697ZM162.697 19.992H168.201V17.992H162.697V19.992ZM167.201 18.992V38.512H169.201V18.992H167.201ZM167.201 38.512C167.201 40.2754 167.493 41.8007 168.153 43.0203L169.912 42.0677C169.463 41.2393 169.201 40.0766 169.201 38.512H167.201ZM168.153 43.0203C168.788 44.1924 169.658 45.1197 170.764 45.7729L171.781 44.0511C171.009 43.595 170.386 42.9436 169.912 42.0677L168.153 43.0203ZM170.78 45.7826C171.883 46.4057 173.115 46.8046 174.464 46.9906L174.737 45.0094C173.611 44.8541 172.625 44.5277 171.765 44.0414L170.78 45.7826ZM174.436 46.9864C175.775 47.2095 177.174 47.32 178.633 47.32V45.32C177.275 45.32 175.986 45.2172 174.765 45.0136L174.436 46.9864ZM178.633 47.32C179.544 47.32 180.477 47.2983 181.43 47.255L181.339 45.257C180.415 45.299 179.513 45.32 178.633 45.32V47.32ZM181.43 47.255C182.401 47.2108 183.294 47.1221 184.109 46.9864L183.78 45.0136C183.059 45.1339 182.246 45.2158 181.339 45.257L181.43 47.255ZM184.945 46V38.96H182.945V46H184.945ZM183.748 37.9794C183.359 38.0572 182.947 38.1164 182.51 38.1561L182.691 40.1479C183.193 40.1023 183.676 40.0334 184.141 39.9406L183.748 37.9794ZM182.51 38.1561C182.073 38.1958 181.613 38.216 181.128 38.216V40.216C181.668 40.216 182.189 40.1935 182.691 40.1479L182.51 38.1561ZM181.128 38.216C180.409 38.216 179.857 38.1553 179.451 38.0539C179.039 37.9509 178.846 37.823 178.764 37.7409L177.349 39.1551C177.779 39.585 178.354 39.8411 178.966 39.9941C179.584 40.1487 180.312 40.216 181.128 40.216V38.216ZM178.764 37.7409C178.681 37.6588 178.554 37.4652 178.451 37.0535C178.349 36.6478 178.289 36.0957 178.289 35.376H176.289C176.289 36.1923 176.356 36.9202 176.51 37.5385C176.663 38.1508 176.92 38.7252 177.349 39.1551L178.764 37.7409ZM178.289 35.376V18.992H176.289V35.376H178.289ZM177.289 19.992H183.945V17.992H177.289V19.992ZM184.945 18.992V12.912H182.945V18.992H184.945ZM183.945 11.912H177.289V13.912H183.945V11.912ZM219.309 46V47H220.309V46H219.309ZM219.309 12.912H220.309V11.912H219.309V12.912ZM210.221 12.912V11.912H209.221V12.912H210.221ZM208.557 37.552L209.351 38.1595L209.359 38.1483L208.557 37.552ZM198.637 37.744L197.789 38.274L197.792 38.2801L197.796 38.2861L198.637 37.744ZM197.357 12.912H198.357V11.912H197.357V12.912ZM188.269 12.912V11.912H187.269V12.912H188.269ZM188.781 38.896L187.8 39.0921L187.803 39.1065L187.806 39.1209L188.781 38.896ZM190.701 43.184L189.901 43.784L189.906 43.791L189.911 43.7979L190.701 43.184ZM194.349 45.872L193.964 46.7951L193.973 46.7987L194.349 45.872ZM205.997 45.552L206.418 46.4587L206.418 46.4587L205.997 45.552ZM210.477 41.392V40.392H209.91L209.619 40.8775L210.477 41.392ZM210.669 41.392H211.669V40.392H210.669V41.392ZM210.669 46H209.669V47H210.669V46ZM220.309 46V12.912H218.309V46H220.309ZM219.309 11.912H210.221V13.912H219.309V11.912ZM209.221 12.912V30.256H211.221V12.912H209.221ZM209.221 30.256C209.221 33.5646 208.667 35.7265 207.754 36.9557L209.359 38.1483C210.665 36.3908 211.221 33.6887 211.221 30.256H209.221ZM207.762 36.9445C206.904 38.0666 205.463 38.728 203.181 38.728V40.728C205.848 40.728 207.99 39.9387 209.351 38.1595L207.762 36.9445ZM203.181 38.728C201.201 38.728 200.08 38.1368 199.477 37.2019L197.796 38.2861C198.9 39.9965 200.808 40.728 203.181 40.728V38.728ZM199.484 37.214C198.778 36.0833 198.357 34.2589 198.357 31.6H196.357C196.357 34.4025 196.789 36.6741 197.789 38.274L199.484 37.214ZM198.357 31.6V12.912H196.357V31.6H198.357ZM197.357 11.912H188.269V13.912H197.357V11.912ZM187.269 12.912V33.264H189.269V12.912H187.269ZM187.269 33.264C187.269 35.3666 187.444 37.3107 187.8 39.0921L189.761 38.6999C189.435 37.0679 189.269 35.2574 189.269 33.264H187.269ZM187.806 39.1209C188.217 40.9013 188.91 42.4629 189.901 43.784L191.501 42.584C190.699 41.5158 190.112 40.2187 189.755 38.6711L187.806 39.1209ZM189.911 43.7979C190.927 45.1043 192.291 46.0981 193.964 46.7951L194.733 44.9489C193.334 44.3659 192.266 43.5677 191.49 42.5701L189.911 43.7979ZM193.973 46.7987C195.71 47.5031 197.854 47.832 200.365 47.832V45.832C198.011 45.832 196.144 45.5209 194.724 44.9453L193.973 46.7987ZM200.365 47.832C202.438 47.832 204.459 47.3701 206.418 46.4587L205.575 44.6453C203.865 45.4406 202.131 45.832 200.365 45.832V47.832ZM206.418 46.4587C208.453 45.5122 210.091 43.9788 211.334 41.9065L209.619 40.8775C208.558 42.6452 207.209 43.8851 205.575 44.6453L206.418 46.4587ZM210.477 42.392H210.669V40.392H210.477V42.392ZM209.669 41.392V46H211.669V41.392H209.669ZM210.669 47H219.309V45H210.669V47ZM226.206 12.912V11.912H225.206V12.912H226.206ZM226.206 46H225.206V47H226.206V46ZM235.294 46V47H236.294V46H235.294ZM237.214 23.6L236.41 23.0056L236.405 23.0118L237.214 23.6ZM240.03 21.296L240.464 22.197L240.464 22.197L240.03 21.296ZM245.982 20.592L245.841 21.5819L245.876 21.5869L245.911 21.5895L245.982 20.592ZM247.518 20.784L247.322 21.7646L248.518 22.0038V20.784H247.518ZM247.518 12.336H248.518V11.5878L247.8 11.3766L247.518 12.336ZM242.206 12.528L242.511 13.4804L242.511 13.4804L242.206 12.528ZM239.198 14L239.735 14.8437L239.748 14.8352L239.761 14.8262L239.198 14ZM236.702 16.24L237.464 16.8876L237.472 16.8785L237.479 16.8692L236.702 16.24ZM234.974 19.056V20.056H235.641L235.897 19.4406L234.974 19.056ZM234.846 19.056H233.846V20.056H234.846V19.056ZM234.846 12.912H235.846V11.912H234.846V12.912ZM225.206 12.912V46H227.206V12.912H225.206ZM226.206 47H235.294V45H226.206V47ZM236.294 46V31.088H234.294V46H236.294ZM236.294 31.088C236.294 29.661 236.437 28.3515 236.716 27.1552L234.768 26.7008C234.45 28.0645 234.294 29.5283 234.294 31.088H236.294ZM236.716 27.1552C236.988 25.9882 237.428 25.0054 238.023 24.1882L236.405 23.0118C235.634 24.072 235.093 25.3078 234.768 26.7008L236.716 27.1552ZM238.018 24.1944C238.642 23.3502 239.451 22.6846 240.464 22.197L239.596 20.395C238.305 21.0167 237.236 21.8872 236.41 23.0056L238.018 24.1944ZM240.464 22.197C241.446 21.7241 242.697 21.464 244.254 21.464V19.464C242.483 19.464 240.918 19.7586 239.596 20.395L240.464 22.197ZM244.254 21.464C244.757 21.464 245.286 21.5027 245.841 21.5819L246.123 19.602C245.483 19.5106 244.86 19.464 244.254 19.464V21.464ZM245.911 21.5895C246.481 21.6302 246.949 21.6899 247.322 21.7646L247.714 19.8034C247.234 19.7074 246.678 19.6392 246.053 19.5945L245.911 21.5895ZM248.518 20.784V12.336H246.518V20.784H248.518ZM247.8 11.3766C247.006 11.1431 246.248 11.016 245.534 11.016V13.016C246.014 13.016 246.579 13.1022 247.236 13.2954L247.8 11.3766ZM245.534 11.016C244.282 11.016 243.069 11.2018 241.901 11.5756L242.511 13.4804C243.476 13.1715 244.482 13.016 245.534 13.016V11.016ZM241.901 11.5756C240.741 11.9467 239.652 12.4803 238.635 13.1738L239.761 14.8262C240.622 14.2397 241.537 13.7919 242.511 13.4804L241.901 11.5756ZM238.661 13.1563C237.628 13.8138 236.716 14.6339 235.925 15.6108L237.479 16.8692C238.139 16.0541 238.891 15.3809 239.735 14.8437L238.661 13.1563ZM235.94 15.5923C235.148 16.5237 234.518 17.551 234.051 18.6714L235.897 19.4406C236.284 18.513 236.805 17.6629 237.464 16.8876L235.94 15.5923ZM234.974 18.056H234.846V20.056H234.974V18.056ZM235.846 19.056V12.912H233.846V19.056H235.846ZM234.846 11.912H226.206V13.912H234.846V11.912ZM272.228 25.904V26.904H273.43L273.211 25.7219L272.228 25.904ZM257.444 25.904L256.446 25.8375L256.375 26.904H257.444V25.904ZM257.828 23.728L256.874 23.4269L256.867 23.45L256.861 23.4735L257.828 23.728ZM259.044 21.424L258.272 20.7883L258.261 20.8022L258.25 20.8165L259.044 21.424ZM261.348 19.632L261.795 20.5264L261.803 20.5226L261.811 20.5186L261.348 19.632ZM269.924 20.656L269.178 21.322L269.185 21.3293L269.191 21.3364L269.924 20.656ZM257.444 31.664V30.664H256.4L256.445 31.7074L257.444 31.664ZM281.316 31.664V32.664H282.252L282.314 31.7305L281.316 31.664ZM277.732 18.032L276.921 18.6168L276.925 18.6229L276.93 18.629L277.732 18.032ZM272.612 13.68L272.143 14.5633L272.15 14.5671L272.158 14.5708L272.612 13.68ZM258.34 13.36L257.946 12.4408L257.939 12.4438L258.34 13.36ZM253.028 17.072L253.745 17.7691L253.754 17.7592L253.028 17.072ZM249.572 22.576L248.637 22.2208L248.637 22.2208L249.572 22.576ZM249.508 36.528L248.567 36.8667L248.57 36.875L248.573 36.8832L249.508 36.528ZM258.212 45.616L257.834 46.5418L257.842 46.5452L257.85 46.5484L258.212 45.616ZM274.852 44.272L275.394 45.1123L275.394 45.1123L274.852 44.272ZM280.74 35.76L281.692 36.067L282.113 34.76H280.74V35.76ZM272.74 35.76V34.76H271.99L271.78 35.48L272.74 35.76ZM270.308 38.704L270.869 39.5319L270.878 39.5258L270.887 39.5195L270.308 38.704ZM259.684 38.064L260.38 37.3458L260.38 37.3458L259.684 38.064ZM272.228 24.904H257.444V26.904H272.228V24.904ZM258.442 25.9705C258.479 25.4099 258.593 24.7492 258.795 23.9825L256.861 23.4735C256.636 24.3281 256.494 25.1181 256.446 25.8375L258.442 25.9705ZM258.782 24.0291C259 23.337 259.349 22.6715 259.838 22.0315L258.25 20.8165C257.63 21.6271 257.168 22.4977 256.874 23.4269L258.782 24.0291ZM259.816 22.0597C260.314 21.4544 260.967 20.9405 261.795 20.5264L260.901 18.7376C259.852 19.2621 258.968 19.943 258.272 20.7883L259.816 22.0597ZM261.811 20.5186C262.612 20.1006 263.658 19.864 264.996 19.864V17.864C263.433 17.864 262.047 18.1394 260.885 18.7454L261.811 20.5186ZM264.996 19.864C267.044 19.864 268.366 20.4121 269.178 21.322L270.67 19.99C269.349 18.5106 267.386 17.864 264.996 17.864V19.864ZM269.191 21.3364C270.127 22.3439 270.838 23.8912 271.245 26.0861L273.211 25.7219C272.764 23.3088 271.94 21.3574 270.657 19.9755L269.191 21.3364ZM257.444 32.664H281.316V30.664H257.444V32.664ZM282.314 31.7305C282.491 29.0716 282.27 26.5122 281.645 24.0573L279.707 24.5507C280.277 26.7892 280.482 29.1364 280.318 31.5975L282.314 31.7305ZM281.645 24.0573C281.017 21.5917 279.982 19.3805 278.534 17.435L276.93 18.629C278.213 20.3528 279.14 22.323 279.707 24.5507L281.645 24.0573ZM278.543 17.4472C277.124 15.4787 275.293 13.9253 273.066 12.7892L272.158 14.5708C274.112 15.568 275.695 16.9159 276.921 18.6168L278.543 17.4472ZM273.081 12.7967C270.821 11.5974 268.201 11.016 265.252 11.016V13.016C267.935 13.016 270.222 13.5439 272.143 14.5633L273.081 12.7967ZM265.252 11.016C262.614 11.016 260.174 11.4861 257.946 12.4409L258.734 14.2791C260.687 13.4419 262.856 13.016 265.252 13.016V11.016ZM257.939 12.4438C255.772 13.392 253.89 14.7059 252.302 16.3848L253.754 17.7592C255.153 16.2807 256.812 15.12 258.741 14.2762L257.939 12.4438ZM252.311 16.3749C250.716 18.0151 249.493 19.9683 248.637 22.2208L250.507 22.9312C251.272 20.917 252.353 19.2009 253.745 17.7691L252.311 16.3749ZM248.637 22.2208C247.78 24.4768 247.356 26.9022 247.356 29.488H249.356C249.356 27.1244 249.743 24.9419 250.507 22.9312L248.637 22.2208ZM247.356 29.488C247.356 32.1487 247.755 34.6117 248.567 36.8667L250.449 36.1893C249.725 34.1777 249.356 31.9473 249.356 29.488H247.356ZM248.573 36.8832C249.427 39.1297 250.625 41.0795 252.173 42.7186L253.627 41.3454C252.274 39.9125 251.21 38.193 250.443 36.1728L248.573 36.8832ZM252.173 42.7186C253.728 44.3654 255.621 45.6384 257.834 46.5418L258.59 44.6902C256.622 43.887 254.973 42.7706 253.627 41.3454L252.173 42.7186ZM257.85 46.5484C260.073 47.4103 262.545 47.832 265.252 47.832V45.832C262.753 45.832 260.532 45.443 258.574 44.6836L257.85 46.5484ZM265.252 47.832C269.161 47.832 272.558 46.9419 275.394 45.1123L274.31 43.4317C271.855 45.0155 268.852 45.832 265.252 45.832V47.832ZM275.394 45.1123C278.289 43.2449 280.364 40.183 281.692 36.067L279.788 35.453C278.556 39.273 276.706 41.8857 274.31 43.4317L275.394 45.1123ZM280.74 34.76H272.74V36.76H280.74V34.76ZM271.78 35.48C271.57 36.2005 270.959 37.0157 269.729 37.8885L270.887 39.5195C272.302 38.515 273.313 37.3675 273.7 36.04L271.78 35.48ZM269.747 37.8761C268.614 38.6439 267.237 39.048 265.572 39.048V41.048C267.576 41.048 269.357 40.5561 270.869 39.5319L269.747 37.8761ZM265.572 39.048C263.179 39.048 261.501 38.4324 260.38 37.3458L258.988 38.7822C260.597 40.341 262.845 41.048 265.572 41.048V39.048ZM260.38 37.3458C259.277 36.2772 258.566 34.445 258.443 31.6206L256.445 31.7074C256.578 34.771 257.361 37.2054 258.988 38.7822L260.38 37.3458ZM287.154 36.144V35.144H286.154V36.144H287.154ZM287.154 46H286.154V47H287.154V46ZM297.202 46V47H298.202V46H297.202ZM297.202 36.144H298.202V35.144H297.202V36.144ZM296.882 12.592L297.874 12.7176L297.882 12.6551V12.592H296.882ZM296.882 0.303997H297.882V-0.696003H296.882V0.303997ZM287.41 0.303997V-0.696003H286.41V0.303997H287.41ZM287.41 12.592H286.41V12.6535L286.418 12.7144L287.41 12.592ZM289.842 32.304L288.85 32.4264L288.958 33.304H289.842V32.304ZM294.386 32.304V33.304H295.267L295.378 32.4296L294.386 32.304ZM286.154 36.144V46H288.154V36.144H286.154ZM287.154 47H297.202V45H287.154V47ZM298.202 46V36.144H296.202V46H298.202ZM297.202 35.144H287.154V37.144H297.202V35.144ZM297.882 12.592V0.303997H295.882V12.592H297.882ZM296.882 -0.696003H287.41V1.304H296.882V-0.696003ZM286.41 0.303997V12.592H288.41V0.303997H286.41ZM286.418 12.7144L288.85 32.4264L290.834 32.1816L288.402 12.4696L286.418 12.7144ZM289.842 33.304H294.386V31.304H289.842V33.304ZM295.378 32.4296L297.874 12.7176L295.89 12.4664L293.394 32.1784L295.378 32.4296Z" fill="#343434"/>
</svg>
