<svg width="40" height="39" viewBox="0 0 40 39" fill="none" xmlns="http://www.w3.org/2000/svg">
<g clip-path="url(#clip0_264_288)">
<path fill-rule="evenodd" clip-rule="evenodd" d="M37.2829 0H3.0334C1.85915 0 0.908203 0.950948 0.908203 2.1252V36.3747C0.908203 37.549 1.85915 38.4999 3.0334 38.4999H21.471V23.5908H16.4545V17.7812H21.471V13.4942C21.471 8.52004 24.5087 5.81349 28.9458 5.81349C31.071 5.81349 32.8959 5.97134 33.4291 6.04257V11.2401H30.353C27.939 11.2401 27.4732 12.3874 27.4732 14.0698V17.7793H33.227L32.4762 23.5889H27.4712V38.4999H37.2829C38.4572 38.4999 39.4081 37.549 39.4081 36.3747V2.1252C39.4081 0.950948 38.4572 0 37.2829 0Z" fill="white"/>
</g>
<defs>
<clipPath id="clip0_264_288">
<rect x="0.908203" width="38.4999" height="38.4999" rx="4.49166" fill="white"/>
</clipPath>
</defs>
</svg>
