<svg width="39" height="39" viewBox="0 0 39 39" fill="none" xmlns="http://www.w3.org/2000/svg">
<path d="M19.7499 3.46853C24.8899 3.46853 25.4987 3.4881 27.5285 3.58071C29.4054 3.66637 30.4247 3.97996 31.1031 4.24351C32.0015 4.59272 32.6428 5.00993 33.3164 5.68351C33.99 6.35709 34.4072 6.99843 34.7564 7.89689C35.02 8.57528 35.3336 9.59455 35.4192 11.4713C35.5118 13.5012 35.5314 14.11 35.5314 19.25C35.5314 24.39 35.5118 24.9988 35.4192 27.0286C35.3336 28.9055 35.02 29.9247 34.7564 30.6031C34.4072 31.5016 33.99 32.1429 33.3164 32.8165C32.6428 33.4901 32.0015 33.9073 31.1031 34.2564C30.4247 34.5201 29.4054 34.8337 27.5285 34.9193C25.499 35.0119 24.8902 35.0315 19.7499 35.0315C14.6096 35.0315 14.0009 35.0119 11.9713 34.9193C10.0945 34.8337 9.07521 34.5201 8.39689 34.2564C7.49835 33.9073 6.85702 33.4901 6.18344 32.8165C5.50986 32.1429 5.09264 31.5016 4.74351 30.6031C4.47989 29.9247 4.16629 28.9055 4.08063 27.0287C3.98802 24.9988 3.96846 24.39 3.96846 19.25C3.96846 14.11 3.98802 13.5012 4.08063 11.4714C4.16629 9.59455 4.47989 8.57528 4.74351 7.89689C5.09264 6.99843 5.50986 6.35709 6.18344 5.68351C6.85702 5.00993 7.49835 4.59272 8.39689 4.24351C9.07521 3.97996 10.0945 3.66637 11.9713 3.58071C14.0012 3.4881 14.6099 3.46853 19.7499 3.46853ZM19.7499 0C14.5219 0 13.8664 0.0221597 11.8132 0.115842C9.76422 0.209371 8.36495 0.534737 7.14043 1.01064C5.87458 1.50258 4.80105 2.1608 3.73089 3.23097C2.66073 4.30113 2.00251 5.37465 1.51056 6.64051C1.03466 7.86503 0.709295 9.2643 0.615766 11.3133C0.522083 13.3664 0.5 14.022 0.5 19.25C0.5 24.478 0.522083 25.1336 0.615766 27.1867C0.709295 29.2357 1.03466 30.635 1.51056 31.8595C2.00251 33.1253 2.66073 34.1989 3.73089 35.2691C4.80105 36.3392 5.87458 36.9974 7.14043 37.4894C8.36495 37.9653 9.76422 38.2906 11.8132 38.3842C13.8664 38.4779 14.5219 38.4999 19.7499 38.4999C24.9779 38.4999 25.6335 38.4779 27.6866 38.3842C29.7356 38.2906 31.1349 37.9653 32.3594 37.4894C33.6253 36.9974 34.6988 36.3392 35.769 35.2691C36.8391 34.1989 37.4974 33.1254 37.9893 31.8595C38.4652 30.635 38.7906 29.2357 38.8841 27.1867C38.9778 25.1336 38.9999 24.478 38.9999 19.25C38.9999 14.022 38.9778 13.3664 38.8841 11.3133C38.7906 9.2643 38.4652 7.86503 37.9893 6.64051C37.4974 5.37465 36.8391 4.30113 35.769 3.23097C34.6988 2.1608 33.6253 1.50258 32.3594 1.01064C31.1349 0.534737 29.7356 0.209371 27.6866 0.115842C25.6335 0.0221597 24.9779 0 19.7499 0ZM19.7499 9.36486C14.2905 9.36486 9.86478 13.7906 9.86478 19.25C9.86478 24.7094 14.2905 29.1352 19.7499 29.1352C25.2093 29.1352 29.6351 24.7094 29.6351 19.25C29.6351 13.7906 25.2093 9.36486 19.7499 9.36486ZM19.7499 25.6667C16.2061 25.6667 13.3332 22.7938 13.3332 19.25C13.3332 15.7062 16.2061 12.8333 19.7499 12.8333C23.2937 12.8333 26.1666 15.7062 26.1666 19.25C26.1666 22.7938 23.2937 25.6667 19.7499 25.6667ZM32.3356 8.97431C32.3356 10.2501 31.3014 11.2843 30.0256 11.2843C28.7498 11.2843 27.7156 10.2501 27.7156 8.97431C27.7156 7.69852 28.7498 6.66435 30.0256 6.66435C31.3014 6.66435 32.3356 7.69852 32.3356 8.97431Z" fill="white"/>
</svg>
