<svg width="40" height="39" viewBox="0 0 40 39" fill="none" xmlns="http://www.w3.org/2000/svg">
<path fill-rule="evenodd" clip-rule="evenodd" d="M4.98187 38.4999H34.9263C37.2888 38.4999 39.204 36.5847 39.204 34.2222V4.27777C39.204 1.91522 37.2888 0 34.9263 0H4.98187C2.61932 0 0.704102 1.91522 0.704102 4.27777V34.2222C0.704102 36.5847 2.61932 38.4999 4.98187 38.4999Z" fill="white"/>
<path fill-rule="evenodd" clip-rule="evenodd" d="M33.8569 33.1532H28.1437V23.4224C28.1437 20.7545 27.13 19.2635 25.0183 19.2635C22.7211 19.2635 21.5209 20.8151 21.5209 23.4224V33.1532H16.015V14.6162H21.5209V17.1131C21.5209 17.1131 23.1764 14.0498 27.1101 14.0498C31.042 14.0498 33.8569 16.4509 33.8569 21.4167V33.1532ZM9.44652 12.1889C7.5711 12.1889 6.05139 10.6573 6.05139 8.76827C6.05139 6.87929 7.5711 5.34766 9.44652 5.34766C11.3219 5.34766 12.8408 6.87929 12.8408 8.76827C12.8408 10.6573 11.3219 12.1889 9.44652 12.1889ZM6.60352 33.1532H12.3447V14.6162H6.60352V33.1532Z" fill="#343434"/>
</svg>
