<svg width="16" height="21" viewBox="0 0 16 21" fill="none" xmlns="http://www.w3.org/2000/svg">
<path d="M8.00002 0.0834961C3.80752 0.0834961 0.416687 3.34391 0.416687 7.37516C0.416687 12.8439 8.00002 20.9168 8.00002 20.9168C8.00002 20.9168 15.5834 12.8439 15.5834 7.37516C15.5834 3.34391 12.1925 0.0834961 8.00002 0.0834961ZM8.00002 9.97933C7.28173 9.97933 6.59285 9.70496 6.08494 9.21659C5.57703 8.72821 5.29169 8.06583 5.29169 7.37516C5.29169 6.6845 5.57703 6.02212 6.08494 5.53374C6.59285 5.04536 7.28173 4.771 8.00002 4.771C8.71832 4.771 9.40719 5.04536 9.9151 5.53374C10.423 6.02212 10.7084 6.6845 10.7084 7.37516C10.7084 8.06583 10.423 8.72821 9.9151 9.21659C9.40719 9.70496 8.71832 9.97933 8.00002 9.97933Z" fill="#FF4E00"/>
</svg>
